<svg xmlns="http://www.w3.org/2000/svg" width="1000" height="420" viewBox="0 0 1000 420">
  <rect width="1000" height="420" fill="#FFFFFF"/>
  <path d="M 99.59 67.41 C 104.2 67.64 118.48 67.84 128.37 67.48 C 138.26 67.13 149.32 65.57 158.91 65.28 C 168.5 64.98 176.75 65.43 185.91 65.69 C 195.07 65.96 204.29 66.94 213.87 66.87 C 223.46 66.8 233.92 65.32 243.41 65.27 C 252.91 65.22 261.53 66.63 270.85 66.56 C 280.16 66.49 293.62 64.76 299.28 64.86 C 304.94 64.97 302.75 66.07 304.8 67.2 C 306.85 68.33 310 70.32 311.59 71.65 C 313.17 72.99 313.52 73.63 314.31 75.22 C 315.09 76.81 316.28 80.23 316.32 81.19 C 316.35 82.15 314.69 75.85 314.51 80.97 C 314.34 86.09 315.09 101.89 315.27 111.89 C 315.45 121.89 315.55 131.39 315.61 140.98 C 315.66 150.58 315.83 159.73 315.61 169.46 C 315.38 179.19 314.11 189.67 314.25 199.38 C 314.4 209.08 316.1 218.07 316.47 227.7 C 316.84 237.33 316.55 247.47 316.49 257.15 C 316.43 266.83 316.43 280.01 316.13 285.77 C 315.84 291.53 315.87 289.77 314.72 291.7 C 313.56 293.62 310.87 295.91 309.2 297.33 C 307.52 298.75 306.18 299.6 304.68 300.21 C 303.18 300.82 301.26 300.82 300.2 300.98 C 299.14 301.14 303.04 300.99 298.31 301.16 C 293.59 301.33 280.91 301.85 271.84 302.02 C 262.77 302.2 253.37 302.4 243.91 302.22 C 234.45 302.05 224.89 300.94 215.06 300.95 C 205.22 300.97 194.72 302.07 184.91 302.3 C 175.09 302.53 165.39 302.69 156.19 302.34 C 146.99 301.99 139.07 300.32 129.7 300.21 C 120.34 300.09 106.02 301.76 100 301.65 C 93.98 301.55 95.51 300.65 93.59 299.58 C 91.68 298.5 89.86 296.55 88.51 295.22 C 87.15 293.89 86.29 293.11 85.47 291.58 C 84.65 290.05 83.59 287.28 83.58 286.06 C 83.57 284.84 85.05 289.5 85.39 284.28 C 85.73 279.05 85.83 264.23 85.64 254.69 C 85.46 245.15 84.19 236.37 84.26 227.01 C 84.33 217.65 86.17 207.96 86.06 198.53 C 85.96 189.09 83.97 180.29 83.62 170.38 C 83.27 160.46 83.69 149.16 83.96 139.05 C 84.23 128.94 85.11 119.36 85.23 109.71 C 85.36 100.06 84.59 86.85 84.73 81.13 C 84.87 75.42 85.28 77.25 86.07 75.43 C 86.86 73.6 87.99 71.5 89.45 70.21 C 90.91 68.92 92.93 68.38 94.82 67.69 C 96.7 67 99.96 66.13 100.76 66.09 C 101.56 66.04 94.99 67.17 99.59 67.41 Z" fill="#1F2937" opacity="0.13"/>
  <path d="M 95.63 59.82 C 100.33 59.83 114.03 60 123.53 59.92 C 133.02 59.85 143.08 59.36 152.58 59.39 C 162.08 59.42 171.11 59.96 180.53 60.1 C 189.95 60.24 199.71 60.16 209.12 60.24 C 218.53 60.31 227.66 60.49 236.99 60.58 C 246.32 60.66 255.63 60.92 265.08 60.75 C 274.54 60.59 287.92 59.37 293.71 59.59 C 299.5 59.8 297.84 61.04 299.83 62.02 C 301.82 63.01 304.02 64.19 305.66 65.48 C 307.3 66.78 308.85 68.2 309.67 69.81 C 310.48 71.43 310.4 74.22 310.55 75.18 C 310.69 76.14 310.7 70.54 310.56 75.56 C 310.42 80.58 309.79 95.55 309.7 105.31 C 309.61 115.06 310.02 124.51 310.02 134.09 C 310.01 143.68 309.55 153.3 309.68 162.81 C 309.8 172.32 310.85 181.41 310.76 191.15 C 310.67 200.89 309.39 211.52 309.14 221.26 C 308.89 230.99 309.17 240.08 309.25 249.56 C 309.32 259.04 309.7 272.08 309.59 278.15 C 309.48 284.22 309.19 284.08 308.58 285.98 C 307.98 287.87 307.23 288.07 305.96 289.49 C 304.7 290.91 302.89 293.68 301 294.51 C 299.12 295.33 295.87 294.44 294.65 294.42 C 293.42 294.4 298.42 294.23 293.67 294.39 C 288.92 294.55 275.58 295.15 266.14 295.39 C 256.7 295.63 246.46 295.83 237.03 295.83 C 227.59 295.83 218.94 295.42 209.55 295.39 C 200.17 295.35 190.2 295.62 180.72 295.64 C 171.24 295.66 161.94 295.74 152.66 295.5 C 143.38 295.27 134.61 294.39 125.03 294.23 C 115.45 294.06 100.92 294.65 95.19 294.52 C 89.45 294.4 92.42 294.16 90.64 293.47 C 88.85 292.79 86.02 291.82 84.47 290.41 C 82.91 289.01 81.95 286.95 81.3 285.03 C 80.66 283.12 80.71 280.05 80.57 278.93 C 80.44 277.82 80.5 283.18 80.48 278.34 C 80.46 273.51 80.53 259.6 80.45 249.94 C 80.37 240.27 79.98 230.11 80.01 220.34 C 80.05 210.58 80.59 200.91 80.67 191.36 C 80.74 181.81 80.73 172.46 80.47 163.04 C 80.22 153.62 79.12 144.62 79.12 134.82 C 79.12 125.03 80.4 113.96 80.45 104.28 C 80.5 94.61 79.31 82.5 79.42 76.78 C 79.54 71.07 80.28 72.17 81.13 70 C 81.99 67.84 83.21 65.33 84.54 63.8 C 85.87 62.26 87.31 61.46 89.11 60.8 C 90.91 60.14 94.24 59.99 95.33 59.83 C 96.42 59.66 90.93 59.8 95.63 59.82 Z" fill="#FFFFFF" opacity="1"/>
  <path d="M 95.67 60.79 C 99.98 60.91 113.52 60.57 122.88 60.5 C 132.23 60.43 142.24 60.68 151.82 60.38 C 161.41 60.08 170.72 59 180.38 58.72 C 190.04 58.44 200.14 58.58 209.81 58.71 C 219.47 58.83 229.25 59.21 238.38 59.47 C 247.5 59.73 255.2 59.94 264.55 60.27 C 273.91 60.61 288.73 61.51 294.52 61.47 C 300.3 61.42 297.26 59.59 299.27 60.01 C 301.28 60.43 304.94 62.32 306.59 64 C 308.24 65.67 308.35 68.03 309.16 70.07 C 309.97 72.12 311.15 75.45 311.45 76.28 C 311.74 77.11 311.03 70.28 310.93 75.06 C 310.84 79.84 310.91 95.06 310.89 104.95 C 310.86 114.84 311.12 124.78 310.79 134.41 C 310.46 144.04 308.99 153.27 308.91 162.71 C 308.84 172.15 310.25 181.46 310.34 191.07 C 310.43 200.68 309.55 210.36 309.47 220.37 C 309.39 230.38 309.57 241.29 309.88 251.13 C 310.19 260.98 311.42 273.54 311.33 279.43 C 311.23 285.31 310.13 284.58 309.31 286.43 C 308.48 288.28 308.16 289.39 306.4 290.54 C 304.64 291.69 300.91 292.52 298.73 293.32 C 296.55 294.12 294.15 295.24 293.31 295.34 C 292.47 295.43 298.22 293.98 293.69 293.89 C 289.17 293.79 275.57 294.39 266.18 294.76 C 256.79 295.14 246.71 296.29 237.36 296.15 C 228.01 296 219.5 293.99 210.09 293.9 C 200.67 293.8 190.61 295.46 180.88 295.56 C 171.15 295.66 160.98 294.36 151.69 294.49 C 142.41 294.63 134.34 296.31 125.16 296.36 C 115.98 296.4 102.41 295 96.62 294.77 C 90.83 294.54 92.59 295.93 90.4 294.97 C 88.2 294.02 84.93 290.44 83.46 289.02 C 81.98 287.6 81.9 288.25 81.54 286.45 C 81.17 284.64 81.6 279.29 81.27 278.18 C 80.94 277.06 79.81 284.62 79.55 279.76 C 79.3 274.9 79.65 258.76 79.72 249.01 C 79.78 239.26 80 230.67 79.94 221.28 C 79.88 211.9 79.31 202.43 79.36 192.7 C 79.41 182.96 80.23 172.43 80.23 162.88 C 80.22 153.33 79.58 145.15 79.32 135.41 C 79.06 125.67 78.63 114.37 78.68 104.45 C 78.73 94.53 79.34 81.45 79.65 75.89 C 79.95 70.33 79.77 72.8 80.5 71.09 C 81.22 69.38 82.42 67.14 84.01 65.61 C 85.6 64.08 87.88 62.88 90.06 61.91 C 92.23 60.94 96.12 59.99 97.06 59.8 C 97.99 59.62 91.37 60.67 95.67 60.79 Z" fill="none" stroke="#1F2937" stroke-width="3" stroke-linecap="round" stroke-linejoin="round" opacity="1.0"/>
  <path d="M 93.92 59.63 C 98 59.57 112.66 58.02 122.12 57.8 C 131.57 57.58 140.59 57.73 150.66 58.29 C 160.74 58.84 173.02 61.17 182.58 61.14 C 192.13 61.11 199.23 58.35 208.02 58.11 C 216.81 57.87 225.74 59.07 235.32 59.68 C 244.89 60.3 255.79 61.71 265.49 61.81 C 275.18 61.91 287.64 60.6 293.49 60.28 C 299.34 59.96 298.78 59.39 300.56 59.91 C 302.34 60.43 302.9 61.65 304.16 63.4 C 305.42 65.15 307.21 68.05 308.12 70.42 C 309.03 72.8 309.24 76.93 309.64 77.65 C 310.04 78.37 310.56 69.88 310.5 74.74 C 310.43 79.59 309.7 96.99 309.26 106.79 C 308.81 116.59 307.73 124.4 307.83 133.52 C 307.93 142.64 309.3 151.4 309.86 161.49 C 310.42 171.57 311.34 184.19 311.21 194.02 C 311.09 203.84 309.49 210.96 309.11 220.44 C 308.72 229.92 309.13 241.17 308.91 250.91 C 308.68 260.64 308.1 272.99 307.77 278.85 C 307.44 284.7 307.28 284.07 306.94 286.03 C 306.59 287.98 306.71 289.53 305.72 290.56 C 304.72 291.59 302.61 291.18 300.98 292.2 C 299.34 293.22 297.25 296.16 295.91 296.68 C 294.57 297.2 297.95 295.29 292.94 295.31 C 287.93 295.34 275.03 296.91 265.87 296.85 C 256.72 296.79 247.69 295.42 238 294.96 C 228.31 294.5 217.26 294.45 207.75 294.09 C 198.24 293.72 190.24 292.72 180.93 292.76 C 171.63 292.79 161.23 293.81 151.91 294.3 C 142.59 294.79 134.62 295.75 125 295.71 C 115.37 295.68 99.77 294.73 94.17 294.07 C 88.57 293.41 93.08 292.7 91.4 291.78 C 89.72 290.85 85.95 289.26 84.08 288.5 C 82.21 287.75 80.9 288.54 80.18 287.25 C 79.46 285.96 80.11 282.08 79.76 280.79 C 79.4 279.5 78.01 284.83 78.07 279.51 C 78.13 274.19 79.61 258.88 80.13 248.86 C 80.65 238.85 81.11 228.79 81.19 219.43 C 81.27 210.06 81.12 202.03 80.61 192.69 C 80.11 183.35 78.41 172.86 78.15 163.39 C 77.88 153.92 78.39 145.76 79.02 135.87 C 79.65 125.99 81.45 114.15 81.93 104.09 C 82.4 94.02 82.04 81.16 81.89 75.51 C 81.73 69.85 80.4 71.89 81.01 70.16 C 81.62 68.44 83.74 66.79 85.57 65.16 C 87.39 63.53 89.96 61.53 91.96 60.37 C 93.97 59.2 97.28 58.3 97.61 58.18 C 97.94 58.06 89.83 59.7 93.92 59.63 Z" fill="none" stroke="#1F2937" stroke-width="2.1" stroke-linecap="round" stroke-linejoin="round" opacity="0.45"/>
  <path d="M 134.94 144.29 C 139.88 144.33 154.51 145.55 164.43 145.79 C 174.36 146.03 184.32 145.87 194.46 145.71 C 204.61 145.56 215.21 144.97 225.3 144.86 C 235.39 144.76 249.49 144.98 255.01 145.09 C 260.54 145.19 257.24 144.97 258.47 145.49 C 259.71 146.01 261.56 147.3 262.41 148.2 C 263.26 149.09 263.15 149.64 263.59 150.88 C 264.03 152.12 264.93 154.85 265.05 155.63 C 265.16 156.42 264.24 150.66 264.3 155.57 C 264.36 160.48 265.54 179.63 265.41 185.09 C 265.27 190.56 263.97 187.17 263.5 188.37 C 263.02 189.58 263.45 191.32 262.57 192.32 C 261.69 193.32 259.51 193.84 258.21 194.37 C 256.9 194.91 255.41 195.48 254.75 195.52 C 254.08 195.56 259.29 194.65 254.23 194.62 C 249.18 194.59 234.21 195.13 224.43 195.33 C 214.66 195.53 205.51 195.88 195.58 195.84 C 185.66 195.79 174.86 195.07 164.89 195.07 C 154.93 195.06 141.36 196.03 135.77 195.81 C 130.19 195.58 132.68 194.28 131.39 193.7 C 130.09 193.11 128.83 193.21 127.98 192.3 C 127.14 191.39 126.75 189.4 126.32 188.24 C 125.89 187.08 125.7 185.95 125.41 185.33 C 125.12 184.71 124.51 189.6 124.59 184.5 C 124.67 179.4 125.69 160.37 125.88 154.73 C 126.07 149.09 125.54 151.81 125.73 150.69 C 125.92 149.56 126.07 148.86 127.03 147.97 C 127.99 147.08 130.21 145.75 131.5 145.35 C 132.79 144.94 134.2 145.71 134.78 145.53 C 135.35 145.35 130 144.25 134.94 144.29 Z" fill="#EDF1F6" opacity="1"/>
  <path d="M 134.77 144.63 C 139.53 144.73 154.11 145.26 164.4 145.19 C 174.68 145.12 186.39 144.38 196.48 144.22 C 206.56 144.05 215.32 144.14 224.9 144.19 C 234.48 144.24 248.3 144.22 253.97 144.52 C 259.63 144.82 257.48 145.35 258.88 146.01 C 260.28 146.66 261.64 147.77 262.36 148.46 C 263.09 149.16 262.92 149.25 263.22 150.15 C 263.52 151.05 264.03 153.22 264.17 153.85 C 264.32 154.48 263.81 148.76 264.1 153.95 C 264.39 159.13 265.77 179.01 265.93 184.95 C 266.1 190.9 265.75 188.2 265.11 189.61 C 264.48 191.03 263.16 192.77 262.12 193.45 C 261.08 194.13 259.89 193.52 258.86 193.68 C 257.83 193.84 256.61 194.11 255.93 194.41 C 255.25 194.72 259.89 195.56 254.77 195.5 C 249.65 195.44 235.3 193.9 225.2 194.04 C 215.1 194.19 204.12 195.99 194.16 196.36 C 184.21 196.73 175.58 196.69 165.47 196.26 C 155.37 195.82 139.18 193.95 133.56 193.75 C 127.93 193.55 132.52 195.46 131.74 195.04 C 130.96 194.62 129.68 192.42 128.88 191.21 C 128.09 190.01 127.73 188.83 126.97 187.79 C 126.22 186.75 124.72 185.45 124.35 184.96 C 123.98 184.48 124.78 189.95 124.74 184.89 C 124.71 179.83 123.87 160 124.12 154.62 C 124.37 149.25 125.71 153.74 126.23 152.65 C 126.75 151.56 126.61 149.09 127.22 148.07 C 127.83 147.05 128.46 147.1 129.9 146.53 C 131.33 145.96 135.03 144.95 135.84 144.64 C 136.66 144.32 130.01 144.54 134.77 144.63 Z" fill="none" stroke="#94A3B8" stroke-width="3" stroke-linecap="round" stroke-linejoin="round" opacity="1.0"/>
  <path d="M 136.79 144.08 C 142.03 143.96 154.41 145.67 164.42 145.79 C 174.44 145.92 187.06 144.6 196.86 144.82 C 206.65 145.04 213.7 147.19 223.21 147.12 C 232.71 147.06 247.86 144.78 253.91 144.44 C 259.95 144.1 257.97 144.63 259.47 145.07 C 260.98 145.5 262.32 146.09 262.93 147.06 C 263.54 148.02 263.07 149.87 263.14 150.87 C 263.21 151.86 262.87 152.51 263.33 153 C 263.8 153.49 265.52 148.56 265.94 153.81 C 266.37 159.05 266.37 178.83 265.89 184.47 C 265.41 190.1 263.76 185.98 263.07 187.6 C 262.37 189.22 262.29 193.29 261.74 194.16 C 261.18 195.04 260.78 192.57 259.74 192.83 C 258.7 193.08 256.53 195.19 255.5 195.7 C 254.46 196.21 258.66 195.65 253.52 195.89 C 248.38 196.14 234.24 197.54 224.65 197.17 C 215.06 196.81 206.22 193.88 195.97 193.73 C 185.73 193.57 173.31 196.1 163.19 196.24 C 153.08 196.38 140.93 194.51 135.29 194.55 C 129.65 194.59 130.24 197.13 129.36 196.48 C 128.49 195.83 130.57 192.01 130.05 190.64 C 129.53 189.26 126.86 189.05 126.25 188.21 C 125.65 187.37 126.37 185.91 126.42 185.61 C 126.48 185.3 126.45 191.43 126.55 186.4 C 126.66 181.37 127.27 161.25 127.07 155.43 C 126.87 149.61 125.55 153.02 125.34 151.49 C 125.14 149.96 125.15 147.31 125.85 146.25 C 126.54 145.19 128.33 145.09 129.52 145.13 C 130.71 145.18 131.76 146.68 132.97 146.5 C 134.18 146.32 131.54 144.19 136.79 144.08 Z" fill="none" stroke="#94A3B8" stroke-width="2.1" stroke-linecap="round" stroke-linejoin="round" opacity="0.45"/>
  <path d="M 185.89 144.16 C 189.52 144.12 204.45 145.35 208.81 145.6 C 213.17 145.85 210.96 145.47 212.04 145.65 C 213.11 145.84 214.5 145.89 215.26 146.69 C 216.02 147.48 216.37 149.39 216.61 150.42 C 216.84 151.44 216.47 152.36 216.66 152.82 C 216.85 153.28 217.54 147.52 217.73 153.2 C 217.92 158.87 217.98 180.56 217.81 186.85 C 217.63 193.14 217.17 189.87 216.71 190.93 C 216.25 191.99 215.66 192.58 215.05 193.23 C 214.45 193.88 214.04 194.56 213.08 194.85 C 212.12 195.14 209.82 195 209.28 194.95 C 208.74 194.91 213.68 194.56 209.86 194.57 C 206.04 194.58 190.79 194.92 186.37 195.02 C 181.95 195.11 184.26 195.44 183.34 195.14 C 182.41 194.84 181.45 194.13 180.81 193.2 C 180.16 192.26 180.05 190.55 179.49 189.53 C 178.92 188.5 177.53 187.44 177.42 187.06 C 177.31 186.68 178.6 192.89 178.83 187.25 C 179.07 181.61 178.78 159.56 178.85 153.21 C 178.92 146.86 178.89 150.26 179.25 149.15 C 179.61 148.04 180.51 147.13 181.02 146.54 C 181.53 145.95 181.31 145.72 182.32 145.61 C 183.32 145.49 186.46 146.08 187.05 145.84 C 187.65 145.6 182.27 144.2 185.89 144.16 Z" fill="#FFFFFF" opacity="0.65"/>
  <text x="195" y="341.8" font-family="Chalkboard SE, Comic Sans MS, Comic Neue, Segoe Print, Bradley Hand, cursive" font-size="20" fill="#475569" text-anchor="middle">ROUNDED_RECTANGLE</text>
  <path d="M 399.59 67.45 C 404.19 67.39 418.94 64.57 428.43 64.58 C 437.92 64.58 447.13 67.04 456.55 67.49 C 465.98 67.94 475.21 67.57 484.97 67.29 C 494.73 67 505.65 66.13 515.1 65.78 C 524.55 65.44 532.18 65.26 541.67 65.24 C 551.17 65.22 562.44 65.7 572.09 65.67 C 581.74 65.64 594.3 64.82 599.58 65.06 C 604.86 65.3 602 66.31 603.79 67.13 C 605.58 67.95 608.69 68.71 610.33 69.97 C 611.98 71.23 612.71 72.71 613.66 74.68 C 614.61 76.64 615.96 80.43 616.05 81.77 C 616.15 83.12 614.36 77.65 614.22 82.76 C 614.07 87.87 614.94 102.66 615.18 112.44 C 615.41 122.22 615.81 132.22 615.64 141.44 C 615.47 150.66 614.17 158.41 614.14 167.77 C 614.11 177.13 615.52 187.85 615.46 197.61 C 615.4 207.36 614.06 216.63 613.78 226.28 C 613.5 235.93 613.47 245.81 613.77 255.51 C 614.07 265.22 615.75 278.32 615.59 284.5 C 615.43 290.67 613.67 290.44 612.8 292.57 C 611.93 294.69 611.69 296.05 610.38 297.22 C 609.08 298.4 607 299.04 604.96 299.6 C 602.92 300.16 598.93 300.31 598.16 300.56 C 597.4 300.82 605.14 300.96 600.38 301.12 C 595.61 301.29 579.11 301.71 569.59 301.54 C 560.08 301.38 552.69 300.08 543.27 300.11 C 533.85 300.14 522.75 301.4 513.09 301.72 C 503.42 302.05 494.39 302.35 485.3 302.09 C 476.21 301.83 468.11 300.35 458.54 300.17 C 448.97 299.99 437.7 300.83 427.9 301 C 418.1 301.18 405.14 301.51 399.74 301.24 C 394.35 300.97 397.28 300.42 395.53 299.41 C 393.78 298.4 390.58 296.4 389.23 295.19 C 387.89 293.98 388.06 293.8 387.47 292.15 C 386.87 290.51 385.89 286.74 385.66 285.31 C 385.43 283.89 386.38 288.44 386.11 283.6 C 385.84 278.76 384.33 265.89 384.02 256.3 C 383.71 246.7 384.19 235.71 384.26 226.01 C 384.32 216.31 384.21 207.43 384.43 198.1 C 384.65 188.76 385.29 179.45 385.59 170.01 C 385.88 160.57 386.2 151.53 386.21 141.46 C 386.22 131.38 385.73 119.28 385.67 109.58 C 385.6 99.87 385.89 88.63 385.81 83.21 C 385.73 77.78 384.34 79.14 385.17 77.02 C 386 74.9 389.41 72.15 390.79 70.5 C 392.17 68.84 391.8 68.03 393.48 67.1 C 395.15 66.17 399.83 64.86 400.85 64.92 C 401.87 64.98 394.99 67.51 399.59 67.45 Z" fill="#1F2937" opacity="0.13"/>
  <path d="M 396.75 60.56 C 401.65 60.68 415.21 60.01 424.6 59.84 C 433.99 59.67 443.7 59.66 453.09 59.55 C 462.47 59.44 471.46 59.15 480.89 59.16 C 490.33 59.16 500.33 59.34 509.7 59.59 C 519.08 59.83 527.72 60.54 537.13 60.62 C 546.54 60.7 556.76 60.15 566.16 60.06 C 575.56 59.96 587.96 59.74 593.53 60.05 C 599.1 60.36 597.69 61.03 599.58 61.92 C 601.48 62.8 603.39 64.06 604.9 65.34 C 606.41 66.63 607.72 67.94 608.63 69.61 C 609.53 71.29 610.18 74.38 610.35 75.38 C 610.52 76.37 609.55 70.65 609.64 75.57 C 609.73 80.49 610.96 95.09 610.88 104.89 C 610.81 114.68 609.47 124.75 609.17 134.35 C 608.87 143.94 608.87 152.74 609.11 162.45 C 609.34 172.16 610.37 182.91 610.57 192.6 C 610.76 202.29 610.52 211.13 610.29 220.61 C 610.06 230.1 609.34 239.87 609.18 249.48 C 609.01 259.1 609.31 272.32 609.29 278.29 C 609.27 284.26 609.84 283.36 609.06 285.29 C 608.28 287.23 606.07 288.39 604.62 289.9 C 603.17 291.4 602.18 293.58 600.36 294.33 C 598.54 295.07 594.88 294.19 593.71 294.36 C 592.53 294.53 597.93 295.13 593.34 295.36 C 588.74 295.59 575.33 295.82 566.12 295.75 C 556.91 295.68 547.68 295.09 538.07 294.95 C 528.46 294.81 517.88 294.78 508.45 294.93 C 499.02 295.08 490.84 295.91 481.51 295.86 C 472.17 295.81 461.82 294.73 452.42 294.62 C 443.03 294.5 434.65 295 425.11 295.16 C 415.57 295.31 401.17 295.68 395.19 295.54 C 389.21 295.4 390.9 295.08 389.22 294.32 C 387.54 293.56 386.43 292.65 385.11 291 C 383.78 289.36 382.27 286.58 381.28 284.43 C 380.28 282.29 379.39 278.99 379.14 278.13 C 378.89 277.27 379.64 284.06 379.79 279.27 C 379.94 274.48 379.9 259.25 380.05 249.4 C 380.2 239.55 380.7 229.65 380.68 220.18 C 380.66 210.72 380.06 202.19 379.93 192.59 C 379.81 182.98 379.95 172.28 379.94 162.55 C 379.94 152.82 379.88 143.78 379.9 134.19 C 379.91 124.61 380.05 114.71 380.03 105.03 C 380.02 95.35 379.58 81.9 379.81 76.11 C 380.05 70.32 380.72 72.21 381.45 70.32 C 382.18 68.43 382.83 66.36 384.19 64.76 C 385.55 63.16 387.77 61.67 389.61 60.73 C 391.45 59.8 394.04 59.15 395.23 59.13 C 396.42 59.1 391.86 60.45 396.75 60.56 Z" fill="#FFFFFF" opacity="1"/>
  <path d="M 394.79 61.23 C 399.54 61.06 416.03 60.53 425.66 60.31 C 435.28 60.08 443.25 60.03 452.53 59.88 C 461.81 59.73 471.75 59.56 481.33 59.4 C 490.92 59.24 500.59 58.82 510.03 58.9 C 519.46 58.98 528.6 59.89 537.96 59.9 C 547.32 59.9 556.89 59.08 566.2 58.93 C 575.51 58.79 588.13 58.63 593.83 59.02 C 599.52 59.42 598.26 60.32 600.37 61.32 C 602.48 62.32 605.32 63.79 606.49 65.03 C 607.66 66.28 606.73 66.82 607.39 68.8 C 608.06 70.77 610.04 75.64 610.47 76.9 C 610.9 78.16 610.19 71.76 609.98 76.35 C 609.78 80.94 609.16 95.06 609.27 104.44 C 609.38 113.82 610.59 122.95 610.64 132.63 C 610.69 142.31 609.58 152.62 609.55 162.51 C 609.53 172.4 610.23 182.14 610.51 191.97 C 610.79 201.8 611.53 211.62 611.24 221.47 C 610.94 231.33 609.02 241.51 608.75 251.09 C 608.49 260.67 609.88 273.08 609.66 278.94 C 609.43 284.8 608.03 284.31 607.39 286.26 C 606.74 288.21 607.18 289.38 605.78 290.64 C 604.38 291.89 601.03 292.87 598.97 293.79 C 596.91 294.71 594.05 296.11 593.42 296.15 C 592.78 296.19 599.84 294.01 595.18 294.03 C 590.51 294.05 574.89 296.33 565.44 296.29 C 555.99 296.24 547.71 294.02 538.49 293.75 C 529.27 293.49 519.67 294.71 510.11 294.69 C 500.55 294.67 490.47 293.42 481.12 293.65 C 471.77 293.89 463.68 295.91 454.01 296.1 C 444.34 296.28 432.66 294.95 423.11 294.74 C 413.56 294.53 402.03 294.85 396.7 294.82 C 391.36 294.79 393.19 295.11 391.1 294.57 C 389.01 294.04 385.81 293 384.13 291.6 C 382.45 290.2 381.52 288.06 381.03 286.19 C 380.53 284.32 381.09 281.36 381.16 280.36 C 381.23 279.37 381.77 285.08 381.44 280.21 C 381.11 275.34 379.43 260.83 379.2 251.13 C 378.98 241.44 380.04 231.72 380.11 222.04 C 380.18 212.36 379.49 202.8 379.6 193.04 C 379.72 183.29 380.65 173.15 380.79 163.52 C 380.92 153.9 380.74 145.14 380.41 135.3 C 380.07 125.46 379.05 114.35 378.76 104.47 C 378.47 94.59 378.38 81.77 378.66 76.03 C 378.93 70.3 379.17 71.9 380.4 70.05 C 381.62 68.19 384.41 66.38 386.01 64.92 C 387.6 63.45 388.1 61.85 389.96 61.25 C 391.82 60.65 396.36 61.33 397.17 61.32 C 397.98 61.32 390.04 61.39 394.79 61.23 Z" fill="none" stroke="#1F2937" stroke-width="3" stroke-linecap="round" stroke-linejoin="round" opacity="1.0"/>
  <path d="M 395.2 60.81 C 400.02 60.58 413.65 58.36 423.08 58.58 C 432.5 58.8 441.74 62.12 451.74 62.12 C 461.74 62.11 473.34 58.84 483.08 58.54 C 492.82 58.24 501.44 60.4 510.16 60.32 C 518.88 60.23 526.35 58.08 535.4 58.04 C 544.45 58 554.47 59.99 564.46 60.09 C 574.45 60.19 589.56 58.69 595.34 58.64 C 601.12 58.58 597.81 58.6 599.14 59.75 C 600.47 60.9 601.44 63.71 603.29 65.52 C 605.14 67.33 608.75 68.98 610.24 70.61 C 611.73 72.24 612.54 74.08 612.24 75.29 C 611.93 76.5 608.68 72.91 608.42 77.86 C 608.16 82.81 610.19 95.61 610.68 104.98 C 611.16 114.35 611.31 124.64 611.32 134.07 C 611.33 143.5 610.9 151.64 610.73 161.56 C 610.56 171.47 610.42 183.85 610.28 193.58 C 610.13 203.31 609.62 210.34 609.85 219.91 C 610.09 229.49 611.64 241.54 611.68 251.05 C 611.71 260.56 610.5 271.2 610.06 276.96 C 609.63 282.72 609.81 283.37 609.08 285.62 C 608.36 287.86 607.23 289.12 605.7 290.43 C 604.18 291.73 602.14 292.94 599.93 293.45 C 597.72 293.95 593.36 293.54 592.44 293.43 C 591.52 293.32 599.22 292.42 594.42 292.79 C 589.62 293.15 573.5 295.25 563.64 295.63 C 553.79 296.01 544.13 295.21 535.29 295.08 C 526.46 294.96 520.03 294.56 510.61 294.88 C 501.2 295.21 488.15 297.19 478.8 297.05 C 469.46 296.91 463.62 294.18 454.52 294.04 C 445.42 293.91 433.84 296.36 424.18 296.24 C 414.53 296.12 402.19 294.06 396.57 293.33 C 390.96 292.59 392.3 292.3 390.52 291.84 C 388.74 291.38 387.51 291.8 385.89 290.56 C 384.28 289.33 382.19 286.51 380.84 284.45 C 379.5 282.38 378.14 278.95 377.81 278.17 C 377.47 277.39 378.56 284.83 378.85 279.79 C 379.14 274.75 379.08 257.4 379.55 247.94 C 380.01 238.48 381.22 232.68 381.66 223.01 C 382.1 213.35 382.69 199.93 382.17 189.94 C 381.65 179.96 379.19 172.7 378.55 163.08 C 377.91 153.47 378.05 142.21 378.32 132.27 C 378.6 122.34 379.6 113.2 380.19 103.46 C 380.79 93.72 381.81 79.25 381.9 73.83 C 381.98 68.42 380.14 72.54 380.71 70.97 C 381.29 69.41 384.11 66.38 385.36 64.43 C 386.61 62.48 386.77 60.05 388.23 59.3 C 389.69 58.55 392.98 59.7 394.14 59.95 C 395.3 60.2 390.38 61.04 395.2 60.81 Z" fill="none" stroke="#1F2937" stroke-width="2.1" stroke-linecap="round" stroke-linejoin="round" opacity="0.45"/>
  <path d="M 550.3 168.86 C 550.47 171.19 550.98 174.45 550.81 176.83 C 550.65 179.2 550.18 181.36 549.33 183.13 C 548.48 184.9 546.73 185.63 545.71 187.47 C 544.7 189.31 544.12 192.17 543.25 194.14 C 542.38 196.12 541.39 197.52 540.49 199.31 C 539.58 201.09 538.92 203.3 537.82 204.83 C 536.71 206.37 535.28 206.98 533.87 208.5 C 532.45 210.02 531.1 212.68 529.34 213.95 C 527.58 215.23 525.13 215.13 523.31 216.16 C 521.49 217.19 520.3 218.94 518.42 220.13 C 516.55 221.32 514.14 222.62 512.07 223.3 C 510 223.97 507.99 224.04 505.99 224.17 C 503.99 224.31 502.27 224.12 500.07 224.11 C 497.87 224.1 494.93 223.98 492.76 224.12 C 490.6 224.26 489.09 225.24 487.08 224.97 C 485.07 224.7 482.6 223.02 480.71 222.49 C 478.81 221.96 477.51 222.55 475.71 221.79 C 473.91 221.03 472.07 218.94 469.93 217.94 C 467.79 216.93 464.54 216.81 462.87 215.76 C 461.21 214.71 461.38 213.26 459.95 211.64 C 458.53 210.03 455.72 207.48 454.33 206.08 C 452.94 204.67 452.97 204.9 451.62 203.22 C 450.27 201.53 447.63 198.14 446.25 195.99 C 444.87 193.84 443.9 192.13 443.33 190.29 C 442.76 188.45 443.4 186.8 442.85 184.96 C 442.3 183.13 440.47 181.44 440.01 179.28 C 439.56 177.12 440.12 174.27 440.13 172.01 C 440.13 169.75 440.08 167.72 440.06 165.71 C 440.03 163.7 439.78 161.68 439.99 159.97 C 440.21 158.26 440.6 157.21 441.37 155.43 C 442.14 153.66 443.57 151.29 444.62 149.3 C 445.67 147.31 446.63 145.29 447.67 143.49 C 448.7 141.7 449.55 140.39 450.81 138.52 C 452.07 136.65 453.97 133.87 455.25 132.27 C 456.54 130.67 456.92 130.32 458.52 128.93 C 460.11 127.53 462.99 125.02 464.83 123.9 C 466.66 122.79 467.65 123.09 469.52 122.22 C 471.39 121.35 474.24 119.63 476.04 118.68 C 477.84 117.74 478.64 117.13 480.32 116.56 C 482 115.99 484.05 115.69 486.11 115.28 C 488.17 114.87 490.34 114.2 492.69 114.08 C 495.05 113.96 497.88 114.12 500.22 114.58 C 502.56 115.03 504.82 116.46 506.74 116.8 C 508.65 117.14 509.87 116.29 511.7 116.62 C 513.53 116.95 515.75 117.88 517.73 118.78 C 519.72 119.68 521.77 120.79 523.62 122.03 C 525.47 123.26 527.08 124.98 528.84 126.21 C 530.61 127.45 532.9 128.06 534.2 129.43 C 535.51 130.8 535.39 132.71 536.67 134.43 C 537.94 136.15 540.59 137.79 541.86 139.76 C 543.13 141.73 543.53 144.25 544.29 146.24 C 545.05 148.24 545.61 149.91 546.42 151.73 C 547.23 153.56 548.61 155.34 549.17 157.19 C 549.72 159.05 549.57 160.92 549.75 162.86 C 549.94 164.81 550.12 166.53 550.3 168.86 Z" fill="#EDF1F6" opacity="1"/>
  <path d="M 551.55 171.72 C 551.93 173.71 551.6 176.05 550.9 177.66 C 550.21 179.27 548.06 179.82 547.37 181.39 C 546.68 182.96 547.55 184.74 546.77 187.06 C 545.99 189.38 543.57 192.91 542.69 195.31 C 541.82 197.71 542.19 200.14 541.51 201.45 C 540.83 202.76 539.92 201.67 538.61 203.16 C 537.3 204.65 535.39 208.71 533.65 210.36 C 531.91 212.01 530.17 211.9 528.18 213.04 C 526.19 214.18 523.7 216 521.73 217.21 C 519.75 218.42 517.66 219.38 516.33 220.29 C 515.01 221.19 515.36 222.06 513.79 222.64 C 512.22 223.22 509.16 223.27 506.92 223.78 C 504.68 224.29 502.78 225.31 500.35 225.7 C 497.92 226.09 494.87 226.35 492.35 226.13 C 489.82 225.91 487.36 225.19 485.19 224.39 C 483.01 223.58 481.1 221.56 479.31 221.31 C 477.51 221.06 476.28 223.64 474.43 222.88 C 472.58 222.12 470.09 218.24 468.23 216.74 C 466.36 215.23 464.78 214.97 463.25 213.84 C 461.72 212.71 460.73 210.79 459.04 209.96 C 457.35 209.13 454.74 209.86 453.11 208.85 C 451.47 207.85 450.02 205.84 449.23 203.91 C 448.44 201.99 449.44 199.59 448.38 197.3 C 447.31 195 444.04 191.91 442.84 190.16 C 441.65 188.41 441.79 188.6 441.2 186.78 C 440.62 184.96 439.59 181.59 439.34 179.23 C 439.09 176.87 439.38 174.42 439.73 172.62 C 440.08 170.82 440.96 170.15 441.43 168.43 C 441.91 166.71 442.52 164.4 442.56 162.3 C 442.59 160.19 441.11 157.82 441.65 155.8 C 442.18 153.79 444.9 152.35 445.77 150.22 C 446.65 148.09 445.93 145.36 446.89 143.02 C 447.86 140.67 450.44 138.07 451.57 136.17 C 452.7 134.28 452.74 132.98 453.66 131.64 C 454.58 130.31 455.38 129.29 457.07 128.17 C 458.77 127.05 461.86 126.35 463.85 124.93 C 465.84 123.5 466.87 120.43 469.02 119.62 C 471.16 118.81 474.42 120.47 476.71 120.08 C 479 119.7 481.17 118.39 482.76 117.3 C 484.35 116.22 484.28 113.79 486.22 113.56 C 488.16 113.34 492.17 115.39 494.4 115.95 C 496.62 116.5 497.65 116.61 499.58 116.92 C 501.51 117.23 503.64 117.66 505.98 117.81 C 508.32 117.95 511.98 117.21 513.63 117.77 C 515.28 118.33 514.07 120.43 515.88 121.18 C 517.68 121.93 522.59 121.57 524.46 122.24 C 526.33 122.9 525.81 123.59 527.09 125.17 C 528.36 126.74 530.32 129.95 532.1 131.69 C 533.89 133.44 536.13 133.92 537.78 135.65 C 539.43 137.38 540.98 140.34 541.99 142.07 C 542.99 143.79 543.23 144.44 543.81 146.01 C 544.39 147.58 544.91 149.86 545.46 151.5 C 546 153.14 546.53 153.48 547.07 155.85 C 547.6 158.21 547.9 163.04 548.65 165.69 C 549.4 168.33 551.18 169.72 551.55 171.72 Z" fill="none" stroke="#94A3B8" stroke-width="3" stroke-linecap="round" stroke-linejoin="round" opacity="1.0"/>
  <path d="M 552.89 172 C 553.12 173.53 548.61 172.42 548.12 174.49 C 547.64 176.55 550.26 181.63 550 184.39 C 549.74 187.14 547.91 189.24 546.54 191.04 C 545.16 192.84 542.52 193.65 541.75 195.17 C 540.97 196.7 542.72 198.52 541.9 200.19 C 541.08 201.85 538.51 203.13 536.8 205.17 C 535.1 207.2 533.43 211.24 531.67 212.4 C 529.9 213.56 527.53 211.06 526.2 212.13 C 524.88 213.19 524.89 217.94 523.71 218.81 C 522.54 219.68 521.23 216.72 519.16 217.36 C 517.09 217.99 513.97 221.57 511.28 222.61 C 508.58 223.65 505.09 223.56 503.01 223.6 C 500.93 223.65 500.59 222.91 498.8 222.87 C 497 222.83 494.21 223.23 492.23 223.35 C 490.25 223.47 489.06 223.53 486.92 223.59 C 484.77 223.65 481.69 224.35 479.36 223.71 C 477.04 223.07 474.76 220.16 472.96 219.77 C 471.16 219.38 469.81 222.31 468.56 221.36 C 467.3 220.42 466.54 215.3 465.41 214.09 C 464.28 212.88 463.5 214.97 461.77 214.13 C 460.05 213.29 456.49 211.28 455.08 209.05 C 453.68 206.82 454.41 202.82 453.33 200.74 C 452.25 198.66 449.71 198.3 448.61 196.57 C 447.51 194.83 447.39 192.45 446.73 190.31 C 446.07 188.17 445.66 185.73 444.65 183.72 C 443.64 181.71 441.5 180.21 440.66 178.25 C 439.82 176.3 439.75 174.09 439.61 171.98 C 439.47 169.86 439.93 167.62 439.79 165.57 C 439.65 163.52 438.21 161.38 438.77 159.67 C 439.32 157.95 441.74 157.29 443.12 155.29 C 444.5 153.3 446.56 150.21 447.06 147.68 C 447.55 145.16 445.14 141.92 446.09 140.15 C 447.05 138.39 451.39 137.86 452.79 137.07 C 454.19 136.27 453.18 136.7 454.49 135.39 C 455.79 134.07 458.69 130.99 460.61 129.19 C 462.53 127.39 464.12 126.23 466 124.56 C 467.89 122.89 470.29 120.33 471.92 119.15 C 473.55 117.97 473.99 117.62 475.77 117.48 C 477.54 117.33 480.37 118.71 482.57 118.28 C 484.77 117.86 487.25 115.62 488.98 114.93 C 490.71 114.24 491.22 114.1 492.95 114.15 C 494.68 114.2 497.36 114.74 499.37 115.24 C 501.38 115.75 502.52 116.59 504.99 117.18 C 507.47 117.78 512.21 117.84 514.23 118.79 C 516.24 119.75 515.91 122.32 517.08 122.93 C 518.25 123.54 519.1 121.8 521.25 122.44 C 523.41 123.07 527.82 125.28 530.03 126.74 C 532.24 128.21 533.44 129.86 534.52 131.22 C 535.59 132.59 534.97 133.88 536.49 134.93 C 538.02 135.97 542.83 136 543.67 137.49 C 544.51 138.99 540.85 141.6 541.53 143.89 C 542.22 146.18 546.9 149.35 547.8 151.21 C 548.69 153.06 547.08 152.69 546.91 155.04 C 546.74 157.38 545.8 162.43 546.8 165.26 C 547.79 168.09 552.67 170.46 552.89 172 Z" fill="none" stroke="#94A3B8" stroke-width="2.1" stroke-linecap="round" stroke-linejoin="round" opacity="0.45"/>
  <path d="M 484.74 115 C 487.34 114.91 496.55 114.91 499.73 114.97 C 502.91 115.04 502.65 114.89 503.82 115.4 C 505 115.92 506 116.98 506.79 118.07 C 507.58 119.17 508 120.96 508.56 121.97 C 509.11 122.97 509.89 123.48 510.12 124.1 C 510.35 124.72 510.02 120.4 509.94 125.68 C 509.86 130.96 509.63 146.05 509.65 155.8 C 509.66 165.54 510 174.29 510.03 184.14 C 510.07 193.98 509.96 208.95 509.87 214.87 C 509.77 220.79 509.89 218.3 509.45 219.65 C 509.02 220.99 508.31 222.23 507.28 222.93 C 506.25 223.64 504.6 223.44 503.27 223.89 C 501.93 224.34 499.91 225.43 499.25 225.63 C 498.6 225.82 501.77 225.23 499.32 225.08 C 496.88 224.92 487.64 224.85 484.59 224.7 C 481.55 224.56 482.18 224.62 481.06 224.21 C 479.95 223.8 478.79 223.04 477.9 222.23 C 477.02 221.43 476.15 220.7 475.76 219.4 C 475.37 218.1 475.71 215.16 475.57 214.43 C 475.42 213.71 475.06 219.86 474.88 215.06 C 474.71 210.26 474.44 195.57 474.5 185.65 C 474.56 175.73 475.28 165.69 475.24 155.54 C 475.19 145.39 474.16 130.41 474.22 124.74 C 474.28 119.08 474.87 122.74 475.59 121.53 C 476.31 120.31 477.76 118.37 478.54 117.44 C 479.33 116.52 479.36 116.32 480.29 116 C 481.22 115.68 483.38 115.69 484.12 115.52 C 484.86 115.36 482.14 115.09 484.74 115 Z" fill="#FFFFFF" opacity="0.55"/>
  <text x="495" y="341.8" font-family="Chalkboard SE, Comic Sans MS, Comic Neue, Segoe Print, Bradley Hand, cursive" font-size="20" fill="#475569" text-anchor="middle">CIRCULAR</text>
  <path d="M 701.59 66.15 C 706.18 66.09 719.76 64.5 729.21 64.65 C 738.65 64.8 749 66.77 758.26 67.04 C 767.52 67.32 775.55 66.21 784.77 66.28 C 793.99 66.36 803.88 67.68 813.58 67.47 C 823.29 67.26 833.3 65.36 843.01 65.02 C 852.72 64.69 862.55 65.29 871.83 65.46 C 881.11 65.63 893.1 65.99 898.69 66.06 C 904.28 66.12 903.31 65.09 905.38 65.85 C 907.44 66.61 909.88 68.8 911.07 70.64 C 912.26 72.48 911.84 74.86 912.51 76.87 C 913.17 78.88 914.7 81.89 915.06 82.69 C 915.41 83.49 914.77 76.79 914.64 81.69 C 914.51 86.59 914.35 102.39 914.28 112.1 C 914.21 121.8 913.98 130.64 914.23 139.93 C 914.48 149.23 915.7 158.15 915.76 167.87 C 915.83 177.59 914.8 188.49 914.62 198.25 C 914.44 208.02 914.63 216.64 914.68 226.48 C 914.73 236.31 914.97 247.42 914.92 257.28 C 914.87 267.13 914.56 279.87 914.4 285.62 C 914.24 291.36 914.59 289.88 913.97 291.74 C 913.35 293.59 912.33 295.65 910.68 296.75 C 909.03 297.86 905.92 297.66 904.04 298.37 C 902.17 299.08 900.33 300.65 899.42 301.02 C 898.52 301.38 903.45 300.45 898.6 300.55 C 893.76 300.65 879.5 301.54 870.37 301.6 C 861.24 301.67 853.3 300.86 843.84 300.94 C 834.37 301.03 823.3 302.12 813.57 302.1 C 803.83 302.08 794.79 300.91 785.43 300.83 C 776.08 300.74 766.8 301.52 757.45 301.57 C 748.11 301.61 738.66 301.13 729.38 301.09 C 720.11 301.04 707.6 301.75 701.8 301.29 C 696 300.83 696.64 298.99 694.57 298.33 C 692.5 297.67 690.87 298.77 689.38 297.34 C 687.89 295.91 686.28 292.01 685.61 289.77 C 684.95 287.53 685.4 284.57 685.39 283.89 C 685.38 283.21 685.37 290.12 685.55 285.67 C 685.74 281.23 686.83 267.19 686.49 257.22 C 686.16 247.26 683.61 235.57 683.55 225.88 C 683.49 216.19 685.84 208.6 686.14 199.08 C 686.44 189.57 685.37 178.84 685.34 168.8 C 685.31 158.75 686.18 148.22 685.97 138.82 C 685.76 129.41 684.37 121.77 684.08 112.38 C 683.79 102.99 683.9 88.66 684.2 82.49 C 684.5 76.33 685.14 77.25 685.89 75.39 C 686.64 73.54 687.35 72.93 688.68 71.34 C 690.01 69.75 691.72 66.89 693.89 65.83 C 696.05 64.78 700.38 64.94 701.67 64.99 C 702.95 65.04 697 66.2 701.59 66.15 Z" fill="#1F2937" opacity="0.13"/>
  <path d="M 696.75 59.82 C 701.49 60.03 715.87 60.51 725.15 60.65 C 734.43 60.8 743.23 60.75 752.42 60.7 C 761.61 60.66 770.98 60.57 780.3 60.38 C 789.61 60.19 798.71 59.62 808.34 59.55 C 817.96 59.48 828.36 59.98 838.03 59.95 C 847.7 59.92 856.91 59.44 866.37 59.39 C 875.83 59.34 889.12 59.42 894.8 59.67 C 900.49 59.93 898.88 60.09 900.49 60.93 C 902.1 61.77 903.08 63.21 904.44 64.71 C 905.8 66.2 907.8 68.1 908.64 69.89 C 909.48 71.67 909.17 74.44 909.49 75.43 C 909.8 76.43 910.38 70.81 910.54 75.87 C 910.69 80.93 910.48 96.08 910.42 105.82 C 910.35 115.56 910.24 124.73 910.15 134.29 C 910.07 143.86 909.97 153.7 909.9 163.2 C 909.83 172.7 909.61 181.7 909.72 191.31 C 909.82 200.93 910.52 211.12 910.51 220.89 C 910.49 230.66 909.68 240.2 909.65 249.94 C 909.62 259.68 910.56 273.56 910.3 279.31 C 910.04 285.06 909.04 282.46 908.11 284.44 C 907.17 286.41 906.03 289.7 904.68 291.14 C 903.33 292.59 901.8 292.54 900 293.12 C 898.19 293.71 894.9 294.27 893.84 294.65 C 892.79 295.02 898.47 295.35 893.67 295.38 C 888.87 295.4 874.46 294.77 865.05 294.81 C 855.64 294.85 846.66 295.73 837.2 295.62 C 827.74 295.51 817.62 294.11 808.29 294.14 C 798.96 294.16 790.53 295.74 781.22 295.77 C 771.91 295.79 761.8 294.41 752.44 294.27 C 743.08 294.13 734.5 294.85 725.06 294.93 C 715.61 295.01 701.79 294.96 695.78 294.76 C 689.77 294.57 690.88 294.5 689 293.77 C 687.13 293.03 685.89 291.76 684.53 290.34 C 683.18 288.91 681.69 287.25 680.86 285.23 C 680.04 283.22 679.8 279.35 679.58 278.25 C 679.36 277.16 679.53 283.29 679.55 278.65 C 679.58 274.02 679.62 260.12 679.74 250.46 C 679.86 240.8 680.2 230.53 680.3 220.71 C 680.4 210.9 680.25 201.29 680.35 191.57 C 680.45 181.84 680.88 172.07 680.89 162.36 C 680.9 152.65 680.54 142.94 680.42 133.33 C 680.29 123.71 680.13 114.29 680.14 104.66 C 680.15 95.03 680.35 81.48 680.48 75.54 C 680.61 69.59 680.12 70.76 680.94 69.01 C 681.76 67.26 683.83 66.45 685.41 65.04 C 686.98 63.62 688.48 61.45 690.38 60.52 C 692.27 59.58 695.7 59.54 696.76 59.42 C 697.82 59.31 692.02 59.62 696.75 59.82 Z" fill="#FFFFFF" opacity="1"/>
  <path d="M 695.18 58.76 C 699.73 58.92 714.38 60.21 723.89 60.24 C 733.41 60.28 742.53 58.82 752.27 58.97 C 762 59.12 772.61 61.05 782.3 61.13 C 791.98 61.21 801.01 59.61 810.38 59.43 C 819.74 59.25 829.15 59.84 838.48 60.07 C 847.82 60.29 857.35 61.02 866.4 60.78 C 875.44 60.54 886.92 58.68 892.77 58.63 C 898.63 58.58 899.4 59.54 901.53 60.47 C 903.67 61.4 904.37 62.39 905.58 64.2 C 906.79 66.02 908.25 69.28 908.8 71.36 C 909.35 73.45 908.63 76.15 908.88 76.72 C 909.13 77.29 910.22 70.09 910.3 74.77 C 910.38 79.46 909.61 94.8 909.35 104.82 C 909.08 114.84 908.64 125.33 908.71 134.9 C 908.79 144.46 909.36 152.46 909.82 162.23 C 910.28 171.99 911.68 183.81 911.5 193.49 C 911.31 203.17 908.75 211.05 908.72 220.33 C 908.68 229.61 911.13 239.53 911.27 249.17 C 911.41 258.8 910.05 272.36 909.54 278.12 C 909.03 283.88 908.7 281.42 908.2 283.7 C 907.69 285.98 907.89 290 906.51 291.8 C 905.13 293.59 902.18 294.13 899.91 294.47 C 897.63 294.82 894.01 293.73 892.88 293.85 C 891.75 293.97 897.57 295.05 893.12 295.21 C 888.67 295.36 875.6 294.75 866.19 294.8 C 856.77 294.86 845.9 295.52 836.64 295.52 C 827.38 295.52 819.69 294.73 810.63 294.79 C 801.58 294.86 792.23 295.74 782.32 295.92 C 772.41 296.11 760.64 296.14 751.19 295.91 C 741.75 295.68 734.97 294.79 725.65 294.57 C 716.34 294.35 701.33 294.56 695.31 294.57 C 689.29 294.58 691.45 295.37 689.52 294.64 C 687.6 293.9 685.33 291.59 683.75 290.15 C 682.17 288.71 680.67 287.81 680.02 285.99 C 679.38 284.18 679.93 280.15 679.87 279.24 C 679.82 278.32 679.9 285.52 679.71 280.49 C 679.52 275.47 678.59 258.82 678.75 249.09 C 678.9 239.35 680.3 231.75 680.65 222.07 C 680.99 212.38 680.94 200.89 680.82 190.97 C 680.7 181.05 679.86 171.98 679.92 162.54 C 679.98 153.1 680.95 143.83 681.2 134.31 C 681.44 124.79 681.51 115.06 681.37 105.41 C 681.23 95.75 680.16 82.18 680.36 76.36 C 680.56 70.54 681.87 72.33 682.57 70.5 C 683.28 68.66 683.61 66.75 684.61 65.35 C 685.61 63.94 686.58 63.1 688.58 62.08 C 690.59 61.07 695.52 59.81 696.62 59.26 C 697.72 58.7 690.64 58.59 695.18 58.76 Z" fill="none" stroke="#1F2937" stroke-width="3" stroke-linecap="round" stroke-linejoin="round" opacity="1.0"/>
  <path d="M 693.89 58.99 C 698.61 59.03 714.64 58.63 724.13 58.94 C 733.62 59.25 741.46 60.93 750.82 60.86 C 760.18 60.79 770.27 59.01 780.3 58.53 C 790.33 58.05 801.28 57.6 811 57.96 C 820.72 58.33 829.2 60.69 838.61 60.71 C 848.03 60.73 858.47 58.3 867.49 58.08 C 876.5 57.86 887.57 59.17 892.7 59.41 C 897.83 59.65 896.48 58.66 898.27 59.5 C 900.06 60.35 901.51 63.01 903.44 64.51 C 905.36 66 908.42 66.84 909.83 68.47 C 911.25 70.11 912.09 73.41 911.91 74.32 C 911.73 75.23 909 68.99 908.77 73.91 C 908.54 78.83 910.5 93.6 910.53 103.85 C 910.55 114.1 909.13 125.72 908.92 135.42 C 908.72 145.12 909.2 152.65 909.28 162.03 C 909.37 171.41 909.32 181.84 909.42 191.69 C 909.53 201.53 909.47 211.72 909.92 221.1 C 910.36 230.48 912.05 238.21 912.09 247.97 C 912.13 257.72 910.62 273.74 910.15 279.62 C 909.68 285.5 909.92 281.66 909.28 283.24 C 908.65 284.82 908 287.12 906.34 289.08 C 904.69 291.04 901.67 293.69 899.35 295.01 C 897.02 296.34 893.31 297.39 892.39 297.02 C 891.47 296.65 898.4 293.18 893.82 292.79 C 889.24 292.4 874.43 294.65 864.9 294.67 C 855.38 294.68 846.08 292.63 836.68 292.9 C 827.27 293.17 817.57 295.94 808.45 296.31 C 799.34 296.68 791.41 295.67 781.96 295.12 C 772.52 294.57 761.28 292.99 751.78 293 C 742.28 293.02 734.39 295.13 724.97 295.22 C 715.55 295.31 700.91 294.14 695.26 293.56 C 689.6 292.98 693.1 292.55 691.03 291.74 C 688.95 290.93 684.49 289.56 682.8 288.69 C 681.11 287.82 681.3 288.36 680.9 286.53 C 680.51 284.69 680.63 279.21 680.42 277.66 C 680.22 276.1 679.73 282.14 679.66 277.2 C 679.59 272.26 679.84 257.16 680.02 248 C 680.21 238.85 681.02 231.6 680.79 222.26 C 680.55 212.91 678.73 201.68 678.63 191.94 C 678.54 182.2 679.79 173.7 680.21 163.82 C 680.62 153.94 680.91 142.73 681.13 132.65 C 681.34 122.56 681.31 112.7 681.49 103.31 C 681.67 93.92 682.1 81.95 682.22 76.31 C 682.34 70.66 681.98 71.31 682.21 69.43 C 682.43 67.55 681.91 66.23 683.56 65.03 C 685.2 63.83 690.05 63.3 692.1 62.24 C 694.14 61.18 695.52 59.21 695.82 58.67 C 696.11 58.13 689.17 58.94 693.89 58.99 Z" fill="none" stroke="#1F2937" stroke-width="2.1" stroke-linecap="round" stroke-linejoin="round" opacity="0.45"/>
  <path d="M 726.28 130.51 C 730.76 130.32 744.26 129.93 753.54 129.75 C 762.82 129.56 772.75 129.42 781.95 129.38 C 791.14 129.33 799.58 129.42 808.71 129.49 C 817.83 129.55 827.57 129.65 836.69 129.77 C 845.82 129.89 858.69 130.07 863.45 130.22 C 868.21 130.37 864.4 130.38 865.24 130.68 C 866.08 130.97 867.83 131.31 868.49 131.98 C 869.14 132.66 868.75 134.02 869.15 134.73 C 869.54 135.44 870.61 135.98 870.86 136.23 C 871.11 136.48 870.76 136.21 870.66 136.24 C 870.57 136.28 870.47 135.93 870.27 136.44 C 870.07 136.94 869.87 138.35 869.48 139.26 C 869.08 140.17 868.58 141.06 867.89 141.9 C 867.2 142.73 866.12 143.77 865.32 144.27 C 864.53 144.76 863.48 145 863.12 144.85 C 862.77 144.7 867.67 143.41 863.21 143.37 C 858.75 143.33 845.58 144.65 836.37 144.61 C 827.17 144.58 817.11 143.29 807.96 143.17 C 798.81 143.04 790.48 143.67 781.47 143.85 C 772.47 144.04 763.07 144.17 753.95 144.29 C 744.83 144.41 731.82 144.65 726.77 144.55 C 721.72 144.46 724.3 144.04 723.66 143.7 C 723.02 143.37 723.5 143.28 722.92 142.53 C 722.34 141.79 720.73 140.28 720.16 139.23 C 719.6 138.17 719.41 136.64 719.52 136.2 C 719.64 135.76 720.69 136.33 720.85 136.6 C 721.02 136.86 720.67 138.13 720.51 137.78 C 720.34 137.43 719.69 135.37 719.87 134.5 C 720.04 133.62 720.71 133.29 721.56 132.54 C 722.4 131.79 724.1 130.26 724.94 129.99 C 725.78 129.71 726.38 130.8 726.61 130.89 C 726.83 130.98 721.79 130.7 726.28 130.51 Z" fill="#EDF1F6" opacity="1"/>
  <path d="M 728.01 131.06 C 732.21 131.34 744.96 131.64 753.66 131.22 C 762.37 130.81 770.96 128.56 780.22 128.59 C 789.49 128.61 799.87 131.37 809.27 131.38 C 818.66 131.39 827.78 129.05 836.61 128.64 C 845.43 128.23 857.46 128.52 862.21 128.92 C 866.95 129.32 864.15 130.63 865.07 131.05 C 865.98 131.47 867.11 130.81 867.68 131.45 C 868.25 132.1 868.25 134.04 868.5 134.93 C 868.74 135.82 869.08 136.48 869.17 136.8 C 869.26 137.12 869.01 136.75 869.05 136.85 C 869.1 136.95 869.25 136.98 869.45 137.42 C 869.64 137.87 870.52 138.68 870.22 139.53 C 869.93 140.39 868.3 141.86 867.67 142.57 C 867.04 143.27 867.06 143.36 866.45 143.76 C 865.83 144.16 864.77 145.14 863.97 144.98 C 863.18 144.83 866.58 143.07 861.67 142.83 C 856.77 142.59 843.3 143.37 834.56 143.54 C 825.82 143.7 818.29 143.92 809.24 143.82 C 800.2 143.73 789.71 142.75 780.3 142.94 C 770.89 143.13 761.79 144.76 752.8 144.97 C 743.82 145.18 731 144.34 726.4 144.22 C 721.81 144.1 726.01 144.45 725.23 144.27 C 724.45 144.09 722.49 144.03 721.71 143.16 C 720.94 142.29 720.93 140.02 720.6 139.05 C 720.26 138.08 719.82 137.62 719.69 137.33 C 719.55 137.04 719.64 137.61 719.79 137.33 C 719.94 137.04 720.5 136.05 720.6 135.61 C 720.7 135.18 720.08 135.16 720.38 134.74 C 720.69 134.32 721.61 133.75 722.41 133.1 C 723.21 132.44 724.18 131.42 725.19 130.82 C 726.19 130.22 727.98 129.47 728.45 129.51 C 728.92 129.54 723.8 130.77 728.01 131.06 Z" fill="none" stroke="#94A3B8" stroke-width="3" stroke-linecap="round" stroke-linejoin="round" opacity="1.0"/>
  <path d="M 727.61 128.03 C 732.02 128.09 745.09 131.47 754.14 131.8 C 763.19 132.13 772.97 130.05 781.92 130 C 790.88 129.95 799.12 131.15 807.88 131.5 C 816.65 131.86 825.42 132.1 834.49 132.12 C 843.56 132.14 856.89 131.85 862.29 131.62 C 867.69 131.39 865.77 130.71 866.89 130.75 C 868.02 130.78 868.52 131.26 869.05 131.83 C 869.58 132.41 869.91 133.68 870.08 134.21 C 870.24 134.74 870.04 134.45 870.05 135.01 C 870.06 135.57 870.52 137.38 870.15 137.57 C 869.77 137.76 868.27 136 867.8 136.15 C 867.33 136.3 867.52 137.29 867.32 138.48 C 867.12 139.67 866.71 142.09 866.6 143.28 C 866.48 144.47 867.46 145.73 866.63 145.61 C 865.79 145.49 861.91 143.16 861.6 142.58 C 861.28 142 868.87 141.64 864.74 142.12 C 860.62 142.61 846.06 144.84 836.85 145.5 C 827.63 146.16 819.05 146.69 809.45 146.07 C 799.85 145.45 788.36 141.88 779.25 141.78 C 770.14 141.68 763.67 145.15 754.79 145.46 C 745.91 145.77 731.41 143.76 725.98 143.64 C 720.55 143.53 723.04 144.75 722.2 144.76 C 721.36 144.76 721.44 144.24 720.93 143.7 C 720.41 143.16 719.12 142.44 719.12 141.51 C 719.13 140.59 720.84 139.13 720.96 138.12 C 721.08 137.12 720.13 135.96 719.85 135.51 C 719.58 135.06 719.47 135.88 719.32 135.41 C 719.18 134.95 718.68 133.2 718.98 132.72 C 719.27 132.25 720.57 132.93 721.11 132.56 C 721.65 132.19 721.12 130.71 722.21 130.52 C 723.31 130.32 726.76 131.82 727.66 131.4 C 728.56 130.99 723.2 127.96 727.61 128.03 Z" fill="none" stroke="#94A3B8" stroke-width="2.1" stroke-linecap="round" stroke-linejoin="round" opacity="0.45"/>
  <path d="M 783.19 129.11 C 787.73 129.26 806.78 130.28 812.06 130.55 C 817.33 130.82 814.1 130.36 814.84 130.72 C 815.58 131.08 815.9 131.99 816.48 132.71 C 817.06 133.43 817.83 134.26 818.31 135.05 C 818.79 135.84 819.32 137.15 819.34 137.45 C 819.37 137.74 818.44 137.03 818.46 136.82 C 818.48 136.61 819.46 135.76 819.47 136.2 C 819.47 136.64 818.78 138.65 818.48 139.45 C 818.19 140.26 818.29 140.39 817.7 141.05 C 817.11 141.72 815.75 143 814.94 143.44 C 814.13 143.88 813.45 143.48 812.84 143.69 C 812.22 143.9 816.1 144.74 811.25 144.69 C 806.41 144.63 788.84 143.71 783.78 143.36 C 778.72 143 781.57 142.76 780.91 142.57 C 780.24 142.38 780.37 142.72 779.79 142.22 C 779.2 141.72 777.97 140.42 777.39 139.55 C 776.82 138.68 776.44 137.49 776.33 137.01 C 776.23 136.52 776.79 136.78 776.77 136.65 C 776.75 136.52 776.23 136.49 776.22 136.23 C 776.21 135.98 776.35 135.96 776.69 135.13 C 777.03 134.31 777.58 132.13 778.27 131.3 C 778.95 130.47 779.71 130.45 780.8 130.17 C 781.89 129.89 784.4 129.81 784.8 129.63 C 785.19 129.45 778.65 128.95 783.19 129.11 Z" fill="#FFFFFF" opacity="0.65"/>
  <path d="M 726.2 162.71 C 730.86 162.71 745.44 161.55 754.52 161.52 C 763.59 161.5 771.72 162.63 780.63 162.56 C 789.54 162.49 798.78 161.16 807.99 161.11 C 817.19 161.06 826.67 162.18 835.84 162.27 C 845.02 162.36 858.15 161.5 863.04 161.66 C 867.92 161.83 864.2 162.93 865.17 163.24 C 866.13 163.55 868.25 162.88 868.82 163.52 C 869.38 164.16 868.43 166.1 868.58 167.08 C 868.73 168.05 869.33 169.05 869.7 169.35 C 870.07 169.65 870.78 169 870.78 168.86 C 870.78 168.72 869.81 168.17 869.67 168.51 C 869.54 168.86 870.26 169.95 869.98 170.92 C 869.69 171.9 868.53 173.61 867.94 174.37 C 867.35 175.12 867.29 175.17 866.43 175.44 C 865.57 175.71 863.38 175.84 862.77 175.98 C 862.17 176.12 867.33 176.19 862.8 176.3 C 858.27 176.41 844.61 176.58 835.59 176.65 C 826.58 176.72 817.78 176.72 808.72 176.72 C 799.67 176.73 790.24 176.83 781.26 176.68 C 772.28 176.53 763.74 175.94 754.83 175.83 C 745.93 175.72 732.87 176.03 727.82 176.02 C 722.76 176.01 725.35 176.13 724.5 175.79 C 723.65 175.45 723.31 174.73 722.72 173.98 C 722.13 173.24 721.4 172.1 720.97 171.32 C 720.53 170.54 720.19 169.57 720.12 169.3 C 720.04 169.03 720.55 169.84 720.52 169.71 C 720.49 169.57 719.87 169.01 719.95 168.47 C 720.03 167.92 720.59 167.12 721.01 166.43 C 721.42 165.75 721.84 164.92 722.45 164.38 C 723.06 163.83 724 163.63 724.69 163.15 C 725.37 162.68 726.29 161.61 726.54 161.54 C 726.8 161.46 721.54 162.71 726.2 162.71 Z" fill="#EDF1F6" opacity="1"/>
  <path d="M 727.85 160.66 C 732.51 160.63 746.27 163.15 755.42 163.17 C 764.56 163.19 774.07 160.87 782.72 160.78 C 791.38 160.7 798.43 162.23 807.36 162.67 C 816.28 163.11 827.06 163.77 836.25 163.41 C 845.44 163.05 857.77 160.91 862.52 160.52 C 867.26 160.13 863.78 160.59 864.71 161.07 C 865.65 161.56 867.31 162.67 868.14 163.43 C 868.97 164.2 869.43 164.58 869.69 165.66 C 869.95 166.73 869.84 169.34 869.69 169.88 C 869.55 170.42 868.64 168.82 868.8 168.89 C 868.95 168.95 870.66 169.8 870.64 170.25 C 870.62 170.71 868.99 171.03 868.68 171.63 C 868.37 172.23 869.28 173.01 868.77 173.84 C 868.26 174.67 866.45 176.29 865.62 176.61 C 864.79 176.93 864.43 176.06 863.8 175.75 C 863.17 175.44 866.66 174.93 861.83 174.75 C 857 174.57 843.5 174.24 834.8 174.67 C 826.1 175.09 818.29 177.27 809.63 177.3 C 800.97 177.32 791.96 174.95 782.84 174.81 C 773.72 174.67 764.05 176.35 754.93 176.49 C 745.81 176.62 733.05 175.67 728.14 175.62 C 723.23 175.57 726.32 176.71 725.46 176.19 C 724.61 175.68 723.6 173.4 723 172.51 C 722.41 171.63 722.18 171.73 721.89 170.9 C 721.6 170.08 721.37 167.72 721.26 167.57 C 721.15 167.41 721.22 169.64 721.22 169.97 C 721.22 170.31 721.39 170.3 721.26 169.56 C 721.13 168.81 720.22 166.17 720.42 165.49 C 720.61 164.82 721.77 166.13 722.43 165.52 C 723.09 164.91 723.54 162.18 724.38 161.82 C 725.22 161.46 726.91 163.57 727.49 163.37 C 728.07 163.18 723.2 160.7 727.85 160.66 Z" fill="none" stroke="#94A3B8" stroke-width="3" stroke-linecap="round" stroke-linejoin="round" opacity="1.0"/>
  <path d="M 724.85 162.93 C 729.37 162.47 742.75 159.79 752.09 159.92 C 761.42 160.05 771.13 163.54 780.86 163.73 C 790.58 163.92 801.65 161.32 810.44 161.06 C 819.24 160.81 824.6 161.94 833.62 162.21 C 842.64 162.49 859.19 162.81 864.55 162.71 C 869.92 162.61 865.43 161.67 865.82 161.63 C 866.21 161.59 866.52 161.84 866.89 162.47 C 867.25 163.1 867.38 164.4 868.01 165.41 C 868.64 166.43 870.29 167.96 870.64 168.56 C 871 169.17 870.51 169.07 870.13 169.04 C 869.75 169 868.64 167.92 868.34 168.36 C 868.04 168.81 868.41 170.65 868.34 171.71 C 868.27 172.76 868.64 173.76 867.92 174.7 C 867.2 175.63 864.68 177.21 864.01 177.3 C 863.35 177.4 863.76 175.11 863.92 175.26 C 864.08 175.4 870 178.1 864.98 178.17 C 859.95 178.24 843.23 176.03 833.76 175.67 C 824.29 175.31 816.73 175.71 808.16 175.99 C 799.59 176.27 791.04 177.5 782.34 177.35 C 773.65 177.19 765.39 175.6 756 175.08 C 746.6 174.55 731.21 173.97 725.96 174.21 C 720.71 174.46 725.27 176.67 724.51 176.54 C 723.74 176.4 722.36 174.38 721.39 173.42 C 720.43 172.45 718.88 171.53 718.7 170.77 C 718.51 170 720.08 169.34 720.26 168.8 C 720.43 168.27 719.78 167.31 719.76 167.56 C 719.74 167.8 719.97 170.17 720.14 170.27 C 720.31 170.37 720.63 168.86 720.77 168.15 C 720.92 167.44 720.76 167.27 721.01 166 C 721.26 164.73 721.59 161.09 722.25 160.54 C 722.91 159.98 724.54 162.28 724.98 162.68 C 725.41 163.08 720.34 163.39 724.85 162.93 Z" fill="none" stroke="#94A3B8" stroke-width="2.1" stroke-linecap="round" stroke-linejoin="round" opacity="0.45"/>
  <path d="M 783.96 161.96 C 788.67 161.98 807.52 161.73 812.73 161.93 C 817.93 162.14 814.37 162.94 815.2 163.18 C 816.02 163.43 817.11 162.99 817.67 163.4 C 818.24 163.81 818.34 164.78 818.61 165.65 C 818.88 166.52 819.32 168.11 819.3 168.62 C 819.28 169.12 818.44 168.57 818.49 168.69 C 818.53 168.82 819.67 168.92 819.59 169.34 C 819.5 169.76 818.54 170.32 818 171.2 C 817.46 172.09 817.03 174.07 816.35 174.64 C 815.68 175.22 814.72 174.51 813.98 174.63 C 813.23 174.76 812.2 175.01 811.89 175.38 C 811.57 175.74 816.83 176.71 812.08 176.83 C 807.34 176.94 788.61 176.28 783.41 176.08 C 778.21 175.88 781.75 176.04 780.88 175.65 C 780.02 175.25 778.66 174.42 778.23 173.69 C 777.8 172.96 778.46 172.01 778.31 171.27 C 778.16 170.53 777.58 169.67 777.32 169.25 C 777.07 168.82 776.89 168.72 776.79 168.73 C 776.69 168.74 776.66 169.78 776.71 169.3 C 776.76 168.82 776.56 166.67 777.07 165.85 C 777.58 165.03 779.06 165.06 779.79 164.38 C 780.52 163.71 780.67 162.24 781.45 161.82 C 782.23 161.39 784.05 161.82 784.46 161.84 C 784.88 161.86 779.25 161.95 783.96 161.96 Z" fill="#FFFFFF" opacity="0.65"/>
  <path d="M 727.81 194.84 C 732.83 194.87 747.71 194.3 757.94 194.24 C 768.18 194.18 778.8 194.38 789.21 194.48 C 799.62 194.58 814.71 194.72 820.41 194.83 C 826.12 194.94 822.51 194.8 823.46 195.13 C 824.4 195.47 825.3 196.29 826.08 196.85 C 826.85 197.42 827.81 197.92 828.11 198.51 C 828.41 199.1 827.93 200.01 827.86 200.4 C 827.79 200.79 827.56 200.69 827.69 200.87 C 827.82 201.05 828.83 201.14 828.65 201.46 C 828.47 201.79 826.92 201.98 826.6 202.8 C 826.29 203.62 827.09 205.56 826.75 206.41 C 826.41 207.26 825.37 207.58 824.55 207.88 C 823.73 208.19 822.49 208.26 821.85 208.25 C 821.21 208.25 826.02 208.04 820.7 207.87 C 815.38 207.71 800.25 207.13 789.9 207.25 C 779.56 207.38 769.22 208.37 758.61 208.62 C 748 208.88 732.04 209.02 726.24 208.79 C 720.43 208.57 724.55 207.7 723.76 207.26 C 722.97 206.83 722.15 206.73 721.51 206.19 C 720.86 205.65 720.23 204.95 719.88 204.01 C 719.52 203.07 719.4 201.04 719.36 200.54 C 719.33 200.05 719.65 200.86 719.66 201.02 C 719.66 201.18 719.26 202.01 719.38 201.52 C 719.49 201.02 720.02 199.01 720.33 198.07 C 720.64 197.14 720.52 196.58 721.25 195.88 C 721.97 195.18 723.57 194.21 724.67 193.9 C 725.77 193.59 727.31 193.87 727.84 194.02 C 728.36 194.18 722.79 194.8 727.81 194.84 Z" fill="#EDF1F6" opacity="1"/>
  <path d="M 727.76 194.08 C 733.04 193.92 748.63 194.6 759.18 194.42 C 769.74 194.24 781.03 193.22 791.11 192.99 C 801.18 192.76 814.12 192.86 819.62 193.04 C 825.13 193.22 822.85 193.77 824.14 194.08 C 825.43 194.39 826.79 194.01 827.38 194.9 C 827.97 195.8 827.44 198.59 827.68 199.43 C 827.91 200.28 828.83 199.62 828.81 199.97 C 828.78 200.32 827.7 201.46 827.53 201.53 C 827.35 201.6 827.64 199.95 827.76 200.39 C 827.89 200.83 828.73 203.4 828.25 204.15 C 827.77 204.9 825.41 204.31 824.89 204.88 C 824.37 205.44 826.02 206.78 825.13 207.54 C 824.23 208.29 820.16 209.24 819.53 209.42 C 818.9 209.59 826.52 208.92 821.35 208.58 C 816.18 208.25 799.27 207.72 788.52 207.39 C 777.77 207.07 767.07 206.75 756.84 206.65 C 746.62 206.56 732.72 206.71 727.15 206.81 C 721.58 206.92 724.51 207.5 723.42 207.3 C 722.33 207.1 720.97 206.23 720.6 205.6 C 720.24 204.97 721.58 204.07 721.25 203.53 C 720.93 202.99 719.04 202.83 718.65 202.37 C 718.26 201.92 718.43 200.93 718.9 200.81 C 719.37 200.7 721.16 201.95 721.47 201.67 C 721.78 201.4 720.77 200.22 720.75 199.16 C 720.72 198.1 720.8 195.84 721.32 195.31 C 721.83 194.77 722.81 195.95 723.84 195.96 C 724.87 195.98 726.84 195.73 727.49 195.41 C 728.15 195.1 722.48 194.25 727.76 194.08 Z" fill="none" stroke="#94A3B8" stroke-width="3" stroke-linecap="round" stroke-linejoin="round" opacity="1.0"/>
  <path d="M 727.63 195 C 733.14 194.81 749.17 193.27 759.25 193.3 C 769.32 193.33 777.4 195.39 788.06 195.19 C 798.72 194.99 817.22 192.05 823.21 192.09 C 829.19 192.13 823.79 194.93 823.97 195.41 C 824.15 195.9 823.67 194.36 824.3 195.03 C 824.92 195.71 826.94 198.68 827.72 199.47 C 828.5 200.25 828.73 199.11 828.96 199.74 C 829.19 200.37 829.23 203.07 829.1 203.23 C 828.98 203.39 828.43 200.58 828.21 200.7 C 827.99 200.82 828.43 202.8 827.77 203.94 C 827.12 205.08 825.18 206.92 824.3 207.54 C 823.43 208.15 823 207.71 822.54 207.61 C 822.07 207.51 822.1 206.85 821.53 206.94 C 820.96 207.03 824.49 207.81 819.11 208.16 C 813.72 208.5 799.16 208.98 789.22 209.01 C 779.27 209.04 770.07 208.29 759.43 208.34 C 748.79 208.4 730.98 209.84 725.38 209.36 C 719.78 208.88 726.19 205.93 725.84 205.47 C 725.49 205.01 724.28 207.05 723.29 206.61 C 722.31 206.17 720.57 204.1 719.91 202.83 C 719.26 201.56 719.03 199.27 719.38 198.98 C 719.73 198.7 722.18 200.93 721.99 201.12 C 721.8 201.31 718.6 200.63 718.22 200.14 C 717.84 199.64 719.13 199.05 719.71 198.13 C 720.29 197.22 721.31 195.04 721.71 194.64 C 722.12 194.25 721.39 195.79 722.14 195.75 C 722.88 195.71 725.26 194.56 726.18 194.43 C 727.09 194.31 722.11 195.19 727.63 195 Z" fill="none" stroke="#94A3B8" stroke-width="2.1" stroke-linecap="round" stroke-linejoin="round" opacity="0.45"/>
  <path d="M 768.45 193.88 C 770.89 193.84 780.33 193.28 783.53 193.53 C 786.72 193.79 786.72 194.94 787.62 195.41 C 788.53 195.89 788.56 195.81 788.93 196.35 C 789.31 196.9 789.51 197.95 789.87 198.69 C 790.23 199.43 790.94 200.47 791.09 200.81 C 791.23 201.16 790.72 200.7 790.76 200.77 C 790.8 200.85 791.46 200.71 791.32 201.27 C 791.18 201.83 790.25 203.38 789.9 204.13 C 789.55 204.88 789.56 205.32 789.22 205.78 C 788.88 206.24 788.59 206.39 787.84 206.89 C 787.1 207.4 785.47 208.7 784.78 208.81 C 784.09 208.93 786.53 207.83 783.71 207.58 C 780.89 207.33 770.93 207.26 767.86 207.31 C 764.79 207.35 766.13 208.02 765.29 207.86 C 764.44 207.71 763.46 207.08 762.79 206.38 C 762.12 205.67 761.67 204.68 761.27 203.64 C 760.87 202.61 760.34 200.47 760.38 200.17 C 760.42 199.87 761.46 201.69 761.5 201.84 C 761.54 201.99 760.51 201.78 760.61 201.05 C 760.71 200.32 761.56 198.35 762.1 197.46 C 762.63 196.57 763.4 196.27 763.83 195.7 C 764.26 195.13 763.84 194.36 764.68 194.04 C 765.52 193.72 768.24 193.84 768.86 193.81 C 769.49 193.78 766 193.93 768.45 193.88 Z" fill="#FFFFFF" opacity="0.65"/>
  <text x="795" y="341.8" font-family="Chalkboard SE, Comic Sans MS, Comic Neue, Segoe Print, Bradley Hand, cursive" font-size="20" fill="#475569" text-anchor="middle">TEXT</text>
</svg>
