<?xml version="1.0" encoding="UTF-8"?>
<svg id="Livello_2" data-name="Livello 2" xmlns="http://www.w3.org/2000/svg" xmlns:xlink="http://www.w3.org/1999/xlink" viewBox="0 0 47.68 46">
  <defs>
    <style>
      .cls-1 {
        mask: url(#mask);
      }

      .cls-2, .cls-3 {
        fill: #fff;
      }

      .cls-4 {
        fill: #99adf4;
      }

      .cls-5 {
        fill: #37404c;
      }

      .cls-3, .cls-6 {
        fill-rule: evenodd;
      }
    </style>
    <mask id="mask" x="0" y="14" width="31" height="32" maskUnits="userSpaceOnUse">
      <g id="path-2-outside-1_1_6359" data-name="path-2-outside-1 1 6359">
        <rect class="cls-2" y="14" width="31" height="32"/>
        <path class="cls-6" d="m22,22.34c-.11-2.97-2.56-5.34-5.55-5.34s-5.56,2.49-5.56,5.56v.36c.08.76.72,1.36,1.5,1.36.83,0,1.5-.67,1.5-1.5v-.39c.09-1.33,1.2-2.39,2.56-2.39s2.56,1.15,2.56,2.56v.62c-.1,1.57-1.4,2.82-3,2.82H4.36c-.76.08-1.36.72-1.36,1.5,0,.83.67,1.5,1.5,1.5h11.72c3.21-.12,5.78-2.76,5.78-6v-.66Zm6,15.19c-.11,3.04-2.61,5.47-5.68,5.47s-5.68-2.55-5.68-5.68v-.23c.08-.76.72-1.36,1.5-1.36.83,0,1.5.67,1.5,1.5v.26c.09,1.4,1.26,2.51,2.68,2.51s2.68-1.2,2.68-2.68v-.49c-.1-1.57-1.4-2.82-3-2.82H4.36c-.76-.08-1.36-.72-1.36-1.5,0-.83.67-1.5,1.5-1.5h17.72c3.21.12,5.78,2.76,5.78,6v.53Z"/>
      </g>
    </mask>
  </defs>
  <g id="Livello_1-2" data-name="Livello 1">
    <g>
      <path class="cls-4" d="m36.66,12.68h-1.5s0,1.7,0,1.7l1.68-.21-.19-1.49Zm1.32,16.86l-.05-1.5-1.45.04v1.45h1.5Zm0,0v1.5h1.5v-1.5h-1.5Zm-21.69,0h-1.5v1.5h1.5v-1.5Zm0,0h1.5v-1.48l-1.48-.02-.02,1.5Zm-1.75-19.66l.28,1.47.93-.18.24-.91-1.45-.38Zm23.18,1.23c-.42,0-.84.03-1.24.08l.37,2.98c.29-.04.58-.05.87-.05v-3Zm9.97,9.97c0-5.5-4.46-9.97-9.97-9.97v3c3.85,0,6.97,3.12,6.97,6.97h3Zm-9.65,9.96c5.36-.16,9.65-4.56,9.65-9.96h-3c0,3.77-3,6.85-6.75,6.96l.09,3Zm1.45-1.5h0s-3,0-3,0h0s3,0,3,0Zm-1.76,1.5h.26v-3h-.26v3Zm-21.3,0h21.3v-3h-21.3v3Zm-.13,0h.13v-3h-.13v3Zm-1.5-1.5h0s3,0,3,0h0s-3,0-3,0Zm-9.79-9.92c0,6.26,5.03,11.34,11.27,11.42l.04-3c-4.6-.06-8.31-3.81-8.31-8.42h-3Zm9.26-11.22c-5.27,1.01-9.26,5.65-9.26,11.22h3c0-4.1,2.94-7.52,6.82-8.27l-.57-2.95Zm1.73,1.85c1.1-4.18,4.9-7.26,9.42-7.26V0c-5.92,0-10.89,4.03-12.33,9.5l2.9.76Zm9.42-7.26c5.36,0,9.71,4.33,9.74,9.69l3-.02c-.04-7-5.73-12.67-12.74-12.67v3Z"/>
      <path class="cls-3" d="m22,22.34c-.11-2.97-2.56-5.34-5.55-5.34s-5.56,2.49-5.56,5.56v.36c.08.76.72,1.36,1.5,1.36.83,0,1.5-.67,1.5-1.5v-.39c.09-1.33,1.2-2.39,2.56-2.39s2.56,1.15,2.56,2.56v.62c-.1,1.57-1.4,2.82-3,2.82H4.36c-.76.08-1.36.72-1.36,1.5,0,.83.67,1.5,1.5,1.5h11.72c3.21-.12,5.78-2.76,5.78-6v-.66Zm6,15.19c-.11,3.04-2.61,5.47-5.68,5.47s-5.68-2.55-5.68-5.68v-.23c.08-.76.72-1.36,1.5-1.36.83,0,1.5.67,1.5,1.5v.26c.09,1.4,1.26,2.51,2.68,2.51s2.68-1.2,2.68-2.68v-.49c-.1-1.57-1.4-2.82-3-2.82H4.36c-.76-.08-1.36-.72-1.36-1.5,0-.83.67-1.5,1.5-1.5h17.72c3.21.12,5.78,2.76,5.78,6v.53Z"/>
      <g class="cls-1">
        <path class="cls-5" d="m22,22.34l3-.06v-.03s0-.03,0-.03l-3,.12Zm-11.11.44h-3v.14s3-.14,3-.14Zm0,.14l-3,.14v.07s.01.07.01.07l2.99-.29Zm2.99-.36l-3-.1v.05s0,.05,0,.05h3Zm0-.17l-2.99-.19v.05s0,.05,0,.05l3,.1Zm5.11.61l3,.09v-.04s0-.04,0-.04h-3Zm0,.18l3,.17v-.04s0-.04,0-.04l-3-.09Zm-14.49,2.82v-3h-.14s.14,3,.14,3Zm-.14,0l-.14-3h-.07s-.07.01-.07.01l.29,2.99Zm11.64,2.99v3h.06s-.06-3-.06-3Zm.22,0l.06,3h.03s.03,0,.03,0l-.11-3Zm5.78-6.44h3v-.06s-3,.06-3,.06Zm6,14.98l3,.11v-.03s0-.03,0-.03l-3-.06Zm-11.37-.31l-3-.14v.07s0,.07,0,.07h3Zm0-.14l-2.99-.29v.07s-.01.07-.01.07l3,.14Zm2.99.23h-3v.09s3-.09,3-.09Zm0,.17l-3,.09v.05s0,.05,0,.05l2.99-.19Zm5.36-.49h3v-.09s-3,.09-3,.09Zm0-.18l3-.09v-.04s0-.04,0-.04l-3,.17Zm-20.49-2.82l-.14,3h.07s.07,0,.07,0v-3Zm-.14,0l-.29,2.99h.07s.07.01.07.01l.14-3Zm17.64-2.99l.06-3h-.03s-.03,0-.03,0v3Zm.22,0l.11-3h-.03s-.03,0-.03,0l-.06,3Zm5.78,6.31l3,.06v-.03s0-.03,0-.03h-3Zm-11.56-17.32c1.38,0,2.5,1.09,2.56,2.46l6-.23c-.18-4.57-3.94-8.22-8.55-8.22v6Zm-2.56,2.56c0-1.41,1.15-2.56,2.56-2.56v-6c-4.73,0-8.56,3.83-8.56,8.56h6Zm0,.22v-.22h-6v.22h6Zm0,0v-.14s-6,.28-6,.28v.14s6-.28,6-.28Zm-1.5-1.5c.78,0,1.42.6,1.49,1.36l-5.97.57c.22,2.29,2.14,4.07,4.48,4.07v-6Zm-1.5,1.5c0-.83.67-1.5,1.5-1.5v6c2.49,0,4.5-2.01,4.5-4.5h-6Zm0-.22v.22h6v-.22h-6Zm0-.27v.17s5.99.19,5.99.19v-.17s-5.99-.19-5.99-.19Zm5.55-5.29c-2.95,0-5.36,2.29-5.55,5.2l5.99.39c-.02.23-.21.42-.44.42v-6Zm5.56,5.56c0-3.07-2.49-5.56-5.56-5.56v6c-.24,0-.44-.2-.44-.44h6Zm0,.44v-.44h-6v.44h6Zm0,.26v-.18s-5.99-.17-5.99-.17v.18s5.99.17,5.99.17Zm-5.99,5.74c3.2,0,5.81-2.5,5.99-5.65l-5.99-.35s0,0,0,0c0,0,0,0,0,0,0,0,0,0,0,0,0,0,0,0,0,0,0,0,0,0,0,0,0,0,0,0,0,0v6Zm-11.5,0h11.5v-6H4.5v6Zm0,0h.14s-.28-6-.28-6h-.14s.28,6,.28,6Zm1.5-1.5c0,.78-.6,1.42-1.36,1.49l-.57-5.97c-2.29.22-4.07,2.14-4.07,4.48h6Zm-1.5-1.5c.83,0,1.5.67,1.5,1.5H0c0,2.49,2.01,4.5,4.5,4.5v-6Zm11.5,0H4.5v6h11.5v-6Zm.17,0h-.22s.11,6,.11,6h.22s-.11-6-.11-6Zm2.83-3c0,1.62-1.28,2.94-2.89,3l.22,6c4.82-.18,8.66-4.14,8.66-8.99h-6Zm0-.44v.44h6v-.44h-6Zm0-.16v.22s6-.12,6-.12v-.22s-6,.12-6,.12Zm3.32,23.6c4.69,0,8.5-3.71,8.68-8.35l-6-.23c-.05,1.43-1.24,2.58-2.68,2.58v6Zm-8.68-8.68c0,4.8,3.89,8.68,8.68,8.68v-6c-1.48,0-2.68-1.2-2.68-2.68h-6Zm0-.09v.09h6v-.09h-6Zm.01-.29v.14s5.99.28,5.99.28v-.14s-5.99-.28-5.99-.28Zm4.49-4.21c-2.34,0-4.26,1.78-4.48,4.07l5.97.57c-.07.76-.71,1.36-1.49,1.36v-6Zm4.5,4.5c0-2.49-2.01-4.5-4.5-4.5v6c-.83,0-1.5-.67-1.5-1.5h6Zm0,.09v-.09h-6v.09h6Zm0,.08v-.17s-6,.19-6,.19v.17s6-.19,6-.19Zm-.32-.39c.17,0,.3.13.31.3l-5.99.37c.19,2.97,2.65,5.33,5.67,5.33v-6Zm-.32.32c0-.17.14-.32.32-.32v6c3.14,0,5.68-2.55,5.68-5.68h-6Zm0-.32v.32h6v-.32h-6Zm0-.09v.18s6-.17,6-.17v-.18s-6,.17-6,.17Zm0,.09s0,0,0,0c0,0,0,0,0,0,0,0,0,0,0,0,0,0,0,0,0,0,0,0,0,0,0,0,0,0,0,0,0,0l5.99-.35c-.18-3.15-2.79-5.65-5.99-5.65v6Zm-17.5,0h17.5v-6H4.5v6Zm-.29-.01h.14s.28-5.99.28-5.99h-.14s-.28,5.99-.28,5.99Zm-4.21-4.49c0,2.34,1.79,4.26,4.07,4.48l.57-5.97c.76.07,1.36.71,1.36,1.49H0Zm4.5-4.5c-2.49,0-4.5,2.01-4.5,4.5h6c0,.83-.67,1.5-1.5,1.5v-6Zm17.5,0H4.5v6h17.5v-6Zm.28,0h-.22s-.11,5.99-.11,5.99h.22s.11-5.99.11-5.99Zm8.72,9c0-4.86-3.85-8.82-8.66-8.99l-.22,6c1.6.06,2.89,1.38,2.89,3h6Zm0,.32v-.32h-6v.32h6Zm0,.27v-.22s-5.99-.11-5.99-.11v.22s5.99.11,5.99.11Z"/>
      </g>
    </g>
  </g>
</svg>