<?xml version="1.0" ?>
<!-- Link https://www.svgrepo.com/svg/422331/lyrics-microphone-music CC0 License -->
<!-- Uploaded to: SVG Repo, www.svgrepo.com, Generator: SVG Repo Mixer Tools -->
<svg width="800px" height="800px" viewBox="0 0 32 32" xmlns="http://www.w3.org/2000/svg">

<defs>

<style>.cls-1{fill:#3fa9f5;}.cls-2{fill:#2e3192;}</style>

</defs>

<title/>

<g data-name="01" id="_01">

<rect class="cls-1" height="14" rx="4" ry="4" width="8" x="12" y="3"/>

<path class="cls-2" d="M16,18a5,5,0,0,1-5-5V7A5,5,0,0,1,21,7v6A5,5,0,0,1,16,18ZM16,4a3,3,0,0,0-3,3v6a3,3,0,0,0,6,0V7A3,3,0,0,0,16,4Z"/>

<path class="cls-2" d="M16,22a9,9,0,0,1-9-9,1,1,0,0,1,2,0,7,7,0,0,0,14,0,1,1,0,0,1,2,0A9,9,0,0,1,16,22Z"/>

<path class="cls-2" d="M16,28a1,1,0,0,1-1-1V21a1,1,0,0,1,2,0v6A1,1,0,0,1,16,28Z"/>

<path class="cls-2" d="M19,28H13a1,1,0,0,1,0-2h6a1,1,0,0,1,0,2Z"/>

</g>

</svg>