<svg xmlns="http://www.w3.org/2000/svg" width="1000" height="430" viewBox="0 0 1000 430">
  <rect width="1000" height="430" fill="#FFFFFF"/>
  <path d="M 89.09 96.92 C 93.58 96.61 106.97 94.66 115.87 94.75 C 124.77 94.84 133.2 97.32 142.49 97.46 C 151.78 97.59 162.38 95.71 171.61 95.55 C 180.84 95.4 188.98 96.46 197.88 96.54 C 206.78 96.62 215.9 96.29 224.99 96.02 C 234.09 95.74 243.22 94.77 252.43 94.9 C 261.64 95.04 274.48 96.31 280.26 96.83 C 286.05 97.35 285.23 97.37 287.15 98.04 C 289.07 98.72 290.69 99.61 291.78 100.88 C 292.88 102.15 293.37 103.94 293.71 105.67 C 294.04 107.39 293.43 110.69 293.8 111.2 C 294.16 111.71 295.87 103.66 295.88 108.7 C 295.89 113.74 294.01 131 293.85 141.46 C 293.68 151.92 294.66 165.61 294.88 171.47 C 295.1 177.33 295.66 175.14 295.18 176.63 C 294.69 178.12 293.45 178.97 291.97 180.44 C 290.48 181.9 288.22 184.37 286.27 185.43 C 284.31 186.49 281.2 186.89 280.25 186.79 C 279.31 186.68 284.97 184.96 280.6 184.79 C 276.24 184.63 263.36 185.49 254.06 185.79 C 244.77 186.08 233.98 186.73 224.83 186.58 C 215.69 186.43 208.16 184.99 199.17 184.9 C 190.19 184.8 180.03 185.64 170.92 186 C 161.81 186.36 153.57 187.06 144.51 187.06 C 135.46 187.06 126.04 186.22 116.59 185.97 C 107.15 185.73 93.44 185.87 87.85 185.6 C 82.27 185.33 84.58 185.16 83.11 184.38 C 81.63 183.59 79.99 182.25 79 180.9 C 78.01 179.56 77.71 177.91 77.18 176.3 C 76.65 174.69 75.94 171.98 75.81 171.24 C 75.69 170.49 76.57 176.68 76.43 171.85 C 76.29 167.02 75.14 152.5 74.98 142.28 C 74.82 132.06 75.32 116.54 75.48 110.51 C 75.64 104.49 75.27 107.67 75.94 106.12 C 76.61 104.57 78.07 102.96 79.51 101.21 C 80.94 99.46 82.96 96.38 84.53 95.61 C 86.1 94.85 88.18 96.4 88.94 96.62 C 89.7 96.84 84.6 97.24 89.09 96.92 Z" fill="#1F2937" opacity="0.13"/>
  <path d="M 83.45 89.14 C 88.23 89.13 102.85 89.99 112.07 89.99 C 121.28 89.99 129.73 89.05 138.73 89.12 C 147.72 89.2 156.81 90.32 166.04 90.43 C 175.26 90.53 184.97 89.91 194.08 89.76 C 203.18 89.6 211.65 89.36 220.66 89.5 C 229.68 89.64 238.89 90.6 248.17 90.61 C 257.45 90.62 270.74 89.44 276.35 89.56 C 281.96 89.69 280.27 90.46 281.84 91.34 C 283.4 92.22 284.43 93.51 285.73 94.83 C 287.04 96.16 288.86 97.65 289.67 99.31 C 290.47 100.97 290.48 104.1 290.56 104.77 C 290.63 105.43 290.25 98.18 290.11 103.31 C 289.97 108.44 289.89 125.13 289.73 135.55 C 289.57 145.96 289.42 159.85 289.15 165.81 C 288.88 171.76 288.58 169.63 288.09 171.3 C 287.61 172.97 287.39 174.58 286.23 175.83 C 285.08 177.08 282.83 178.12 281.16 178.82 C 279.5 179.52 277.21 179.79 276.23 180.03 C 275.24 180.28 279.91 180.16 275.27 180.3 C 270.63 180.44 257.33 180.86 248.39 180.87 C 239.45 180.88 230.78 180.46 221.65 180.36 C 212.51 180.27 202.82 180.48 193.6 180.29 C 184.38 180.1 175.4 179.26 166.33 179.21 C 157.25 179.17 148.36 179.74 139.15 180 C 129.94 180.26 120.37 180.69 111.07 180.78 C 101.78 180.87 88.67 180.89 83.38 180.54 C 78.08 180.18 80.74 179.45 79.29 178.66 C 77.84 177.87 76.15 177.03 74.66 175.78 C 73.18 174.52 71.24 172.75 70.4 171.13 C 69.56 169.52 69.71 167.07 69.62 166.08 C 69.53 165.09 69.81 170.21 69.86 165.17 C 69.91 160.14 70 146.07 69.91 135.87 C 69.82 125.67 69.06 110.13 69.31 103.96 C 69.56 97.78 70.71 100.56 71.44 98.83 C 72.17 97.11 72.42 94.89 73.7 93.59 C 74.98 92.3 77.5 91.66 79.11 91.07 C 80.72 90.47 82.67 90.35 83.39 90.02 C 84.11 89.7 78.67 89.14 83.45 89.14 Z" fill="#D8F5F0" opacity="1"/>
  <path d="M 82.79 89.53 C 87.38 89.41 102.09 90.51 111.44 90.63 C 120.79 90.75 129.98 90.43 138.88 90.23 C 147.77 90.02 155.86 89.64 164.81 89.4 C 173.77 89.16 183.29 88.45 192.61 88.79 C 201.93 89.12 211.49 91.23 220.71 91.4 C 229.93 91.58 238.74 89.88 247.94 89.85 C 257.14 89.82 270.23 90.98 275.93 91.23 C 281.63 91.47 280.28 90.65 282.14 91.32 C 284 91.99 285.91 93.88 287.1 95.26 C 288.3 96.64 288.97 98.4 289.31 99.63 C 289.65 100.85 288.86 101.91 289.15 102.62 C 289.45 103.32 291.17 98.66 291.09 103.86 C 291 109.06 288.91 123.41 288.66 133.83 C 288.4 144.24 289.45 160.28 289.55 166.35 C 289.64 172.41 289.84 168.64 289.2 170.23 C 288.56 171.82 286.89 174.46 285.69 175.88 C 284.49 177.29 283.65 178.29 282 178.72 C 280.36 179.16 276.74 178.45 275.81 178.5 C 274.89 178.56 281.05 179.02 276.45 179.05 C 271.86 179.08 257.57 178.35 248.24 178.69 C 238.92 179.04 229.49 180.79 220.51 181.12 C 211.54 181.45 203.39 180.82 194.37 180.67 C 185.35 180.53 175.67 180.15 166.4 180.23 C 157.14 180.31 147.78 181.28 138.79 181.16 C 129.8 181.05 121.58 179.65 112.46 179.53 C 103.35 179.42 89.91 180.67 84.09 180.47 C 78.27 180.26 79.41 178.95 77.53 178.32 C 75.65 177.69 73.89 178.09 72.81 176.7 C 71.73 175.32 71.53 171.7 71.07 170.01 C 70.62 168.31 70.42 167.15 70.09 166.51 C 69.77 165.86 69.34 171.58 69.13 166.13 C 68.92 160.68 68.57 144.26 68.82 133.83 C 69.08 123.4 70.21 109.61 70.66 103.56 C 71.11 97.5 70.97 99.08 71.53 97.51 C 72.09 95.94 72.96 95.24 74.03 94.12 C 75.1 93 76.31 91.28 77.95 90.81 C 79.59 90.35 83.07 91.54 83.87 91.33 C 84.68 91.11 78.19 89.64 82.79 89.53 Z" fill="none" stroke="#0D9488" stroke-width="3" stroke-linecap="round" stroke-linejoin="round" opacity="1.0"/>
  <path d="M 82.4 89.9 C 87.61 89.89 103.74 88.9 113.1 89.28 C 122.46 89.65 129.68 91.97 138.55 92.13 C 147.42 92.28 157.49 90.83 166.34 90.2 C 175.19 89.57 182.81 88.59 191.67 88.34 C 200.53 88.1 210.29 88.19 219.49 88.73 C 228.69 89.27 237.68 91.23 246.87 91.59 C 256.07 91.95 268.88 90.8 274.64 90.91 C 280.41 91.02 279.78 91.76 281.48 92.25 C 283.19 92.74 283.64 93.09 284.86 93.86 C 286.09 94.64 288.11 95.43 288.81 96.89 C 289.5 98.34 288.91 101.59 289.05 102.59 C 289.19 103.6 289.56 97.56 289.63 102.91 C 289.71 108.27 289.13 124.41 289.5 134.72 C 289.87 145.03 292.02 158.59 291.85 164.79 C 291.69 170.99 289.52 170 288.51 171.93 C 287.49 173.85 287.14 175.51 285.76 176.34 C 284.37 177.16 282.11 175.93 280.18 176.88 C 278.25 177.84 274.57 181.23 274.18 182.06 C 273.79 182.89 282.18 182.05 277.84 181.86 C 273.5 181.68 257.22 180.96 248.14 180.96 C 239.06 180.95 232.08 182.35 223.36 181.82 C 214.63 181.29 205.21 177.87 195.81 177.78 C 186.41 177.69 176.78 181.18 166.95 181.29 C 157.13 181.39 146.25 178.33 136.85 178.43 C 127.46 178.53 119.5 181.95 110.58 181.88 C 101.66 181.8 88.87 178.21 83.32 177.99 C 77.76 177.76 78.89 180.53 77.24 180.51 C 75.59 180.49 74.75 179.17 73.42 177.86 C 72.09 176.56 69.73 174.46 69.27 172.67 C 68.8 170.88 70.22 168.07 70.63 167.12 C 71.04 166.17 72.18 172.35 71.71 166.99 C 71.25 161.63 67.77 145.47 67.83 134.96 C 67.89 124.45 71.69 109.76 72.07 103.94 C 72.46 98.12 69.43 101.5 70.12 100.03 C 70.81 98.57 74.48 96.76 76.21 95.15 C 77.95 93.54 79.6 91.33 80.54 90.35 C 81.49 89.38 81.57 89.38 81.88 89.31 C 82.19 89.23 77.2 89.9 82.4 89.9 Z" fill="none" stroke="#0D9488" stroke-width="2.1" stroke-linecap="round" stroke-linejoin="round" opacity="0.45"/>
  <text x="180" y="127" font-family="Chalkboard SE, Comic Sans MS, Comic Neue, Segoe Print, Bradley Hand, cursive" font-size="23" fill="#0D9488" text-anchor="middle">source</text>
  <text x="180" y="153" font-family="Chalkboard SE, Comic Sans MS, Comic Neue, Segoe Print, Bradley Hand, cursive" font-size="18" fill="#0D9488" text-anchor="middle">public state</text>
  <path d="M 407.55 95.07 C 412.14 94.87 426.78 95.63 435.96 95.76 C 445.14 95.88 453.42 95.58 462.65 95.83 C 471.89 96.08 482.21 97.12 491.37 97.27 C 500.53 97.42 508.57 96.78 517.61 96.74 C 526.66 96.7 536.17 97.27 545.63 97.05 C 555.1 96.83 565.39 95.6 574.42 95.4 C 583.46 95.2 594.59 95.33 599.84 95.85 C 605.1 96.37 604.12 97.98 605.97 98.5 C 607.82 99.02 609.78 97.77 610.94 98.96 C 612.1 100.16 612.4 103.78 612.94 105.69 C 613.48 107.6 613.9 109.83 614.17 110.42 C 614.44 111.01 614.29 103.98 614.55 109.21 C 614.82 114.44 615.92 131.56 615.75 141.81 C 615.58 152.06 613.76 164.59 613.52 170.7 C 613.27 176.81 614.88 176.77 614.26 178.47 C 613.65 180.17 610.93 179.73 609.82 180.89 C 608.71 182.05 609.28 184.74 607.61 185.45 C 605.94 186.15 600.87 184.95 599.8 185.15 C 598.72 185.35 605.77 186.46 601.17 186.64 C 596.57 186.82 581.4 186.24 572.19 186.23 C 562.99 186.22 554.68 186.44 545.95 186.58 C 537.22 186.72 528.83 187.18 519.81 187.07 C 510.78 186.97 501.22 186.01 491.8 185.93 C 482.38 185.85 472.39 186.44 463.29 186.59 C 454.2 186.75 446.48 187.12 437.2 186.86 C 427.93 186.59 413.23 185.43 407.64 184.99 C 402.04 184.54 404.87 184.67 403.63 184.18 C 402.4 183.7 401.49 183.35 400.23 182.07 C 398.96 180.79 396.88 178.21 396.05 176.49 C 395.23 174.77 395.27 172.26 395.28 171.75 C 395.29 171.23 396.2 178.3 396.12 173.38 C 396.03 168.47 394.74 152.86 394.77 142.27 C 394.81 131.67 396.11 115.85 396.33 109.8 C 396.54 103.76 395.51 107.42 396.06 106.02 C 396.61 104.61 398.16 103.02 399.62 101.4 C 401.07 99.78 403.31 97.01 404.78 96.27 C 406.24 95.53 407.95 97.16 408.41 96.96 C 408.87 96.76 402.96 95.27 407.55 95.07 Z" fill="#1F2937" opacity="0.13"/>
  <path d="M 403.46 89.57 C 407.99 89.47 422.01 89.27 431.26 89.35 C 440.51 89.43 449.74 90.07 458.96 90.05 C 468.19 90.03 477.44 89.25 486.63 89.25 C 495.82 89.25 504.95 89.77 514.11 90.04 C 523.27 90.31 532.53 91 541.59 90.88 C 550.66 90.76 559.34 89.33 568.49 89.32 C 577.63 89.3 590.91 90.58 596.46 90.79 C 602.01 91 600.27 90.05 601.79 90.58 C 603.31 91.12 604.45 92.7 605.61 94 C 606.76 95.31 607.9 96.64 608.72 98.41 C 609.54 100.19 610.41 103.69 610.53 104.64 C 610.65 105.59 609.58 99.15 609.45 104.14 C 609.33 109.12 609.74 124.3 609.78 134.57 C 609.82 144.84 609.72 159.51 609.68 165.76 C 609.64 172 610.09 170.37 609.53 172.05 C 608.98 173.74 607.73 174.78 606.36 175.85 C 604.99 176.92 602.94 177.87 601.29 178.49 C 599.65 179.1 597.38 179.31 596.49 179.55 C 595.59 179.8 600.54 180.01 595.93 179.95 C 591.31 179.89 577.81 179.24 568.81 179.19 C 559.81 179.14 551.24 179.52 541.91 179.63 C 532.58 179.74 522.1 179.82 512.83 179.86 C 503.55 179.9 495.39 179.95 486.29 179.86 C 477.18 179.77 467.25 179.15 458.21 179.3 C 449.18 179.46 441.17 180.66 432.06 180.79 C 422.94 180.93 408.99 180.38 403.53 180.12 C 398.07 179.87 400.89 179.8 399.3 179.24 C 397.7 178.69 395.4 177.97 393.97 176.79 C 392.53 175.61 391.23 173.93 390.71 172.17 C 390.19 170.41 390.86 167.3 390.85 166.21 C 390.83 165.13 390.7 171 390.61 165.66 C 390.53 160.33 390.42 144.5 390.32 134.2 C 390.22 123.89 389.78 109.68 390.01 103.84 C 390.24 98.01 391.16 100.89 391.7 99.18 C 392.25 97.47 392.01 94.93 393.31 93.61 C 394.61 92.28 397.71 91.83 399.5 91.22 C 401.3 90.62 403.4 90.25 404.06 89.97 C 404.71 89.7 398.92 89.68 403.46 89.57 Z" fill="#E7E9FF" opacity="1"/>
  <path d="M 404.15 90.66 C 408.82 91.03 423.38 91.44 432.72 91.45 C 442.06 91.45 451.11 91 460.2 90.69 C 469.28 90.38 478.43 89.92 487.24 89.59 C 496.05 89.26 504.19 88.47 513.06 88.71 C 521.92 88.95 531.24 90.79 540.42 91.04 C 549.59 91.29 559.08 90.47 568.11 90.23 C 577.15 89.99 589.25 89.56 594.64 89.6 C 600.03 89.65 598.41 89.52 600.46 90.5 C 602.51 91.48 605.38 93.94 606.95 95.49 C 608.52 97.04 609.22 98.46 609.9 99.8 C 610.58 101.15 611.04 102.78 611.04 103.55 C 611.03 104.32 610.27 99.01 609.87 104.43 C 609.47 109.85 608.67 125.92 608.63 136.08 C 608.6 146.24 609.84 159.27 609.67 165.39 C 609.5 171.51 608.07 171.18 607.62 172.8 C 607.18 174.42 607.91 174.14 606.99 175.12 C 606.07 176.11 603.84 177.7 602.09 178.72 C 600.34 179.74 597.74 180.84 596.49 181.24 C 595.24 181.64 599.41 181.33 594.58 181.12 C 589.76 180.91 576.64 180.14 567.56 179.96 C 558.48 179.78 549.23 180.08 540.11 180.03 C 530.98 179.99 521.9 179.53 512.8 179.69 C 503.7 179.85 494.34 181.2 485.49 181 C 476.65 180.81 468.53 178.46 459.72 178.53 C 450.91 178.6 441.66 181.33 432.63 181.42 C 423.59 181.52 410.94 179.39 405.5 179.11 C 400.05 178.84 401.64 180.5 399.98 179.75 C 398.31 179.01 396.89 176 395.51 174.62 C 394.13 173.24 392.62 173.02 391.69 171.49 C 390.75 169.96 390.38 166.11 389.91 165.44 C 389.44 164.78 388.83 172.42 388.86 167.49 C 388.88 162.57 389.75 146.68 390.04 135.91 C 390.32 125.14 390.55 109.29 390.56 102.88 C 390.56 96.46 389.38 98.87 390.07 97.43 C 390.77 96 393.43 95.57 394.73 94.27 C 396.03 92.97 396.22 90.5 397.88 89.66 C 399.54 88.81 403.66 89.05 404.7 89.22 C 405.75 89.39 399.48 90.28 404.15 90.66 Z" fill="none" stroke="#4F46E5" stroke-width="3" stroke-linecap="round" stroke-linejoin="round" opacity="1.0"/>
  <path d="M 406.21 92.02 C 410.8 92.23 421.56 91.22 430.01 90.63 C 438.45 90.04 447.55 88.63 456.88 88.51 C 466.2 88.39 476.15 89.52 485.95 89.91 C 495.75 90.31 506.21 90.84 515.7 90.86 C 525.18 90.89 534.16 90.22 542.85 90.06 C 551.54 89.9 558.96 90.11 567.84 89.89 C 576.71 89.68 590.35 88.3 596.09 88.78 C 601.84 89.26 600.44 92.06 602.33 92.79 C 604.21 93.52 606.45 91.9 607.41 93.15 C 608.38 94.4 607.54 98.78 608.13 100.29 C 608.72 101.8 610.71 101.82 610.96 102.2 C 611.21 102.58 610.08 97.27 609.64 102.57 C 609.19 107.88 608.32 123.67 608.29 134.02 C 608.26 144.37 609.34 158.78 609.47 164.67 C 609.61 170.55 609.96 167.25 609.09 169.33 C 608.21 171.41 605.59 175.76 604.23 177.13 C 602.88 178.49 602.21 176.9 600.95 177.53 C 599.69 178.16 597.86 180.21 596.67 180.9 C 595.47 181.59 598.52 181.64 593.78 181.67 C 589.05 181.7 577.16 181.56 568.26 181.1 C 559.36 180.63 549.8 179.09 540.38 178.88 C 530.96 178.67 521.08 179.76 511.73 179.84 C 502.38 179.93 493.27 179.55 484.28 179.38 C 475.3 179.2 466.57 178.65 457.81 178.8 C 449.06 178.96 440.96 179.94 431.76 180.32 C 422.57 180.7 408.25 181.34 402.65 181.08 C 397.05 180.82 399.38 179.59 398.18 178.75 C 396.98 177.92 396.57 177.68 395.45 176.07 C 394.32 174.47 392.05 170.97 391.42 169.13 C 390.79 167.3 391.59 165.5 391.65 165.07 C 391.7 164.65 392.2 171.87 391.76 166.58 C 391.32 161.29 389.52 143.56 389.03 133.33 C 388.53 123.11 388.18 110.91 388.79 105.24 C 389.41 99.57 391.71 101.4 392.73 99.32 C 393.75 97.24 394.26 93.76 394.92 92.75 C 395.58 91.73 395.43 93.79 396.69 93.24 C 397.96 92.68 400.92 89.61 402.51 89.41 C 404.09 89.21 401.63 91.82 406.21 92.02 Z" fill="none" stroke="#4F46E5" stroke-width="2.1" stroke-linecap="round" stroke-linejoin="round" opacity="0.45"/>
  <text x="500" y="127" font-family="Chalkboard SE, Comic Sans MS, Comic Neue, Segoe Print, Bradley Hand, cursive" font-size="23" fill="#4F46E5" text-anchor="middle">skin</text>
  <text x="500" y="153" font-family="Chalkboard SE, Comic Sans MS, Comic Neue, Segoe Print, Bradley Hand, cursive" font-size="18" fill="#4F46E5" text-anchor="middle">public state</text>
  <path d="M 728.14 95.37 C 732.56 95.13 746.97 94.59 756.08 94.76 C 765.19 94.93 773.37 96.28 782.79 96.36 C 792.21 96.45 803.07 95.3 812.62 95.28 C 822.18 95.26 831.13 95.87 840.11 96.23 C 849.1 96.58 857.7 97.22 866.54 97.42 C 875.38 97.63 883.98 97.5 893.16 97.46 C 902.34 97.42 916.17 97.09 921.62 97.19 C 927.06 97.29 924.51 97.58 925.82 98.05 C 927.14 98.52 928.38 99.17 929.5 100.03 C 930.63 100.88 931.52 101.77 932.59 103.19 C 933.66 104.61 935.42 107.49 935.91 108.56 C 936.39 109.62 935.86 104.15 935.5 109.58 C 935.14 115.01 933.7 130.69 933.73 141.13 C 933.76 151.58 935.58 166.08 935.68 172.26 C 935.78 178.44 934.93 176.38 934.32 178.2 C 933.71 180.02 933.55 182.29 932.02 183.18 C 930.5 184.07 926.91 183.26 925.15 183.54 C 923.39 183.81 922.06 184.46 921.46 184.82 C 920.87 185.19 926.28 185.73 921.57 185.74 C 916.86 185.74 902.24 184.78 893.22 184.85 C 884.19 184.91 876.45 185.87 867.42 186.1 C 858.38 186.34 848.18 186.23 838.99 186.24 C 829.79 186.26 821.57 186.22 812.26 186.21 C 802.95 186.2 792.24 186.33 783.12 186.16 C 774.01 185.99 766.63 185.14 757.59 185.18 C 748.54 185.22 734.76 186.27 728.86 186.42 C 722.95 186.57 724.03 186.73 722.16 186.08 C 720.3 185.43 718.53 184.05 717.67 182.52 C 716.8 180.99 717.27 178.41 716.96 176.9 C 716.64 175.39 716.23 174.21 715.77 173.45 C 715.31 172.69 714.13 177.71 714.19 172.36 C 714.24 167.01 716.16 151.59 716.1 141.35 C 716.04 131.11 713.9 117.11 713.82 110.92 C 713.74 104.73 714.89 106.22 715.61 104.21 C 716.33 102.19 716.56 100.11 718.13 98.84 C 719.69 97.56 723.1 96.99 725.01 96.54 C 726.91 96.1 729.02 96.36 729.55 96.16 C 730.07 95.96 723.72 95.6 728.14 95.37 Z" fill="#1F2937" opacity="0.13"/>
  <path d="M 724.42 90.23 C 729 90.34 743.18 90.2 752.23 90.07 C 761.28 89.94 769.81 89.38 778.74 89.44 C 787.67 89.51 796.61 90.25 805.81 90.46 C 815.01 90.68 824.78 90.72 833.96 90.75 C 843.14 90.78 851.68 90.83 860.89 90.65 C 870.11 90.46 880.02 89.74 889.24 89.64 C 898.46 89.55 910.73 89.95 916.22 90.09 C 921.71 90.23 920.46 89.95 922.17 90.47 C 923.88 90.99 925.3 91.84 926.48 93.22 C 927.66 94.6 928.67 97.06 929.25 98.75 C 929.82 100.44 929.71 102.59 929.94 103.37 C 930.18 104.15 930.49 98 930.65 103.42 C 930.81 108.84 930.86 125.47 930.9 135.88 C 930.93 146.3 931.21 160.13 930.89 165.91 C 930.56 171.7 929.69 169.01 928.92 170.6 C 928.16 172.2 927.61 174.23 926.32 175.5 C 925.03 176.77 922.98 177.39 921.18 178.22 C 919.37 179.06 916.37 180.19 915.47 180.5 C 914.56 180.81 920.35 180.11 915.74 180.07 C 911.13 180.03 896.8 180.32 887.8 180.25 C 878.8 180.17 870.87 179.76 861.75 179.64 C 852.63 179.51 842.17 179.42 833.06 179.5 C 823.96 179.57 816.29 180.06 807.12 180.08 C 797.95 180.1 787.25 179.75 778.04 179.62 C 768.84 179.49 760.82 179.31 751.87 179.31 C 742.91 179.31 729.76 179.81 724.33 179.61 C 718.9 179.4 720.88 178.55 719.31 178.07 C 717.74 177.59 716.37 177.93 714.91 176.75 C 713.45 175.57 711.47 172.94 710.55 171 C 709.63 169.07 709.52 165.83 709.39 165.14 C 709.26 164.44 709.56 171.85 709.77 166.83 C 709.97 161.82 710.45 145.59 710.63 135.06 C 710.82 124.53 710.79 109.67 710.88 103.65 C 710.98 97.63 710.77 100.54 711.21 98.95 C 711.65 97.35 712.17 95.46 713.53 94.06 C 714.89 92.66 717.5 91.33 719.37 90.56 C 721.24 89.79 723.91 89.48 724.75 89.42 C 725.59 89.37 719.84 90.12 724.42 90.23 Z" fill="#FDEBCF" opacity="1"/>
  <path d="M 723.4 91.23 C 728.22 91.47 742.7 90.12 752.08 90.07 C 761.46 90.02 770.89 90.98 779.69 90.92 C 788.49 90.87 795.91 89.83 804.86 89.74 C 813.8 89.64 824.01 90.44 833.35 90.37 C 842.7 90.31 851.52 89.53 860.92 89.33 C 870.32 89.12 880.47 89.17 889.77 89.13 C 899.06 89.09 911.55 88.51 916.68 89.07 C 921.81 89.63 919.01 91.77 920.54 92.47 C 922.07 93.18 924.7 92.41 925.87 93.28 C 927.05 94.14 927.13 96.07 927.59 97.66 C 928.05 99.24 927.98 101.54 928.63 102.78 C 929.28 104.02 931.41 99.51 931.48 105.1 C 931.56 110.69 929.19 125.97 929.1 136.33 C 929.01 146.68 930.8 161.5 930.97 167.22 C 931.13 172.94 930.82 169.34 930.11 170.64 C 929.39 171.94 928.22 173.57 926.66 175.03 C 925.1 176.48 922.49 178.51 920.72 179.38 C 918.95 180.25 916.93 180.2 916.03 180.25 C 915.13 180.31 919.98 179.7 915.33 179.69 C 910.68 179.67 897.07 179.98 888.12 180.17 C 879.17 180.36 870.47 180.98 861.63 180.82 C 852.79 180.66 844.21 179.37 835.09 179.21 C 825.97 179.04 816.3 179.78 806.91 179.84 C 797.52 179.91 787.82 179.48 778.74 179.61 C 769.67 179.73 761.79 180.43 752.47 180.61 C 743.14 180.79 728.46 180.69 722.79 180.66 C 717.12 180.63 719.69 181.35 718.47 180.42 C 717.24 179.49 716.52 176.44 715.44 175.08 C 714.35 173.73 712.86 173.6 711.98 172.3 C 711.1 171 710.72 168.17 710.15 167.28 C 709.58 166.4 708.72 172.41 708.57 166.98 C 708.41 161.56 708.78 145.23 709.21 134.75 C 709.65 124.26 710.64 110.13 711.17 104.06 C 711.69 98 711.66 100.16 712.36 98.35 C 713.05 96.53 714.52 94.2 715.34 93.15 C 716.16 92.1 715.97 92.8 717.27 92.05 C 718.57 91.3 722.11 88.77 723.14 88.64 C 724.16 88.5 718.58 90.99 723.4 91.23 Z" fill="none" stroke="#D97706" stroke-width="3" stroke-linecap="round" stroke-linejoin="round" opacity="1.0"/>
  <path d="M 722.05 88.32 C 726.34 87.85 739.83 87.17 749.54 87.76 C 759.24 88.36 770.45 91.32 780.27 91.89 C 790.08 92.45 799.51 91.68 808.43 91.14 C 817.35 90.61 824.87 88.8 833.79 88.68 C 842.71 88.56 853.01 90.07 861.96 90.42 C 870.9 90.76 878.18 90.78 887.45 90.77 C 896.72 90.76 911.79 90.64 917.57 90.34 C 923.36 90.04 920.52 88.68 922.17 88.97 C 923.82 89.25 926.72 90.42 927.49 92.05 C 928.26 93.67 926.69 96.94 926.8 98.73 C 926.9 100.53 927.47 101.76 928.13 102.81 C 928.8 103.87 930.84 99.78 930.81 105.05 C 930.77 110.31 927.79 124.28 927.93 134.42 C 928.08 144.56 931.19 159.42 931.65 165.87 C 932.11 172.32 931.48 171.17 930.7 173.12 C 929.93 175.08 928.87 176.5 927 177.6 C 925.12 178.69 921.67 179.27 919.47 179.69 C 917.26 180.12 914.18 180.12 913.79 180.15 C 913.4 180.18 921.15 180.19 917.13 179.89 C 913.11 179.59 899.24 178.59 889.65 178.34 C 880.06 178.09 868.91 178.21 859.57 178.38 C 850.24 178.55 842.71 179.36 833.63 179.36 C 824.55 179.36 813.87 178.02 805.09 178.38 C 796.32 178.75 789.64 181.2 780.99 181.55 C 772.35 181.9 762.61 180.96 753.22 180.46 C 743.83 179.96 730.18 178.82 724.64 178.54 C 719.1 178.26 721.54 179.1 720 178.79 C 718.45 178.48 716.87 178.17 715.36 176.67 C 713.86 175.17 711.52 171.5 710.95 169.79 C 710.38 168.08 712.27 166.97 711.93 166.4 C 711.59 165.82 709.39 171.8 708.92 166.31 C 708.44 160.82 708.97 144.07 709.1 133.47 C 709.22 122.87 709.54 108.26 709.67 102.71 C 709.8 97.17 709.25 101.88 709.86 100.2 C 710.47 98.53 712.05 93.87 713.34 92.64 C 714.64 91.41 715.88 93.17 717.62 92.83 C 719.36 92.49 723.06 91.35 723.8 90.6 C 724.54 89.84 717.76 88.79 722.05 88.32 Z" fill="none" stroke="#D97706" stroke-width="2.1" stroke-linecap="round" stroke-linejoin="round" opacity="0.45"/>
  <text x="820" y="127" font-family="Chalkboard SE, Comic Sans MS, Comic Neue, Segoe Print, Bradley Hand, cursive" font-size="23" fill="#D97706" text-anchor="middle">output</text>
  <text x="820" y="153" font-family="Chalkboard SE, Comic Sans MS, Comic Neue, Segoe Print, Bradley Hand, cursive" font-size="18" fill="#D97706" text-anchor="middle">public state</text>
  <path d="M 292.27 135.64 C 293.33 135.55 296.66 135.12 298.63 135.07 C 300.6 135.02 302.25 135.44 304.08 135.33 C 305.91 135.22 307.58 134.37 309.63 134.4 C 311.67 134.44 314.31 135.46 316.34 135.52 C 318.38 135.57 319.88 134.94 321.83 134.73 C 323.78 134.51 325.9 134.22 328.03 134.23 C 330.17 134.24 332.78 134.75 334.63 134.76 C 336.49 134.77 337.38 134.12 339.17 134.3 C 340.95 134.47 343.25 135.76 345.34 135.8 C 347.42 135.83 349.47 134.76 351.66 134.51 C 353.85 134.26 356.51 134.11 358.47 134.3 C 360.43 134.48 361.4 135.56 363.43 135.63 C 365.46 135.7 368.7 134.76 370.67 134.72 C 372.65 134.68 373.52 135.47 375.29 135.39 C 377.07 135.3 380.32 134.42 381.32 134.23" fill="none" stroke="#D97706" stroke-width="3" stroke-linecap="round" stroke-linejoin="round" opacity="1.0"/>
  <path d="M 292.06 136.13 C 293.12 136.16 296.41 136.33 298.45 136.29 C 300.48 136.25 302.11 136.16 304.26 135.87 C 306.4 135.59 309.57 134.76 311.32 134.59 C 313.07 134.43 313.02 134.82 314.77 134.89 C 316.51 134.96 319.55 134.95 321.79 135.01 C 324.03 135.07 326.24 135.38 328.2 135.26 C 330.17 135.13 331.47 134.18 333.57 134.27 C 335.66 134.35 338.8 135.45 340.75 135.77 C 342.69 136.1 343.44 136.29 345.23 136.24 C 347.02 136.19 349.57 135.85 351.48 135.5 C 353.4 135.16 354.56 134.24 356.73 134.18 C 358.9 134.12 362.41 135.17 364.49 135.14 C 366.56 135.11 367.05 133.85 369.2 134.01 C 371.34 134.16 375.06 136.02 377.34 136.06 C 379.61 136.11 381.91 134.58 382.83 134.28" fill="none" stroke="#D97706" stroke-width="2.1" stroke-linecap="round" stroke-linejoin="round" opacity="0.45"/>
  <path d="M 388 135 L 377.96 139.49 L 377.96 130.51 Z" fill="#D97706"/>
  <path d="M 612.74 134.41 C 613.6 134.51 616.14 135 617.88 135.01 C 619.62 135.02 621.05 134.4 623.19 134.48 C 625.32 134.56 628.51 135.27 630.68 135.49 C 632.84 135.71 634.23 135.81 636.17 135.8 C 638.11 135.78 640.26 135.61 642.3 135.4 C 644.35 135.19 646.6 134.72 648.44 134.54 C 650.29 134.35 651.58 134.12 653.36 134.29 C 655.13 134.47 656.9 135.6 659.11 135.58 C 661.32 135.55 664.58 134.14 666.62 134.14 C 668.66 134.15 669.35 135.5 671.35 135.61 C 673.36 135.71 676.66 134.92 678.66 134.76 C 680.67 134.61 681.54 134.6 683.37 134.69 C 685.2 134.77 687.39 135.23 689.62 135.28 C 691.85 135.32 694.75 134.99 696.77 134.95 C 698.79 134.91 700.92 135.03 701.75 135.05" fill="none" stroke="#D97706" stroke-width="3" stroke-linecap="round" stroke-linejoin="round" opacity="1.0"/>
  <path d="M 612.49 134.4 C 613.39 134.52 616.15 135.24 617.9 135.15 C 619.65 135.05 620.79 133.98 622.98 133.83 C 625.18 133.68 629.02 134.18 631.08 134.27 C 633.14 134.36 633.64 134.19 635.34 134.37 C 637.04 134.55 639.1 135.19 641.27 135.33 C 643.44 135.47 646.42 135.06 648.37 135.2 C 650.32 135.35 651.17 136.41 652.96 136.2 C 654.76 135.99 656.87 134.07 659.15 133.93 C 661.44 133.79 664.39 135.17 666.67 135.38 C 668.96 135.59 670.74 135.33 672.85 135.18 C 674.96 135.04 677.63 134.5 679.34 134.49 C 681.04 134.48 681.3 135.19 683.08 135.13 C 684.87 135.06 688.05 134.16 690.05 134.1 C 692.05 134.04 693.09 134.77 695.08 134.79 C 697.07 134.81 700.85 134.32 702 134.23" fill="none" stroke="#D97706" stroke-width="2.1" stroke-linecap="round" stroke-linejoin="round" opacity="0.45"/>
  <path d="M 708 135 L 697.96 139.49 L 697.96 130.51 Z" fill="#D97706"/>
  <path d="M 380.94 229.84 C 385.28 230.19 398.65 231.81 407.56 231.98 C 416.46 232.14 425.47 230.76 434.36 230.82 C 443.26 230.87 452.35 232.14 460.91 232.3 C 469.48 232.46 477.06 232 485.76 231.77 C 494.45 231.54 503.96 231.24 513.08 230.9 C 522.21 230.57 531.75 229.94 540.5 229.76 C 549.24 229.57 556.82 229.45 565.53 229.82 C 574.25 230.19 584 231.65 592.78 231.98 C 601.57 232.31 613.32 231.79 618.22 231.78 C 623.12 231.77 620.8 231.28 622.17 231.92 C 623.54 232.56 625.21 234.6 626.45 235.61 C 627.68 236.63 629.19 236.69 629.59 238 C 630 239.31 628.6 242.71 628.87 243.5 C 629.14 244.29 631.09 237.78 631.21 242.74 C 631.34 247.7 629.72 262.6 629.64 273.26 C 629.56 283.93 630.73 296.02 630.76 306.73 C 630.79 317.44 630.12 327.09 629.83 337.53 C 629.53 347.98 629.25 363.5 629.01 369.39 C 628.77 375.28 628.57 371.69 628.37 372.86 C 628.18 374.03 629.01 375.06 627.83 376.42 C 626.66 377.78 622.71 380.33 621.32 381.03 C 619.93 381.73 619.82 380.71 619.5 380.63 C 619.18 380.56 624.2 380.59 619.4 380.59 C 614.59 380.59 599.69 380.5 590.69 380.63 C 581.69 380.76 573.81 381.18 565.39 381.36 C 556.97 381.53 548.9 381.89 540.18 381.66 C 531.46 381.44 521.77 380.05 513.06 380.02 C 504.35 379.99 496.78 381.09 487.92 381.47 C 479.06 381.85 468.79 382.35 459.9 382.31 C 451.02 382.27 443.06 381.59 434.63 381.23 C 426.2 380.88 417.88 380.26 409.31 380.16 C 400.73 380.06 388.31 380.47 383.19 380.63 C 378.06 380.79 380.07 381.85 378.56 381.13 C 377.04 380.41 375.45 377.52 374.11 376.32 C 372.76 375.13 371.37 375.21 370.47 373.98 C 369.56 372.74 368.55 369.63 368.69 368.9 C 368.83 368.18 371.18 374.66 371.32 369.63 C 371.46 364.6 369.78 349.58 369.54 338.74 C 369.3 327.9 370.04 315.38 369.88 304.61 C 369.71 293.84 368.31 284.43 368.54 274.1 C 368.76 263.77 370.81 248.65 371.23 242.62 C 371.65 236.59 370.66 239.43 371.06 237.92 C 371.47 236.41 372.82 234.56 373.66 233.54 C 374.51 232.53 374.81 232.45 376.13 231.83 C 377.44 231.22 380.76 230.18 381.56 229.85 C 382.37 229.52 376.61 229.48 380.94 229.84 Z" fill="#1F2937" opacity="0.13"/>
  <path d="M 376.23 224.85 C 380.68 224.93 395.01 224.88 403.99 224.83 C 412.96 224.78 421.46 224.61 430.08 224.57 C 438.7 224.53 446.97 224.39 455.72 224.59 C 464.47 224.8 473.88 225.82 482.58 225.8 C 491.28 225.78 499.33 224.62 507.91 224.46 C 516.49 224.31 525.19 224.63 534.06 224.85 C 542.94 225.06 552.42 225.76 561.15 225.74 C 569.89 225.73 577.94 224.84 586.46 224.75 C 594.98 224.65 607.09 224.88 612.29 225.17 C 617.48 225.45 616.02 225.96 617.63 226.44 C 619.24 226.93 621.01 227 621.95 228.08 C 622.89 229.16 622.82 231.31 623.27 232.91 C 623.72 234.51 624.43 236.88 624.66 237.67 C 624.9 238.46 624.5 232.38 624.69 237.65 C 624.88 242.92 625.85 258.81 625.8 269.29 C 625.75 279.77 624.53 290.31 624.39 300.54 C 624.25 310.77 624.8 320.4 624.96 330.68 C 625.13 340.97 625.52 356.11 625.35 362.27 C 625.18 368.43 624.62 366.23 623.93 367.63 C 623.25 369.04 622.16 369.71 621.23 370.68 C 620.29 371.66 619.73 372.65 618.32 373.48 C 616.92 374.32 613.59 375.35 612.82 375.72 C 612.05 376.09 618.13 375.74 613.7 375.69 C 609.27 375.64 594.97 375.57 586.24 375.43 C 577.52 375.28 569.95 374.83 561.35 374.8 C 552.75 374.77 543.51 375.34 534.66 375.25 C 525.82 375.16 517.06 374.33 508.27 374.26 C 499.48 374.2 490.65 374.85 481.92 374.87 C 473.18 374.9 464.73 374.52 455.87 374.42 C 447.01 374.32 437.66 374.07 428.75 374.27 C 419.85 374.47 410.99 375.35 402.45 375.61 C 393.91 375.86 382.39 375.99 377.5 375.8 C 372.61 375.61 374.49 375.22 373.12 374.48 C 371.74 373.73 370.53 372.43 369.25 371.31 C 367.98 370.2 366.15 369.29 365.47 367.78 C 364.79 366.26 365.26 363.02 365.18 362.22 C 365.09 361.42 364.89 368.21 364.95 362.96 C 365.01 357.71 365.66 341.19 365.52 330.71 C 365.38 320.24 364.13 310.34 364.1 300.1 C 364.08 289.86 365.23 279.89 365.35 269.26 C 365.46 258.64 364.85 242.55 364.8 236.37 C 364.75 230.2 364.54 233.45 365.06 232.21 C 365.58 230.97 366.62 230.06 367.91 228.94 C 369.19 227.83 371.19 226.27 372.75 225.51 C 374.31 224.75 376.67 224.47 377.25 224.36 C 377.83 224.25 371.77 224.77 376.23 224.85 Z" fill="#FCE0E6" opacity="1"/>
  <path d="M 375.6 223.93 C 379.89 223.63 392.86 224.23 401.78 224.56 C 410.69 224.89 420.22 225.66 429.09 225.92 C 437.96 226.19 446.1 226.43 454.99 226.16 C 463.87 225.88 473.51 224.47 482.39 224.27 C 491.28 224.08 499.44 224.65 508.3 225 C 517.15 225.36 526.79 226.54 535.51 226.42 C 544.23 226.29 551.81 224.39 560.61 224.26 C 569.4 224.13 579.43 225.34 588.28 225.64 C 597.12 225.94 608.9 225.79 613.68 226.06 C 618.46 226.33 615.57 227.08 616.96 227.27 C 618.34 227.45 620.96 226.39 621.99 227.17 C 623.01 227.95 622.55 230.47 623.09 231.96 C 623.63 233.45 625.09 235.43 625.24 236.11 C 625.4 236.8 624.23 230.73 624 236.07 C 623.77 241.42 623.52 257.37 623.85 268.19 C 624.18 279.01 625.99 290.22 625.98 300.99 C 625.96 311.75 624.08 322.34 623.76 332.76 C 623.44 343.18 623.97 357.75 624.06 363.52 C 624.14 369.29 624.55 365.96 624.27 367.39 C 623.99 368.82 623.61 370.97 622.37 372.13 C 621.13 373.28 618.61 374.03 616.85 374.33 C 615.1 374.64 612.61 373.82 611.83 373.94 C 611.06 374.05 616.51 374.68 612.21 375.02 C 607.91 375.36 594.89 376.05 586.03 375.99 C 577.18 375.94 567.54 374.72 559.1 374.69 C 550.66 374.65 543.87 375.83 535.39 375.78 C 526.91 375.72 517.03 374.45 508.24 374.36 C 499.45 374.28 491.41 375 482.64 375.26 C 473.87 375.51 464.53 375.98 455.61 375.88 C 446.68 375.78 437.95 375.04 429.11 374.67 C 420.27 374.3 411.38 373.67 402.58 373.67 C 393.79 373.67 381.38 374.65 376.35 374.67 C 371.31 374.7 373.75 374.51 372.38 373.83 C 371.01 373.15 368.98 371.77 368.13 370.59 C 367.28 369.41 367.78 368.2 367.28 366.76 C 366.78 365.32 365.72 362.46 365.13 361.95 C 364.55 361.43 363.8 368.84 363.79 363.65 C 363.79 358.47 364.67 341.55 365.08 330.83 C 365.49 320.11 366.35 309.81 366.25 299.33 C 366.15 288.84 364.67 278.26 364.46 267.94 C 364.25 257.63 364.71 243.58 364.98 237.43 C 365.26 231.27 365.32 232.57 366.1 231.02 C 366.88 229.47 368.82 229.14 369.65 228.12 C 370.49 227.1 370.06 225.17 371.12 224.88 C 372.19 224.59 375.31 226.52 376.05 226.36 C 376.8 226.2 371.31 224.23 375.6 223.93 Z" fill="none" stroke="#1F2937" stroke-width="3" stroke-linecap="round" stroke-linejoin="round" opacity="1.0"/>
  <path d="M 378.42 224.05 C 382.76 223.55 392.3 223.51 401 223.87 C 409.71 224.23 421.65 226.4 430.65 226.22 C 439.65 226.04 446.5 223.18 455.01 222.8 C 463.51 222.41 472.84 223.84 481.68 223.92 C 490.52 224 499.55 223.16 508.07 223.28 C 516.58 223.4 524.13 224.42 532.75 224.64 C 541.37 224.85 550.58 224.55 559.77 224.58 C 568.97 224.61 578.98 224.76 587.94 224.81 C 596.91 224.85 608.62 224.28 613.56 224.84 C 618.51 225.4 616.51 227.28 617.61 228.15 C 618.7 229.03 619.24 229.28 620.11 230.08 C 620.99 230.88 622.12 231.52 622.86 232.97 C 623.61 234.41 624.37 238.17 624.6 238.75 C 624.82 239.32 623.85 231.19 624.22 236.41 C 624.59 241.63 626.93 259.6 626.83 270.06 C 626.73 280.53 624 289.21 623.61 299.21 C 623.22 309.22 624.57 319.18 624.47 330.1 C 624.36 341.02 622.79 358.69 622.99 364.72 C 623.19 370.75 626.26 365.46 625.66 366.26 C 625.07 367.05 620.88 368.37 619.41 369.5 C 617.93 370.62 618.26 372.4 616.83 373.02 C 615.4 373.65 611.73 372.58 610.84 373.27 C 609.94 373.95 615.3 377.01 611.44 377.13 C 607.59 377.25 595.92 374.53 587.7 373.97 C 579.48 373.42 571.26 373.33 562.12 373.8 C 552.98 374.27 541.5 376.69 532.85 376.78 C 524.21 376.87 518.44 374.58 510.27 374.35 C 502.1 374.11 492.94 375.42 483.83 375.38 C 474.72 375.33 464.63 374.27 455.6 374.08 C 446.57 373.9 438.46 373.86 429.64 374.25 C 420.82 374.64 411.74 376.42 402.69 376.43 C 393.65 376.44 380.36 374.92 375.39 374.32 C 370.43 373.72 373.99 373.26 372.9 372.82 C 371.81 372.39 370.28 372.68 368.86 371.72 C 367.43 370.76 365.13 368.45 364.36 367.06 C 363.58 365.67 363.8 364.09 364.2 363.38 C 364.6 362.68 366.9 368.32 366.77 362.84 C 366.63 357.37 363.34 341.28 363.39 330.54 C 363.45 319.8 366.82 308.73 367.1 298.39 C 367.38 288.05 365.45 278.89 365.08 268.47 C 364.72 258.05 364.76 242.14 364.94 235.87 C 365.11 229.61 365.41 232.27 366.12 230.89 C 366.83 229.51 367.8 228.82 369.19 227.61 C 370.59 226.41 373.5 223.81 374.47 223.68 C 375.44 223.55 374.34 226.78 375 226.84 C 375.66 226.9 374.09 224.54 378.42 224.05 Z" fill="none" stroke="#1F2937" stroke-width="2.1" stroke-linecap="round" stroke-linejoin="round" opacity="0.45"/>
  <path d="M 507.51 224.32 C 512.29 224.43 527.32 225.27 537.17 225.24 C 547.01 225.21 556.94 224.13 566.59 224.16 C 576.24 224.19 585.26 225.26 595.06 225.4 C 604.86 225.54 620.51 224.93 625.36 225 C 630.22 225.06 624.14 225.73 624.18 225.78 C 624.22 225.84 625.55 225.44 625.63 225.33 C 625.7 225.21 624.86 225.23 624.63 225.08 C 624.4 224.92 624.19 224.27 624.24 224.39 C 624.29 224.51 624.86 220.71 624.94 225.79 C 625.02 230.87 624.73 245.09 624.74 254.86 C 624.75 264.62 624.97 274.46 624.98 284.38 C 625 294.3 624.72 304.37 624.82 314.38 C 624.91 324.38 625.66 334.22 625.56 344.4 C 625.46 354.58 624.38 370.34 624.24 375.47 C 624.1 380.59 624.51 375.34 624.72 375.16 C 624.93 374.98 625.4 374.34 625.51 374.4 C 625.62 374.47 625.6 375.39 625.4 375.55 C 625.2 375.7 624.5 375.54 624.34 375.33 C 624.17 375.13 629.07 374.31 624.4 374.3 C 619.73 374.3 606 375.13 596.29 375.3 C 586.58 375.47 576.04 375.51 566.14 375.31 C 556.24 375.11 546.67 374.08 536.9 374.11 C 527.13 374.13 512.33 375.39 507.53 375.45 C 502.73 375.52 507.94 374.69 508.09 374.49 C 508.24 374.29 508.45 374.06 508.44 374.27 C 508.42 374.48 507.93 375.6 507.99 375.74 C 508.05 375.88 508.72 375.17 508.8 375.11 C 508.89 375.05 508.5 380.29 508.5 375.41 C 508.49 370.53 508.92 355.83 508.78 345.83 C 508.64 335.83 507.82 325.56 507.64 315.42 C 507.46 305.28 507.53 295.05 507.71 285.01 C 507.89 274.97 508.64 265.3 508.7 255.18 C 508.75 245.06 508.19 229.46 508.04 224.29 C 507.89 219.12 507.66 224.18 507.77 224.17 C 507.88 224.15 508.53 223.94 508.7 224.19 C 508.87 224.44 508.83 225.62 508.8 225.68 C 508.77 225.74 508.74 224.78 508.52 224.55 C 508.31 224.33 502.74 224.2 507.51 224.32 Z" fill="#D8F5F0" opacity="0.9"/>
  <path d="M 508.08 225.2 C 507.91 229.31 507 241.61 507.07 249.86 C 507.14 258.12 508.44 266.41 508.51 274.71 C 508.58 283.02 507.65 291.55 507.48 299.7 C 507.32 307.85 507.58 315.39 507.52 323.63 C 507.46 331.87 507.2 340.37 507.12 349.15 C 507.05 357.93 507.07 371.79 507.06 376.32" fill="none" stroke="#1F2937" stroke-width="5" stroke-linecap="round" stroke-linejoin="round" opacity="1.0"/>
  <path d="M 506.88 227.14 C 507.18 231.06 508.43 242.51 508.66 250.64 C 508.9 258.77 508.52 267.42 508.27 275.91 C 508.02 284.4 507.07 293.66 507.16 301.57 C 507.24 309.47 509.02 315.51 508.79 323.34 C 508.56 331.16 505.93 339.94 505.8 348.52 C 505.67 357.09 507.66 370.41 508.04 374.79" fill="none" stroke="#1F2937" stroke-width="3.5" stroke-linecap="round" stroke-linejoin="round" opacity="0.45"/>
  <path d="M 529.37 299.97 C 529.48 301.81 529.77 304.07 529.23 305.94 C 528.68 307.8 527.03 309.51 526.09 311.17 C 525.14 312.82 525.01 314.55 523.57 315.88 C 522.12 317.21 519.67 318.02 517.44 319.14 C 515.2 320.25 512.3 322.04 510.15 322.57 C 508 323.1 506.45 322.85 504.56 322.29 C 502.68 321.74 500.56 320.24 498.85 319.24 C 497.13 318.25 495.88 317.59 494.28 316.34 C 492.68 315.08 490.58 313.42 489.25 311.71 C 487.92 309.99 486.95 308.12 486.31 306.04 C 485.68 303.96 485.3 301.31 485.42 299.21 C 485.53 297.11 486.43 295.43 487.01 293.44 C 487.59 291.45 487.98 288.95 488.9 287.26 C 489.83 285.57 490.99 284.67 492.57 283.31 C 494.14 281.96 496.39 280.15 498.36 279.13 C 500.32 278.12 502.33 277.24 504.35 277.25 C 506.38 277.26 508.35 278.56 510.5 279.19 C 512.66 279.82 515.27 280.4 517.26 281 C 519.25 281.6 521.03 281.53 522.44 282.79 C 523.85 284.05 524.72 286.56 525.74 288.58 C 526.75 290.6 527.92 293.02 528.53 294.92 C 529.13 296.82 529.25 298.14 529.37 299.97 Z" fill="#FFFFFF" opacity="1"/>
  <path d="M 528.32 298.03 C 527.7 300.22 527.22 305.18 527.15 307.68 C 527.08 310.17 528.87 311.42 527.9 313 C 526.93 314.58 523.07 316.07 521.33 317.16 C 519.59 318.24 519.08 318.82 517.44 319.52 C 515.8 320.22 513.43 321.09 511.48 321.37 C 509.54 321.64 507.98 321.29 505.77 321.17 C 503.57 321.04 499.97 321.12 498.26 320.63 C 496.55 320.14 496.89 319.87 495.53 318.23 C 494.17 316.59 491.31 313.04 490.09 310.8 C 488.86 308.57 488.81 306.65 488.19 304.82 C 487.56 302.98 486.28 301.87 486.34 299.79 C 486.4 297.72 488.33 294.62 488.56 292.38 C 488.78 290.13 486.66 287.61 487.7 286.33 C 488.74 285.06 492.67 286.12 494.78 284.74 C 496.88 283.37 498.63 278.85 500.35 278.07 C 502.06 277.29 503.54 279.77 505.07 280.07 C 506.6 280.37 507.45 279.9 509.51 279.87 C 511.56 279.84 515.32 279.5 517.41 279.9 C 519.49 280.3 520.72 281.03 522.01 282.26 C 523.3 283.49 523.65 285.25 525.13 287.3 C 526.6 289.35 530.33 292.75 530.87 294.54 C 531.4 296.32 528.94 295.84 528.32 298.03 Z" fill="none" stroke="#1F2937" stroke-width="3" stroke-linecap="round" stroke-linejoin="round" opacity="1.0"/>
  <path d="M 530.16 297.29 C 530.03 299.71 527.36 306.17 526.6 309 C 525.84 311.83 526.28 313.14 525.58 314.28 C 524.89 315.43 523.43 314.45 522.41 315.86 C 521.4 317.27 521.02 321.46 519.49 322.74 C 517.96 324.03 515.49 323.49 513.23 323.58 C 510.96 323.67 508.28 324.33 505.9 323.27 C 503.52 322.21 500.56 317.86 498.95 317.24 C 497.34 316.61 497.84 320.89 496.22 319.51 C 494.6 318.14 491.09 311.26 489.23 308.98 C 487.36 306.71 485.27 307.5 485.01 305.87 C 484.75 304.25 487 301.04 487.68 299.24 C 488.36 297.45 488.45 296.87 489.07 295.09 C 489.7 293.31 490.53 290.67 491.43 288.56 C 492.34 286.44 493.34 283.45 494.51 282.38 C 495.68 281.32 496.87 282.92 498.46 282.17 C 500.05 281.42 501.47 278.17 504.03 277.87 C 506.6 277.57 511.83 280.47 513.86 280.37 C 515.89 280.26 514.46 277.12 516.21 277.24 C 517.96 277.35 522.21 278.85 524.35 281.07 C 526.49 283.29 528.53 288.31 529.04 290.54 C 529.55 292.78 527.22 293.34 527.4 294.46 C 527.59 295.59 530.3 294.86 530.16 297.29 Z" fill="none" stroke="#1F2937" stroke-width="2.1" stroke-linecap="round" stroke-linejoin="round" opacity="0.45"/>
  <text x="500" y="350" font-family="Chalkboard SE, Comic Sans MS, Comic Neue, Segoe Print, Bradley Hand, cursive" font-size="22" fill="#475569" text-anchor="middle">dividerPosition controls both clips</text>
</svg>
