<svg xmlns="http://www.w3.org/2000/svg" width="1000" height="480" viewBox="0 0 1000 480">
  <rect width="1000" height="480" fill="#FFFFFF"/>
  <path d="M 78.45 39.68 C 83.14 39.76 96.35 40.52 104.84 40.71 C 113.33 40.9 120.55 40.56 129.41 40.81 C 138.28 41.05 149.05 42.17 158.03 42.16 C 167 42.15 174.4 40.7 183.24 40.75 C 192.08 40.8 201.77 42.59 211.06 42.44 C 220.34 42.29 230.17 40.23 238.95 39.85 C 247.73 39.46 255.11 40.11 263.73 40.14 C 272.34 40.18 281.64 39.69 290.64 40.06 C 299.65 40.42 308.68 42.37 317.75 42.33 C 326.81 42.29 336.01 39.92 345.03 39.84 C 354.05 39.76 363.13 41.47 371.84 41.84 C 380.55 42.21 388.22 42.38 397.28 42.06 C 406.34 41.74 417.2 39.94 426.2 39.92 C 435.19 39.9 442.49 41.52 451.26 41.94 C 460.03 42.37 469.8 42.49 478.83 42.46 C 487.85 42.43 496.66 41.87 505.4 41.75 C 514.15 41.63 522.65 42.06 531.3 41.74 C 539.95 41.42 548.1 39.99 557.32 39.83 C 566.54 39.67 577.7 40.59 586.63 40.8 C 595.56 41.01 602.11 40.97 610.89 41.09 C 619.67 41.21 630.13 41.47 639.3 41.51 C 648.48 41.54 656.97 41.13 665.93 41.29 C 674.89 41.44 684.31 42.65 693.05 42.44 C 701.79 42.23 709.76 40.28 718.37 40.02 C 726.98 39.76 735.57 40.52 744.73 40.9 C 753.89 41.27 764.05 42.2 773.31 42.27 C 782.57 42.35 791.61 41.77 800.27 41.36 C 808.92 40.96 816.65 39.88 825.22 39.83 C 833.8 39.77 842.85 40.59 851.73 41.03 C 860.61 41.47 869.35 42.59 878.5 42.47 C 887.64 42.36 897.29 40.41 906.6 40.34 C 915.9 40.28 929.35 41.86 934.33 42.06 C 939.31 42.26 935.06 41.13 936.49 41.52 C 937.92 41.92 941.54 43.22 942.9 44.44 C 944.27 45.66 944.15 47.45 944.7 48.83 C 945.25 50.21 946.39 52.07 946.2 52.72 C 946.01 53.37 943.75 48.3 943.56 52.72 C 943.37 57.14 944.95 70.3 945.05 79.24 C 945.14 88.17 944.19 97.07 944.14 106.31 C 944.09 115.55 944.77 125.64 944.74 134.68 C 944.72 143.72 943.85 151.94 943.99 160.56 C 944.14 169.18 945.41 177.61 945.59 186.39 C 945.78 195.16 945.08 203.98 945.1 213.2 C 945.13 222.41 945.86 232.79 945.76 241.68 C 945.65 250.58 944.56 257.67 944.48 266.55 C 944.39 275.43 944.98 285.68 945.22 294.94 C 945.47 304.2 945.83 313.18 945.97 322.11 C 946.11 331.03 946.25 339.75 946.05 348.48 C 945.85 357.22 944.76 365.43 944.76 374.51 C 944.77 383.6 945.93 393.96 946.07 402.99 C 946.2 412.02 945.99 423.75 945.55 428.68 C 945.1 433.6 944.27 431.2 943.4 432.56 C 942.53 433.91 941.39 435.61 940.31 436.8 C 939.24 437.99 938.1 439.19 936.94 439.68 C 935.79 440.17 933.99 439.6 933.39 439.75 C 932.79 439.91 937.89 440.56 933.35 440.6 C 928.82 440.64 914.9 439.94 906.17 440 C 897.44 440.06 889.85 440.65 880.97 440.96 C 872.09 441.27 862.09 441.7 852.89 441.88 C 843.7 442.05 834.61 442 825.83 442 C 817.05 441.99 809.31 442.24 800.21 441.86 C 791.11 441.48 780.3 439.75 771.23 439.71 C 762.16 439.67 754.41 441.44 745.78 441.61 C 737.16 441.78 728.28 441.07 719.48 440.74 C 710.67 440.4 701.98 439.65 692.96 439.59 C 683.94 439.54 674.48 440.23 665.35 440.41 C 656.22 440.59 646.91 440.72 638.19 440.7 C 629.47 440.67 621.93 440.06 613.03 440.27 C 604.13 440.48 593.92 442.03 584.77 441.96 C 575.62 441.88 566.78 439.9 558.15 439.8 C 549.52 439.7 541.65 440.92 532.99 441.36 C 524.32 441.79 515.02 442.27 506.14 442.41 C 497.27 442.55 489.04 442.2 479.72 442.19 C 470.39 442.17 459.6 442.33 450.2 442.34 C 440.8 442.34 431.84 442.6 423.32 442.22 C 414.8 441.85 407.8 440.28 399.09 440.09 C 390.38 439.9 380.11 440.87 371.07 441.08 C 362.03 441.29 353.67 441.21 344.85 441.34 C 336.02 441.47 327.15 441.98 318.11 441.88 C 309.07 441.79 299.61 441.01 290.6 440.77 C 281.59 440.53 272.93 440.6 264.06 440.42 C 255.19 440.25 246.32 439.84 237.37 439.72 C 228.42 439.6 219.18 439.31 210.38 439.73 C 201.58 440.14 193.45 442.02 184.58 442.2 C 175.71 442.38 166.29 440.82 157.16 440.81 C 148.04 440.8 138.63 442.21 129.81 442.15 C 120.98 442.08 112.93 440.78 104.21 440.41 C 95.5 440.03 82.62 439.82 77.53 439.9 C 72.44 439.98 75.03 441.17 73.69 440.91 C 72.35 440.64 70.89 439.64 69.48 438.31 C 68.07 436.98 65.9 434.41 65.22 432.94 C 64.54 431.47 65.44 430.15 65.42 429.51 C 65.39 428.86 65.22 433.65 65.09 429.07 C 64.95 424.5 64.81 411.2 64.62 402.04 C 64.44 392.88 63.89 382.86 63.98 374.09 C 64.07 365.33 65.24 358.03 65.17 349.44 C 65.11 340.86 63.57 331.83 63.6 322.58 C 63.62 313.34 65.23 303.07 65.33 294 C 65.43 284.93 64.18 277 64.2 268.17 C 64.21 259.34 65.37 249.94 65.42 241.01 C 65.47 232.07 64.64 223.53 64.48 214.57 C 64.33 205.6 64.33 196.37 64.49 187.22 C 64.66 178.07 65.57 168.58 65.47 159.67 C 65.38 150.77 64.06 142.8 63.91 133.8 C 63.76 124.8 64.51 114.56 64.57 105.67 C 64.63 96.79 64.41 89.15 64.28 80.47 C 64.15 71.78 63.33 59.02 63.79 53.56 C 64.24 48.1 66.22 49.22 67.02 47.72 C 67.82 46.23 67.59 45.74 68.57 44.58 C 69.54 43.42 71.53 41.5 72.88 40.77 C 74.23 40.05 75.74 40.44 76.67 40.26 C 77.6 40.07 73.75 39.61 78.45 39.68 Z" fill="#1F2937" opacity="0.13"/>
  <path d="M 71.67 34.96 C 76.18 34.88 90.19 34.59 99.09 34.66 C 107.99 34.73 116.37 35.18 125.09 35.37 C 133.81 35.56 142.55 35.87 151.4 35.8 C 160.25 35.72 169.17 34.96 178.21 34.92 C 187.24 34.88 196.41 35.43 205.58 35.55 C 214.76 35.68 224.2 35.71 233.26 35.67 C 242.32 35.63 251.21 35.36 259.95 35.29 C 268.69 35.23 276.77 35.48 285.7 35.3 C 294.63 35.12 304.5 34.13 313.54 34.2 C 322.57 34.27 331.2 35.63 339.89 35.73 C 348.59 35.82 356.75 34.87 365.72 34.75 C 374.68 34.62 384.71 34.94 393.68 34.98 C 402.65 35.02 410.64 35.06 419.52 35.01 C 428.39 34.96 438.05 34.73 446.91 34.68 C 455.77 34.63 463.9 34.77 472.67 34.71 C 481.43 34.65 490.38 34.32 499.5 34.32 C 508.61 34.31 518.31 34.55 527.36 34.69 C 536.41 34.83 544.89 35.18 553.8 35.15 C 562.71 35.13 572.03 34.54 580.84 34.53 C 589.65 34.53 597.87 35.1 606.66 35.12 C 615.46 35.14 624.53 34.77 633.6 34.66 C 642.68 34.55 652.16 34.33 661.14 34.45 C 670.12 34.58 678.64 35.29 687.51 35.41 C 696.37 35.53 705.42 35.22 714.33 35.18 C 723.24 35.14 732.13 35.1 740.95 35.17 C 749.76 35.23 758.39 35.51 767.21 35.55 C 776.02 35.59 784.78 35.52 793.84 35.41 C 802.9 35.29 812.71 34.86 821.56 34.85 C 830.41 34.84 838.24 35.2 846.96 35.32 C 855.67 35.45 864.79 35.66 873.85 35.59 C 882.9 35.53 892.32 34.93 901.3 34.93 C 910.28 34.93 922.49 35.47 927.74 35.6 C 932.98 35.73 931.39 35.39 932.77 35.73 C 934.16 36.07 935.07 36.44 936.02 37.62 C 936.98 38.8 937.8 41.12 938.51 42.81 C 939.22 44.49 939.92 47.14 940.31 47.73 C 940.7 48.32 940.99 41.86 940.85 46.34 C 940.7 50.82 939.41 65.5 939.42 74.6 C 939.42 83.69 940.75 91.94 940.89 100.9 C 941.04 109.85 940.44 119.3 940.27 128.32 C 940.1 137.35 940.02 146.1 939.89 155.04 C 939.76 163.98 939.43 173.19 939.5 181.96 C 939.57 190.73 940.29 198.76 940.32 207.65 C 940.35 216.54 939.71 226.17 939.68 235.3 C 939.65 244.42 940.11 253.65 940.14 262.4 C 940.18 271.16 940.04 279.04 939.89 287.84 C 939.75 296.63 939.27 305.93 939.28 315.17 C 939.28 324.41 939.77 334.24 939.91 343.27 C 940.04 352.3 940.05 360.58 940.09 369.33 C 940.13 378.07 940.14 386.81 940.13 395.75 C 940.12 404.7 940.3 417.81 940.04 423.01 C 939.78 428.2 939.14 425.58 938.57 426.93 C 937.99 428.28 937.55 429.78 936.6 431.13 C 935.65 432.47 934.24 434.4 932.87 434.98 C 931.5 435.57 929.26 434.73 928.37 434.62 C 927.49 434.52 931.95 434.21 927.56 434.34 C 923.17 434.48 910.81 435.47 902.01 435.44 C 893.2 435.4 883.73 434.31 874.73 434.13 C 865.74 433.95 857 434.27 848.04 434.35 C 839.08 434.43 829.98 434.4 820.97 434.58 C 811.96 434.77 802.72 435.39 793.95 435.46 C 785.18 435.53 777.25 435.11 768.33 434.99 C 759.4 434.88 749.62 434.83 740.42 434.77 C 731.22 434.71 721.89 434.68 713.14 434.62 C 704.39 434.55 696.58 434.4 687.91 434.39 C 679.25 434.38 670.22 434.31 661.15 434.55 C 652.07 434.79 642.47 435.61 633.48 435.83 C 624.49 436.05 616.02 435.98 607.22 435.86 C 598.43 435.74 589.62 435.2 580.69 435.13 C 571.76 435.07 562.52 435.54 553.64 435.46 C 544.76 435.37 536.51 434.59 527.43 434.61 C 518.35 434.63 508.28 435.65 499.17 435.59 C 490.05 435.52 481.67 434.25 472.75 434.23 C 463.82 434.22 454.39 435.42 445.62 435.51 C 436.84 435.59 429.01 434.88 420.12 434.76 C 411.23 434.64 401.28 434.88 392.26 434.78 C 383.24 434.68 374.91 434.11 365.98 434.13 C 357.05 434.15 347.56 434.89 338.66 434.89 C 329.77 434.9 321.54 434.21 312.62 434.16 C 303.7 434.1 294.01 434.43 285.15 434.55 C 276.28 434.68 268.14 434.87 259.45 434.93 C 250.77 434.98 242.11 434.93 233.05 434.9 C 223.98 434.87 214.2 434.79 205.07 434.74 C 195.94 434.69 187.2 434.55 178.27 434.6 C 169.34 434.64 160.31 434.9 151.47 435.01 C 142.64 435.13 133.9 435.2 125.25 435.28 C 116.6 435.37 108.49 435.57 99.59 435.51 C 90.68 435.46 77.26 435.33 71.82 434.96 C 66.38 434.59 68.42 433.84 66.94 433.29 C 65.45 432.74 63.95 432.54 62.9 431.68 C 61.85 430.81 61.01 429.66 60.65 428.08 C 60.28 426.5 60.78 422.98 60.73 422.2 C 60.67 421.41 60.41 427.68 60.33 423.35 C 60.25 419.02 60.22 405.36 60.24 396.22 C 60.26 387.07 60.65 377.37 60.46 368.48 C 60.27 359.58 59.3 351.62 59.11 342.85 C 58.92 334.08 59.22 324.99 59.33 315.85 C 59.43 306.71 59.5 296.87 59.75 288 C 60 279.13 60.86 271.59 60.82 262.63 C 60.79 253.67 59.65 243.31 59.55 234.22 C 59.44 225.13 60.2 216.95 60.18 208.1 C 60.15 199.26 59.3 190.11 59.38 181.14 C 59.46 172.17 60.56 163.22 60.63 154.29 C 60.71 145.36 59.9 136.62 59.85 127.57 C 59.79 118.52 60.39 108.82 60.33 99.97 C 60.27 91.12 59.54 83.26 59.48 74.47 C 59.43 65.69 59.7 52.56 59.99 47.26 C 60.28 41.95 60.59 44.25 61.22 42.66 C 61.86 41.06 62.67 38.7 63.81 37.67 C 64.94 36.64 66.69 36.91 68.05 36.49 C 69.41 36.06 71.38 35.38 71.98 35.13 C 72.58 34.87 67.15 35.04 71.67 34.96 Z" fill="#FFFFFF" opacity="1"/>
  <path d="M 71.14 35.23 C 75.56 35.5 90.85 35.88 100.04 35.87 C 109.23 35.85 117.45 35.12 126.27 35.14 C 135.09 35.16 143.99 36.22 152.97 35.98 C 161.95 35.74 171.26 33.74 180.13 33.7 C 189 33.65 197.56 35.62 206.19 35.71 C 214.81 35.79 223.27 34.32 231.89 34.2 C 240.5 34.07 249.06 34.94 257.86 34.98 C 266.67 35.01 275.69 34.43 284.73 34.38 C 293.77 34.34 303.09 34.74 312.11 34.73 C 321.12 34.73 329.75 34.41 338.82 34.37 C 347.89 34.33 357.32 34.42 366.51 34.5 C 375.71 34.59 384.91 34.98 393.99 34.9 C 403.07 34.82 412.19 33.82 421.01 34.03 C 429.82 34.24 438.29 35.85 446.87 36.17 C 455.45 36.5 463.54 35.99 472.49 36 C 481.44 36.01 491.7 36.59 500.57 36.24 C 509.44 35.89 517.01 34.24 525.71 33.91 C 534.4 33.58 543.85 33.99 552.73 34.26 C 561.62 34.53 570.06 35.25 579.02 35.51 C 587.98 35.77 597.42 35.86 606.5 35.81 C 615.57 35.76 624.67 35.35 633.48 35.24 C 642.29 35.12 650.28 35.03 659.36 35.1 C 668.43 35.18 678.94 35.72 687.93 35.66 C 696.93 35.61 704.55 34.85 713.32 34.76 C 722.09 34.68 731.31 35.33 740.55 35.13 C 749.79 34.93 759.98 33.35 768.76 33.57 C 777.54 33.79 784.39 36.15 793.24 36.44 C 802.09 36.72 812.58 35.49 821.85 35.3 C 831.13 35.11 840.32 35.33 848.89 35.28 C 857.46 35.24 864.39 34.93 873.25 35.04 C 882.11 35.15 893.11 35.97 902.07 35.96 C 911.02 35.95 922.12 34.88 926.98 34.98 C 931.85 35.08 929.94 36.03 931.28 36.56 C 932.61 37.09 933.84 37.34 935.02 38.16 C 936.19 38.97 937.32 39.78 938.32 41.46 C 939.32 43.15 940.96 47.35 941.03 48.27 C 941.09 49.19 938.93 42.92 938.69 47 C 938.45 51.08 939.43 63.83 939.59 72.76 C 939.75 81.68 939.35 91.59 939.65 100.54 C 939.95 109.49 941.49 117.35 941.39 126.45 C 941.29 135.55 939.15 145.94 939.06 155.12 C 938.96 164.3 940.68 172.93 940.82 181.53 C 940.96 190.14 939.86 197.78 939.92 206.77 C 939.97 215.76 941.36 226.29 941.14 235.45 C 940.91 244.62 938.58 252.98 938.57 261.75 C 938.56 270.53 940.73 279.08 941.08 288.11 C 941.42 297.14 940.84 306.91 940.66 315.93 C 940.48 324.95 940.18 333.13 940.01 342.23 C 939.84 351.33 939.66 361.38 939.64 370.53 C 939.62 379.67 939.85 388.58 939.89 397.1 C 939.92 405.62 939.91 416.54 939.84 421.64 C 939.78 426.74 939.98 425.89 939.47 427.7 C 938.96 429.5 938.05 431.5 936.76 432.46 C 935.47 433.43 932.99 433.02 931.74 433.49 C 930.48 433.96 929.89 434.84 929.21 435.28 C 928.53 435.73 932.34 436.43 927.66 436.17 C 922.99 435.91 910.02 434.03 901.16 433.71 C 892.3 433.39 883.51 434.16 874.48 434.25 C 865.45 434.34 855.99 434.13 846.97 434.23 C 837.94 434.33 828.96 434.69 820.31 434.85 C 811.67 435.01 803.83 435.11 795.11 435.17 C 786.39 435.23 777.09 435.3 768.01 435.19 C 758.92 435.08 749.38 434.3 740.6 434.51 C 731.82 434.72 724.15 436.46 715.32 436.44 C 706.48 436.42 696.7 434.76 687.61 434.39 C 678.51 434.03 669.56 433.98 660.74 434.25 C 651.93 434.51 643.79 435.77 634.72 436 C 625.66 436.23 615.66 435.89 606.33 435.63 C 597.01 435.36 587.5 434.71 578.78 434.4 C 570.06 434.09 562.52 433.52 554 433.75 C 545.47 433.97 536.79 435.45 527.65 435.75 C 518.51 436.06 508.32 435.87 499.16 435.58 C 490 435.29 481.49 434.22 472.69 434.02 C 463.89 433.81 455.04 434.08 446.36 434.34 C 437.67 434.61 429.54 435.36 420.58 435.62 C 411.62 435.87 401.48 435.77 392.6 435.89 C 383.71 436 375.87 436.38 367.27 436.3 C 358.67 436.21 350.1 435.49 340.98 435.38 C 331.85 435.26 321.57 435.87 312.5 435.62 C 303.43 435.37 295.39 434.19 286.57 433.89 C 277.75 433.58 268.75 433.76 259.59 433.8 C 250.44 433.84 240.75 434.15 231.64 434.11 C 222.53 434.06 213.56 433.2 204.94 433.54 C 196.32 433.88 188.65 435.7 179.93 436.13 C 171.2 436.57 161.43 436.13 152.6 436.16 C 143.77 436.19 135.67 436.57 126.94 436.31 C 118.21 436.06 109.51 434.65 100.23 434.64 C 90.95 434.63 76.59 436.15 71.27 436.28 C 65.95 436.41 69.58 436.02 68.3 435.41 C 67.02 434.81 64.59 433.72 63.6 432.64 C 62.62 431.57 63.07 430.62 62.4 428.96 C 61.72 427.3 60.11 423.55 59.58 422.68 C 59.04 421.81 59.21 428.05 59.19 423.74 C 59.18 419.44 59.36 405.79 59.48 396.84 C 59.61 387.89 59.72 379.34 59.93 370.05 C 60.15 360.75 60.9 350.38 60.77 341.08 C 60.63 331.78 59.12 322.96 59.12 314.27 C 59.12 305.58 60.41 297.69 60.79 288.94 C 61.16 280.2 61.49 270.95 61.37 261.8 C 61.25 252.64 60.47 242.78 60.06 234.02 C 59.65 225.27 59.14 217.91 58.89 209.28 C 58.64 200.65 58.51 191.3 58.55 182.24 C 58.6 173.17 59.05 163.9 59.15 154.88 C 59.26 145.86 59 137.27 59.17 128.13 C 59.34 118.99 60.24 108.88 60.18 100.05 C 60.13 91.21 58.98 83.95 58.85 75.13 C 58.72 66.31 58.84 52.42 59.4 47.14 C 59.96 41.85 61.61 44.96 62.21 43.42 C 62.81 41.89 62.01 39.4 62.99 37.9 C 63.96 36.4 66.31 35.05 68.06 34.44 C 69.81 33.83 72.98 34.1 73.5 34.23 C 74.01 34.36 66.71 34.96 71.14 35.23 Z" fill="none" stroke="#1F2937" stroke-width="3" stroke-linecap="round" stroke-linejoin="round" opacity="1.0"/>
  <path d="M 70.57 35.29 C 75.03 35.01 92.03 32.82 100.87 32.88 C 109.72 32.95 114.86 35.66 123.65 35.68 C 132.43 35.7 144.2 33.11 153.59 32.99 C 162.98 32.87 171.32 34.44 179.98 34.97 C 188.64 35.49 196.77 36.25 205.56 36.14 C 214.34 36.03 223.6 34.15 232.68 34.31 C 241.76 34.48 251.06 37.31 260.04 37.12 C 269.02 36.92 277.43 33.27 286.55 33.17 C 295.68 33.06 306.25 36.3 314.79 36.47 C 323.33 36.64 329.28 34.43 337.78 34.18 C 346.28 33.92 356.86 34.53 365.78 34.94 C 374.7 35.35 382.48 36.59 391.3 36.62 C 400.12 36.66 409.72 35.49 418.71 35.14 C 427.69 34.79 436.07 34.3 445.2 34.54 C 454.33 34.78 464.22 36.55 473.5 36.59 C 482.78 36.62 492.01 34.97 500.89 34.75 C 509.76 34.54 518.35 35.3 526.75 35.3 C 535.15 35.29 542.42 34.67 551.29 34.72 C 560.17 34.77 570.77 35.34 580 35.59 C 589.22 35.84 598.06 36.53 606.65 36.21 C 615.23 35.88 622.3 33.62 631.51 33.65 C 640.73 33.68 652.59 35.89 661.94 36.38 C 671.29 36.86 678.72 36.77 687.62 36.56 C 696.52 36.35 706.43 35.55 715.33 35.1 C 724.23 34.66 732.17 34.15 741 33.88 C 749.82 33.62 759.17 32.97 768.27 33.49 C 777.37 34.02 786.6 36.73 795.58 37.02 C 804.56 37.3 813.71 35.71 822.14 35.21 C 830.56 34.71 837.1 34.41 846.13 34.02 C 855.16 33.62 867.4 32.68 876.34 32.85 C 885.27 33.02 891.03 34.74 899.74 35.04 C 908.45 35.34 923.44 34.55 928.6 34.63 C 933.76 34.71 929.71 34.91 930.69 35.53 C 931.67 36.14 933 37 934.49 38.32 C 935.97 39.63 938.85 42.27 939.58 43.41 C 940.3 44.55 938.86 44.89 938.83 45.16 C 938.8 45.43 939.13 39.97 939.41 45.02 C 939.69 50.07 940.07 66.34 940.53 75.48 C 940.98 84.62 942.33 91.29 942.15 99.88 C 941.97 108.46 940.14 118.07 939.47 126.98 C 938.79 135.89 937.71 144.35 938.11 153.34 C 938.51 162.32 941.81 171.8 941.85 180.9 C 941.88 190.01 938.54 198.61 938.3 207.99 C 938.06 217.37 940.26 228.49 940.39 237.17 C 940.52 245.85 938.8 251.29 939.09 260.08 C 939.37 268.87 942.29 280.4 942.08 289.92 C 941.86 299.44 938.43 308.68 937.81 317.21 C 937.18 325.73 938.17 332.27 938.31 341.05 C 938.45 349.82 938.71 360.51 938.65 369.85 C 938.6 379.2 937.87 388.39 937.99 397.1 C 938.11 405.8 939.47 416.95 939.38 422.07 C 939.29 427.2 937.55 426.19 937.44 427.84 C 937.33 429.5 939.57 430.97 938.7 432 C 937.83 433.03 934.26 433.65 932.24 434.02 C 930.22 434.4 927.6 434.39 926.59 434.26 C 925.58 434.13 930.2 433 926.17 433.24 C 922.14 433.47 910.69 435.07 902.39 435.7 C 894.09 436.32 885.29 436.98 876.36 437.01 C 867.43 437.04 858.25 436.18 848.8 435.88 C 839.35 435.58 828.91 435.31 819.65 435.21 C 810.39 435.11 801.84 435.16 793.23 435.28 C 784.62 435.39 776.79 435.8 768.01 435.9 C 759.23 436 749.29 436.39 740.58 435.88 C 731.86 435.37 724.68 433.33 715.73 432.84 C 706.79 432.34 695.79 432.32 686.89 432.91 C 678 433.51 671.38 435.71 662.37 436.41 C 653.35 437.1 642.22 437.41 632.82 437.09 C 623.42 436.76 615.07 434.97 605.94 434.47 C 596.81 433.97 587.13 433.74 578.03 434.09 C 568.94 434.43 559.92 436.55 551.38 436.56 C 542.83 436.57 535.14 434.26 526.77 434.14 C 518.4 434.02 510.32 435.43 501.18 435.83 C 492.05 436.23 480.96 436.86 471.99 436.55 C 463.01 436.25 455.82 434.08 447.34 433.99 C 438.87 433.9 430.11 435.52 421.13 436.02 C 412.15 436.51 402.52 437.48 393.48 436.96 C 384.45 436.44 375.88 433.2 366.9 432.9 C 357.92 432.6 348.32 434.6 339.6 435.16 C 330.88 435.72 323.16 436.65 314.58 436.29 C 306 435.93 297.56 433.2 288.14 432.99 C 278.72 432.79 267.14 434.94 258.06 435.07 C 248.97 435.19 242.69 433.93 233.64 433.74 C 224.6 433.54 212.99 433.75 203.79 433.89 C 194.59 434.04 187.24 434.66 178.41 434.59 C 169.59 434.51 159.81 433.74 150.84 433.46 C 141.87 433.18 133.21 432.86 124.6 432.91 C 115.99 432.96 107.6 433.09 99.18 433.77 C 90.77 434.45 79.39 436.56 74.08 436.97 C 68.77 437.37 69.29 437.14 67.32 436.21 C 65.35 435.27 63.1 433.03 62.25 431.34 C 61.4 429.66 62.29 427.25 62.2 426.11 C 62.12 424.97 62.4 424.69 61.74 424.49 C 61.09 424.29 58.32 429.49 58.26 424.91 C 58.21 420.33 61 405.96 61.43 397.03 C 61.86 388.1 61.4 380.5 60.83 371.31 C 60.26 362.12 58.18 351.2 58.01 341.9 C 57.85 332.6 59.36 324.27 59.86 315.51 C 60.36 306.76 60.99 298.35 61.04 289.38 C 61.08 280.42 60.53 270.92 60.14 261.7 C 59.76 252.48 58.49 242.81 58.73 234.08 C 58.97 225.35 61.59 217.92 61.58 209.32 C 61.56 200.72 58.64 191.85 58.64 182.46 C 58.65 173.08 61.13 162.5 61.6 153.01 C 62.07 143.52 61.83 134.32 61.46 125.53 C 61.09 116.73 59.86 108.6 59.37 100.25 C 58.89 91.91 58.22 84.59 58.57 75.46 C 58.93 66.34 61.46 50.81 61.5 45.51 C 61.54 40.22 58.78 44.67 58.81 43.7 C 58.83 42.74 59.84 40.67 61.64 39.73 C 63.44 38.79 67.52 38.95 69.6 38.09 C 71.67 37.22 73.92 35.02 74.08 34.55 C 74.24 34.09 66.1 35.57 70.57 35.29 Z" fill="none" stroke="#1F2937" stroke-width="2.1" stroke-linecap="round" stroke-linejoin="round" opacity="0.45"/>
  <path d="M 62.24 62.48 C 66.08 62.36 77 62.11 85.26 61.75 C 93.53 61.4 103.72 60.24 111.82 60.35 C 119.93 60.46 126.09 62.41 133.91 62.41 C 141.73 62.41 150.4 60.63 158.72 60.36 C 167.03 60.09 175.48 60.7 183.77 60.79 C 192.06 60.89 200.32 60.89 208.45 60.93 C 216.59 60.97 224.73 60.97 232.59 61.02 C 240.46 61.07 247.7 61.18 255.64 61.22 C 263.58 61.26 272.07 61.3 280.23 61.24 C 288.39 61.19 296.56 60.98 304.61 60.87 C 312.67 60.75 320.41 60.74 328.56 60.57 C 336.7 60.4 344.96 59.78 353.5 59.84 C 362.04 59.91 371.81 60.66 379.8 60.97 C 387.79 61.28 393.52 61.84 401.44 61.71 C 409.35 61.58 418.78 60.44 427.28 60.2 C 435.78 59.96 444.28 60.14 452.42 60.27 C 460.57 60.39 468.21 60.69 476.17 60.95 C 484.12 61.21 491.97 61.99 500.15 61.85 C 508.34 61.71 517.06 60.32 525.27 60.09 C 533.48 59.86 541.44 60.2 549.41 60.45 C 557.38 60.71 564.9 61.45 573.11 61.62 C 581.31 61.79 590.79 61.49 598.66 61.48 C 606.53 61.47 612.51 61.74 620.33 61.57 C 628.14 61.39 637.26 60.62 645.57 60.44 C 653.89 60.27 662.03 60.6 670.2 60.52 C 678.37 60.44 686.59 60.11 694.6 59.97 C 702.62 59.83 710.26 59.57 718.31 59.68 C 726.36 59.79 734.94 60.19 742.93 60.63 C 750.92 61.07 758.21 62.5 766.24 62.31 C 774.27 62.12 782.98 59.97 791.13 59.51 C 799.27 59.05 806.73 59.39 815.13 59.55 C 823.53 59.7 833.42 60.11 841.5 60.42 C 849.59 60.73 855.67 61.42 863.65 61.41 C 871.63 61.4 880.82 60.41 889.4 60.36 C 897.98 60.31 906.82 60.88 915.11 61.11 C 923.41 61.33 935.18 61.61 939.19 61.72" fill="none" stroke="#1F2937" stroke-width="2" stroke-linecap="round" stroke-linejoin="round" opacity="1.0"/>
  <path d="M 60.66 59.19 C 64.85 59.31 77.73 59.72 85.8 59.9 C 93.88 60.07 100.75 59.73 109.12 60.25 C 117.49 60.78 127.56 62.54 136.01 63.03 C 144.47 63.51 151.66 63.68 159.85 63.16 C 168.03 62.64 177.01 60.2 185.13 59.93 C 193.25 59.65 201 61.3 208.58 61.5 C 216.16 61.7 222.78 61.22 230.61 61.11 C 238.44 61 247.47 60.7 255.57 60.84 C 263.67 60.98 271.07 61.82 279.23 61.96 C 287.38 62.09 295.87 61.91 304.5 61.63 C 313.13 61.34 322.39 60.34 331 60.22 C 339.6 60.1 348.12 60.66 356.11 60.9 C 364.1 61.14 370.99 61.89 378.92 61.65 C 386.86 61.42 395.42 59.6 403.71 59.51 C 411.99 59.43 420.83 60.63 428.63 61.14 C 436.44 61.65 443.03 62.66 450.55 62.55 C 458.06 62.44 465.18 60.39 473.75 60.5 C 482.32 60.62 493.38 63.35 501.97 63.24 C 510.56 63.13 517.19 60.55 525.29 59.85 C 533.39 59.15 542.42 59.02 550.56 59.04 C 558.7 59.06 566.68 59.42 574.12 59.98 C 581.56 60.54 587.41 61.89 595.19 62.4 C 602.97 62.92 612.54 63.13 620.8 63.06 C 629.07 63 636.36 62.63 644.75 62.03 C 653.15 61.42 663.07 59.97 671.19 59.44 C 679.3 58.92 685.8 58.45 693.46 58.89 C 701.12 59.34 708.96 61.62 717.15 62.1 C 725.33 62.59 733.94 61.97 742.57 61.81 C 751.19 61.66 761.01 61.39 768.88 61.17 C 776.75 60.95 781.55 60.34 789.77 60.48 C 798 60.61 809.84 61.59 818.25 61.97 C 826.66 62.35 832.69 63.18 840.24 62.77 C 847.78 62.35 855.63 59.56 863.53 59.49 C 871.42 59.42 879.06 62.28 887.6 62.36 C 896.15 62.45 906.37 59.9 914.78 60.01 C 923.19 60.11 934.18 62.49 938.06 62.98" fill="none" stroke="#1F2937" stroke-width="1.4" stroke-linecap="round" stroke-linejoin="round" opacity="0.45"/>
  <path d="M 85.87 48.18 C 85.87 49.06 85.46 49.91 85.12 50.7 C 84.77 51.49 84.47 52.39 83.8 52.91 C 83.13 53.44 81.94 53.68 81.09 53.85 C 80.23 54.02 79.46 54.09 78.67 53.91 C 77.88 53.74 77.02 53.38 76.33 52.81 C 75.63 52.24 74.85 51.25 74.48 50.5 C 74.12 49.74 74.08 49.11 74.14 48.26 C 74.2 47.41 74.53 46.22 74.84 45.41 C 75.15 44.6 75.37 43.96 76 43.41 C 76.63 42.86 77.66 42.31 78.6 42.12 C 79.54 41.93 80.76 42.1 81.63 42.27 C 82.5 42.45 83.23 42.65 83.81 43.18 C 84.4 43.72 84.79 44.63 85.13 45.47 C 85.48 46.3 85.88 47.31 85.87 48.18 Z" fill="#E11D48" opacity="1"/>
  <path d="M 85.53 48.46 C 85.54 49.33 85.93 50.15 85.55 50.9 C 85.17 51.65 83.94 52.4 83.24 52.95 C 82.54 53.5 82.13 53.98 81.37 54.21 C 80.61 54.44 79.59 54.5 78.68 54.3 C 77.76 54.11 76.5 53.63 75.86 53.06 C 75.22 52.5 75.11 51.87 74.82 50.94 C 74.54 50.01 74.2 48.37 74.14 47.49 C 74.08 46.6 74.08 46.27 74.47 45.63 C 74.87 44.99 75.73 44.25 76.51 43.67 C 77.3 43.08 78.29 42.31 79.17 42.11 C 80.06 41.9 81.11 42.27 81.84 42.44 C 82.58 42.61 82.96 42.6 83.58 43.14 C 84.19 43.68 85.2 44.8 85.53 45.68 C 85.85 46.57 85.53 47.59 85.53 48.46 Z" fill="none" stroke="#1F2937" stroke-width="1.8" stroke-linecap="round" stroke-linejoin="round" opacity="1.0"/>
  <path d="M 85.58 47.21 C 85.58 47.94 85.67 49.12 85.35 50.15 C 85.03 51.19 84.43 52.68 83.66 53.41 C 82.89 54.14 81.53 54.45 80.73 54.53 C 79.92 54.61 79.51 54.12 78.84 53.89 C 78.16 53.65 77.44 53.66 76.7 53.13 C 75.96 52.6 74.74 51.5 74.4 50.7 C 74.07 49.9 74.69 49.29 74.67 48.33 C 74.66 47.38 74.01 45.89 74.33 44.95 C 74.66 44.01 75.88 43.25 76.61 42.71 C 77.35 42.16 77.98 41.69 78.72 41.68 C 79.46 41.66 80.12 42.29 81.03 42.6 C 81.93 42.9 83.43 42.95 84.16 43.48 C 84.88 44.02 85.15 45.18 85.38 45.8 C 85.62 46.42 85.59 46.49 85.58 47.21 Z" fill="none" stroke="#1F2937" stroke-width="1.26" stroke-linecap="round" stroke-linejoin="round" opacity="0.45"/>
  <path d="M 105.2 47.98 C 105.29 48.78 105.08 49.55 104.7 50.34 C 104.31 51.13 103.59 52.15 102.89 52.71 C 102.19 53.28 101.37 53.51 100.48 53.73 C 99.59 53.95 98.38 54.22 97.54 54.03 C 96.69 53.85 96.05 53.17 95.41 52.63 C 94.78 52.08 94.1 51.6 93.72 50.78 C 93.35 49.96 93.2 48.56 93.17 47.69 C 93.14 46.83 93.15 46.36 93.52 45.59 C 93.9 44.83 94.74 43.65 95.42 43.11 C 96.09 42.56 96.71 42.46 97.57 42.34 C 98.43 42.22 99.71 42.28 100.57 42.41 C 101.43 42.54 102.12 42.6 102.72 43.12 C 103.32 43.65 103.76 44.75 104.17 45.56 C 104.59 46.37 105.12 47.18 105.2 47.98 Z" fill="#D97706" opacity="1"/>
  <path d="M 104.77 47.59 C 104.75 48.59 104.57 50.1 104.26 50.98 C 103.96 51.86 103.58 52.39 102.93 52.89 C 102.28 53.38 101.19 53.77 100.36 53.94 C 99.54 54.11 98.85 54.21 97.98 53.92 C 97.11 53.63 95.8 52.82 95.15 52.19 C 94.5 51.55 94.5 50.9 94.08 50.11 C 93.65 49.33 92.68 48.17 92.6 47.47 C 92.52 46.76 93.16 46.6 93.61 45.89 C 94.05 45.18 94.64 43.76 95.28 43.22 C 95.92 42.68 96.67 42.79 97.43 42.64 C 98.19 42.49 99.04 42.13 99.84 42.3 C 100.65 42.47 101.49 43.21 102.25 43.66 C 103 44.1 103.96 44.32 104.38 44.97 C 104.8 45.63 104.79 46.59 104.77 47.59 Z" fill="none" stroke="#1F2937" stroke-width="1.8" stroke-linecap="round" stroke-linejoin="round" opacity="1.0"/>
  <path d="M 105.67 48.79 C 105.65 49.67 104.24 49.11 103.75 49.87 C 103.27 50.64 103.3 52.65 102.74 53.38 C 102.19 54.12 101.15 54.08 100.4 54.28 C 99.66 54.47 99.03 54.83 98.25 54.57 C 97.47 54.32 96.53 53.44 95.72 52.76 C 94.9 52.07 93.76 51.21 93.37 50.44 C 92.98 49.68 93.36 48.92 93.38 48.15 C 93.41 47.39 93.19 46.77 93.51 45.88 C 93.83 44.98 94.7 43.42 95.29 42.78 C 95.88 42.13 96.17 42.08 97.06 41.98 C 97.94 41.89 99.53 41.88 100.61 42.22 C 101.68 42.57 102.97 43.66 103.51 44.05 C 104.05 44.44 103.49 43.8 103.85 44.59 C 104.21 45.38 105.68 47.91 105.67 48.79 Z" fill="none" stroke="#1F2937" stroke-width="1.26" stroke-linecap="round" stroke-linejoin="round" opacity="0.45"/>
  <path d="M 124.06 48.19 C 124.02 49.04 123.89 49.89 123.46 50.62 C 123.02 51.35 122.17 51.98 121.44 52.55 C 120.72 53.13 119.9 53.84 119.09 54.07 C 118.29 54.31 117.41 54.19 116.63 53.95 C 115.85 53.7 115.11 53.15 114.42 52.62 C 113.72 52.08 112.89 51.5 112.45 50.71 C 112 49.93 111.67 48.84 111.74 47.92 C 111.81 47 112.46 45.99 112.85 45.19 C 113.24 44.4 113.42 43.68 114.09 43.15 C 114.75 42.62 115.96 42.19 116.84 42 C 117.72 41.81 118.51 41.74 119.36 42 C 120.22 42.26 121.25 42.95 121.98 43.54 C 122.7 44.13 123.37 44.76 123.71 45.53 C 124.06 46.31 124.11 47.34 124.06 48.19 Z" fill="#0D9488" opacity="1"/>
  <path d="M 124.37 48.16 C 124.37 48.93 124.11 49.58 123.59 50.38 C 123.07 51.18 121.92 52.38 121.25 52.96 C 120.58 53.54 120.43 53.7 119.59 53.86 C 118.75 54.02 117.12 54.18 116.22 53.93 C 115.32 53.67 114.86 52.85 114.19 52.33 C 113.51 51.81 112.62 51.6 112.17 50.82 C 111.71 50.04 111.47 48.66 111.47 47.67 C 111.46 46.69 111.69 45.69 112.16 44.89 C 112.63 44.09 113.44 43.26 114.27 42.87 C 115.1 42.47 116.4 42.67 117.16 42.51 C 117.91 42.36 117.98 41.81 118.81 41.95 C 119.64 42.08 121.33 42.71 122.13 43.34 C 122.92 43.98 123.21 44.95 123.58 45.75 C 123.96 46.55 124.36 47.39 124.37 48.16 Z" fill="none" stroke="#1F2937" stroke-width="1.8" stroke-linecap="round" stroke-linejoin="round" opacity="1.0"/>
  <path d="M 124.13 48.2 C 123.95 49.14 123.49 49.49 123.03 50.33 C 122.57 51.17 122.11 52.7 121.36 53.26 C 120.61 53.81 119.34 53.64 118.54 53.65 C 117.74 53.66 117.38 53.59 116.54 53.33 C 115.71 53.06 114.14 52.6 113.54 52.08 C 112.94 51.57 113.23 50.92 112.95 50.23 C 112.66 49.54 111.76 48.87 111.82 47.96 C 111.89 47.05 113.01 45.64 113.35 44.76 C 113.69 43.89 113.4 43.16 113.85 42.71 C 114.31 42.25 115.11 42.15 116.08 42.03 C 117.04 41.92 118.85 41.74 119.66 42.03 C 120.47 42.32 120.2 43.33 120.93 43.77 C 121.67 44.22 123.54 43.95 124.07 44.68 C 124.6 45.42 124.3 47.26 124.13 48.2 Z" fill="none" stroke="#1F2937" stroke-width="1.26" stroke-linecap="round" stroke-linejoin="round" opacity="0.45"/>
  <text x="500" y="53" font-family="Chalkboard SE, Comic Sans MS, Comic Neue, Segoe Print, Bradley Hand, cursive" font-size="13" fill="#475569" text-anchor="middle">ScreensView</text>
  <path d="M 159.68 136.13 C 164.19 136.01 177.2 136.04 185.92 136.24 C 194.65 136.45 203.33 137.64 212.04 137.37 C 220.76 137.1 229.61 134.61 238.23 134.62 C 246.84 134.64 255.09 137.32 263.71 137.44 C 272.33 137.56 281.25 135.34 289.96 135.35 C 298.68 135.36 307.49 137.14 316.01 137.5 C 324.53 137.85 332.52 137.92 341.07 137.48 C 349.62 137.04 358.14 135.06 367.31 134.84 C 376.48 134.62 387.15 135.76 396.08 136.16 C 405.01 136.55 415.73 137.06 420.86 137.22 C 426 137.37 425.2 136.44 426.91 137.1 C 428.62 137.75 430.03 140.07 431.12 141.15 C 432.22 142.23 433.09 142.27 433.5 143.59 C 433.9 144.91 433.3 148.11 433.55 149.06 C 433.8 150.01 434.64 144.12 435.02 149.29 C 435.4 154.45 435.96 170.28 435.83 180.06 C 435.69 189.84 434.41 198.54 434.22 207.99 C 434.02 217.43 434.68 226.71 434.66 236.75 C 434.63 246.79 434.14 258.4 434.07 268.22 C 434 278.04 434.49 290.22 434.26 295.66 C 434.02 301.1 433.08 298.78 432.66 300.87 C 432.23 302.95 432.77 306.45 431.7 308.17 C 430.64 309.89 428.11 310.92 426.27 311.17 C 424.43 311.41 421.6 309.43 420.66 309.64 C 419.71 309.86 425.01 311.99 420.58 312.47 C 416.14 312.94 402.94 312.55 394.05 312.5 C 385.17 312.45 375.85 312.48 367.27 312.18 C 358.68 311.88 351.08 310.92 342.52 310.68 C 333.96 310.45 324.57 310.89 315.92 310.78 C 307.27 310.66 299.23 309.75 290.62 310 C 282.01 310.24 272.98 312.24 264.26 312.23 C 255.54 312.21 247.38 310.02 238.32 309.92 C 229.27 309.81 218.83 311.5 209.94 311.62 C 201.06 311.74 193.58 310.97 185.01 310.64 C 176.43 310.31 163.85 309.66 158.5 309.63 C 153.14 309.61 154.21 310.85 152.87 310.46 C 151.53 310.08 151.46 308.72 150.44 307.34 C 149.42 305.96 147.55 303.76 146.76 302.17 C 145.97 300.58 146.06 298.67 145.69 297.79 C 145.33 296.91 144.52 302.08 144.55 296.87 C 144.57 291.65 145.59 276.52 145.83 266.51 C 146.07 256.49 146.32 246.44 146.01 236.79 C 145.69 227.13 144.32 218.2 143.93 208.56 C 143.53 198.92 143.24 188.92 143.63 178.95 C 144.03 168.98 145.75 154.72 146.3 148.76 C 146.85 142.8 146.68 144.42 146.91 143.2 C 147.14 141.98 146.37 142.27 147.69 141.45 C 149.01 140.63 152.99 139.02 154.85 138.26 C 156.71 137.51 158.04 137.27 158.84 136.91 C 159.65 136.56 155.17 136.24 159.68 136.13 Z" fill="#1F2937" opacity="0.13"/>
  <path d="M 153.91 130.53 C 158.41 130.73 172.02 131.02 180.74 130.86 C 189.47 130.7 197.59 129.63 206.28 129.55 C 214.98 129.47 224.11 130.24 232.91 130.39 C 241.72 130.54 250.56 130.53 259.12 130.47 C 267.69 130.41 275.78 130.22 284.33 130.03 C 292.87 129.85 301.6 129.34 310.37 129.37 C 319.14 129.4 328.11 130.14 336.95 130.22 C 345.79 130.29 354.58 129.86 363.42 129.82 C 372.25 129.77 381.2 130.02 389.98 129.97 C 398.76 129.92 410.81 129.2 416.08 129.5 C 421.36 129.81 419.88 131.12 421.65 131.8 C 423.42 132.49 425.38 132.6 426.73 133.61 C 428.07 134.61 429.07 136.25 429.71 137.84 C 430.35 139.44 430.66 142.04 430.56 143.15 C 430.46 144.26 429.21 139.57 429.12 144.49 C 429.04 149.42 429.79 163 430.06 172.69 C 430.33 182.38 430.68 192.63 430.74 202.64 C 430.8 212.64 430.48 222.91 430.41 232.72 C 430.34 242.52 430.52 251.64 430.33 261.49 C 430.14 271.33 429.64 286.1 429.3 291.77 C 428.95 297.44 428.78 294.13 428.28 295.51 C 427.77 296.88 427.3 298.57 426.27 300.02 C 425.24 301.48 423.69 303.41 422.07 304.24 C 420.45 305.07 417.54 304.9 416.57 305.03 C 415.61 305.15 420.59 304.96 416.28 304.97 C 411.96 304.98 399.56 305.09 390.69 305.09 C 381.82 305.1 371.84 305.07 363.08 305 C 354.31 304.94 346.64 304.83 338.08 304.72 C 329.53 304.61 320.69 304.28 311.75 304.35 C 302.81 304.42 293.38 305.01 284.44 305.14 C 275.5 305.28 266.89 305.17 258.1 305.16 C 249.32 305.15 240.48 304.98 231.71 305.08 C 222.95 305.19 214.15 305.86 205.52 305.78 C 196.89 305.69 188.63 304.63 179.92 304.57 C 171.22 304.51 158.37 305.43 153.3 305.41 C 148.24 305.4 150.96 305.12 149.53 304.48 C 148.09 303.83 146.19 302.96 144.7 301.54 C 143.21 300.12 141.3 297.77 140.59 295.94 C 139.88 294.1 140.5 291.48 140.43 290.51 C 140.36 289.55 140.35 294.92 140.17 290.14 C 140 285.36 139.42 271.53 139.39 261.86 C 139.36 252.19 140.02 241.92 140.01 232.11 C 139.99 222.29 139.32 212.86 139.3 202.99 C 139.28 193.12 139.84 182.77 139.9 172.89 C 139.95 163.01 139.51 149.3 139.62 143.71 C 139.73 138.12 139.78 141.01 140.56 139.36 C 141.34 137.72 142.95 135.34 144.3 133.82 C 145.66 132.3 147.11 130.96 148.69 130.27 C 150.27 129.58 152.91 129.65 153.78 129.7 C 154.65 129.74 149.42 130.34 153.91 130.53 Z" fill="#E7E9FF" opacity="1"/>
  <path d="M 154.34 129.66 C 158.76 129.91 170.48 131.36 179.22 131.42 C 187.95 131.49 197.86 130.18 206.77 130.07 C 215.68 129.96 224.13 130.85 232.69 130.75 C 241.24 130.64 249.15 129.59 258.12 129.45 C 267.09 129.31 277.54 129.65 286.49 129.89 C 295.44 130.13 303.21 130.68 311.83 130.89 C 320.44 131.1 329.62 131.19 338.18 131.14 C 346.74 131.09 354.79 131.01 363.16 130.59 C 371.53 130.17 379.84 128.66 388.41 128.62 C 396.98 128.59 408.88 129.94 414.57 130.39 C 420.27 130.83 420.62 130.76 422.58 131.28 C 424.54 131.8 425.22 132.41 426.31 133.51 C 427.4 134.62 428.63 136.39 429.13 137.9 C 429.62 139.4 429.27 141.59 429.29 142.56 C 429.31 143.53 429.28 138.62 429.23 143.72 C 429.17 148.81 429.03 163.5 428.96 173.11 C 428.9 182.73 428.77 191.31 428.85 201.39 C 428.93 211.47 429.2 223.57 429.44 233.6 C 429.68 243.63 430.29 252.13 430.3 261.58 C 430.31 271.03 429.64 284.28 429.51 290.31 C 429.38 296.34 430.29 296.2 429.51 297.77 C 428.74 299.34 426.38 298.61 424.85 299.73 C 423.31 300.85 421.97 303.69 420.29 304.47 C 418.62 305.26 415.75 304.19 414.79 304.44 C 413.84 304.69 418.92 305.91 414.58 305.96 C 410.23 306.01 397.46 304.93 388.72 304.73 C 379.97 304.53 370.9 304.56 362.11 304.77 C 353.32 304.99 344.24 306.14 335.99 306.01 C 327.73 305.88 321.23 304.02 312.56 303.97 C 303.9 303.93 292.89 305.82 283.98 305.76 C 275.07 305.69 267.53 303.89 259.1 303.58 C 250.68 303.26 242.13 303.42 233.42 303.88 C 224.71 304.33 215.85 306.13 206.86 306.29 C 197.88 306.46 188.1 304.82 179.49 304.85 C 170.88 304.87 160.28 306.72 155.19 306.44 C 150.09 306.15 150.75 304.27 148.91 303.12 C 147.06 301.98 145.57 300.6 144.11 299.57 C 142.66 298.53 141.06 298.57 140.19 296.91 C 139.32 295.25 139.18 290.56 138.91 289.62 C 138.64 288.67 138.52 295.71 138.55 291.25 C 138.58 286.78 138.89 272.46 139.11 262.81 C 139.33 253.15 139.68 243.49 139.88 233.33 C 140.08 223.18 140.27 211.92 140.32 201.88 C 140.37 191.84 140.11 182.73 140.17 173.11 C 140.23 163.48 140.74 149.98 140.68 144.15 C 140.62 138.33 139.12 139.84 139.81 138.17 C 140.49 136.49 143.09 135.43 144.78 134.11 C 146.47 132.78 148.62 130.91 149.94 130.22 C 151.26 129.53 151.98 130.04 152.71 129.95 C 153.45 129.86 149.92 129.41 154.34 129.66 Z" fill="none" stroke="#4F46E5" stroke-width="3" stroke-linecap="round" stroke-linejoin="round" opacity="1.0"/>
  <path d="M 152.26 128.07 C 156.83 128.17 171.96 129.39 181.04 129.85 C 190.12 130.31 198.15 131.02 206.76 130.83 C 215.36 130.65 223.74 128.9 232.64 128.72 C 241.54 128.55 251.1 129.88 260.14 129.78 C 269.17 129.68 278.15 128.06 286.86 128.11 C 295.56 128.16 304.09 129.54 312.37 130.1 C 320.65 130.66 327.92 131.13 336.53 131.46 C 345.15 131.78 354.88 132.57 364.05 132.05 C 373.22 131.54 382.89 128.69 391.55 128.36 C 400.21 128.03 410.97 129.3 416.03 130.07 C 421.09 130.85 420.08 132.2 421.9 133.02 C 423.73 133.83 425.99 134.29 426.97 134.97 C 427.94 135.64 427.39 135.53 427.74 137.05 C 428.08 138.56 428.34 143.08 429.05 144.06 C 429.76 145.04 431.9 137.96 432 142.94 C 432.1 147.92 429.62 164.15 429.65 173.92 C 429.67 183.7 432.17 191.96 432.16 201.58 C 432.14 211.2 429.57 221.66 429.58 231.63 C 429.58 241.61 432.44 251.49 432.19 261.45 C 431.94 271.41 428.43 285.57 428.09 291.39 C 427.74 297.22 430.81 295.07 430.13 296.39 C 429.45 297.72 425.52 298.1 424.01 299.34 C 422.49 300.58 422.17 303.02 421.06 303.84 C 419.95 304.65 418.1 304.34 417.35 304.23 C 416.61 304.12 421.19 302.89 416.61 303.18 C 412.03 303.47 398.98 305.93 389.89 305.95 C 380.8 305.98 371.04 303.63 362.07 303.32 C 353.1 303.02 344.91 303.51 336.08 304.12 C 327.24 304.74 317.32 306.89 309.07 307 C 300.81 307.12 294.8 305.13 286.55 304.84 C 278.29 304.55 268.21 305.37 259.51 305.25 C 250.81 305.13 243.3 303.96 234.34 304.12 C 225.38 304.27 214.61 305.98 205.75 306.19 C 196.9 306.41 189.86 305.31 181.21 305.41 C 172.55 305.51 159.46 307.29 153.82 306.79 C 148.17 306.3 149.32 303.37 147.34 302.42 C 145.37 301.47 143.31 301.93 141.96 301.1 C 140.61 300.26 139.38 298.83 139.24 297.42 C 139.1 296.02 140.8 293.69 141.12 292.7 C 141.44 291.71 141.15 296.96 141.16 291.48 C 141.17 286.01 141.3 269.54 141.17 259.86 C 141.05 250.17 140.42 242.73 140.42 233.35 C 140.42 223.97 141.02 213.92 141.19 203.58 C 141.36 193.23 141.44 180.89 141.42 171.29 C 141.4 161.69 141.11 151.31 141.07 145.98 C 141.04 140.66 141.04 141.55 141.21 139.33 C 141.37 137.11 140.89 133.94 142.08 132.64 C 143.26 131.33 146.4 132.08 148.32 131.51 C 150.24 130.95 152.93 129.81 153.58 129.23 C 154.24 128.66 147.68 127.96 152.26 128.07 Z" fill="none" stroke="#4F46E5" stroke-width="2.1" stroke-linecap="round" stroke-linejoin="round" opacity="0.45"/>
  <text x="285" y="224.5" font-family="Chalkboard SE, Comic Sans MS, Comic Neue, Segoe Print, Bradley Hand, cursive" font-size="22" fill="#4F46E5" text-anchor="middle">Primary</text>
  <path d="M 472.61 105.12 C 477.23 105.22 493.28 106.3 502.63 106.66 C 511.99 107.03 519.84 107.6 528.75 107.3 C 537.67 107.01 547.1 105.32 556.13 104.9 C 565.15 104.48 573.85 104.61 582.93 104.81 C 592.01 105 601.55 105.88 610.6 106.05 C 619.64 106.23 628.04 105.99 637.2 105.86 C 646.36 105.74 659.95 105.22 665.57 105.31 C 671.19 105.39 669.14 105.45 670.91 106.38 C 672.68 107.3 674.86 109.64 676.21 110.86 C 677.56 112.08 678.2 112.4 679.02 113.7 C 679.83 115 680.89 117.8 681.08 118.68 C 681.28 119.55 680.3 113.88 680.18 118.94 C 680.06 124.01 680.65 139.48 680.38 149.06 C 680.11 158.65 678.65 167.11 678.55 176.46 C 678.46 185.82 679.38 195.81 679.8 205.19 C 680.22 214.56 681.3 227.31 681.07 232.72 C 680.85 238.12 679.09 235.95 678.45 237.64 C 677.8 239.32 678.26 241.5 677.22 242.81 C 676.19 244.12 674.37 244.95 672.25 245.51 C 670.13 246.06 665.35 246.04 664.51 246.15 C 663.66 246.27 671.32 246 667.2 246.18 C 663.08 246.36 648.92 247.05 639.77 247.26 C 630.63 247.46 621.41 247.42 612.31 247.39 C 603.2 247.37 594.55 247.33 585.16 247.1 C 575.77 246.86 565.46 246.07 555.96 246 C 546.45 245.92 537.37 246.7 528.11 246.62 C 518.85 246.55 509.43 245.86 500.39 245.56 C 491.35 245.25 479.14 244.92 473.87 244.8 C 468.61 244.69 470.51 245.6 468.8 244.87 C 467.09 244.15 465.06 241.47 463.62 240.43 C 462.18 239.38 460.9 239.91 460.16 238.62 C 459.42 237.32 459.12 233.71 459.21 232.66 C 459.3 231.61 460.37 237.15 460.68 232.31 C 460.99 227.47 461.02 212.95 461.07 203.65 C 461.12 194.34 461.08 185.56 460.98 176.46 C 460.88 167.35 460.53 158.45 460.46 149.03 C 460.38 139.61 460.54 125.79 460.54 119.93 C 460.54 114.07 460.08 115.38 460.46 113.85 C 460.83 112.31 461.22 111.78 462.78 110.72 C 464.33 109.66 467.78 108.28 469.81 107.5 C 471.84 106.71 474.49 106.42 474.96 106.03 C 475.43 105.63 468 105.01 472.61 105.12 Z" fill="#1F2937" opacity="0.13"/>
  <path d="M 469.68 100.82 C 474.42 100.72 487.91 100.47 496.85 100.25 C 505.79 100.03 514.24 99.43 523.32 99.5 C 532.41 99.58 542.17 100.72 551.35 100.68 C 560.53 100.63 569.16 99.47 578.4 99.25 C 587.63 99.03 597.6 99.1 606.76 99.34 C 615.91 99.59 624.3 100.61 633.32 100.72 C 642.34 100.84 655.36 99.92 660.87 100.03 C 666.39 100.15 664.83 100.71 666.38 101.41 C 667.94 102.1 668.89 103.08 670.2 104.19 C 671.5 105.3 673.48 106.32 674.21 108.09 C 674.95 109.86 674.5 113.92 674.6 114.8 C 674.71 115.68 674.74 108.79 674.85 113.38 C 674.96 117.96 675.12 132.91 675.27 142.33 C 675.43 151.75 675.88 160.68 675.77 169.87 C 675.65 179.06 674.61 188.18 674.58 197.48 C 674.55 206.79 675.77 219.94 675.58 225.7 C 675.4 231.46 674.2 230.46 673.48 232.06 C 672.76 233.67 672.48 234.21 671.27 235.33 C 670.06 236.44 668.02 237.88 666.19 238.73 C 664.37 239.59 661.35 240.34 660.34 240.45 C 659.32 240.56 664.66 239.44 660.11 239.4 C 655.57 239.35 642.08 240.08 633.07 240.18 C 624.06 240.28 615.1 240.15 606.05 240 C 596.99 239.85 587.76 239.18 578.73 239.28 C 569.69 239.38 561.03 240.42 551.84 240.59 C 542.65 240.75 532.72 240.37 523.59 240.29 C 514.47 240.21 506.29 240.28 497.08 240.1 C 487.87 239.92 473.81 239.37 468.32 239.21 C 462.83 239.05 465.64 239.63 464.12 239.13 C 462.6 238.62 460.65 237.6 459.21 236.18 C 457.78 234.76 456.12 232.37 455.52 230.62 C 454.93 228.87 455.75 226.61 455.66 225.7 C 455.57 224.79 455.14 229.86 454.98 225.14 C 454.82 220.42 454.64 206.68 454.71 197.4 C 454.78 188.12 455.38 178.58 455.41 169.46 C 455.44 160.34 454.99 151.8 454.89 142.67 C 454.79 133.54 454.54 120.47 454.8 114.69 C 455.06 108.91 455.72 109.68 456.46 108 C 457.19 106.32 457.9 105.8 459.22 104.62 C 460.53 103.44 462.81 101.54 464.34 100.91 C 465.87 100.28 467.51 100.88 468.4 100.86 C 469.29 100.85 464.94 100.92 469.68 100.82 Z" fill="#D8F5F0" opacity="1"/>
  <path d="M 468.72 99.48 C 473.35 99.65 488.43 101.13 497.42 101.28 C 506.4 101.44 513.55 100.6 522.63 100.42 C 531.71 100.24 542.34 100.14 551.91 100.21 C 561.49 100.29 571.22 100.84 580.09 100.87 C 588.96 100.9 596.14 100.77 605.14 100.4 C 614.14 100.04 624.62 98.93 634.09 98.68 C 643.56 98.42 656.64 98.41 661.97 98.9 C 667.29 99.38 664.51 100.67 666.04 101.61 C 667.57 102.55 669.67 103.32 671.13 104.51 C 672.59 105.7 674.42 107.33 674.82 108.74 C 675.21 110.16 673.24 112.21 673.51 112.99 C 673.79 113.77 676.18 108.61 676.47 113.42 C 676.76 118.23 675.46 132.52 675.24 141.85 C 675.01 151.18 675.08 160.25 675.13 169.4 C 675.18 178.54 675.83 187.24 675.56 196.72 C 675.29 206.2 673.92 220.65 673.52 226.27 C 673.11 231.9 673.33 228.72 673.13 230.5 C 672.93 232.27 673.23 235.67 672.29 236.94 C 671.35 238.21 669.2 237.59 667.49 238.12 C 665.79 238.66 662.97 239.78 662.06 240.15 C 661.15 240.52 666.78 240.33 662.02 240.37 C 657.26 240.41 642.8 240.35 633.5 240.39 C 624.21 240.43 615.55 240.65 606.25 240.61 C 596.96 240.56 586.84 239.97 577.73 240.12 C 568.61 240.26 560.32 241.4 551.56 241.49 C 542.81 241.57 534.36 240.72 525.19 240.63 C 516.02 240.55 506.1 241.31 496.54 240.98 C 486.99 240.65 473.46 239.07 467.88 238.68 C 462.3 238.3 464.54 239.17 463.06 238.67 C 461.57 238.16 460.12 237.03 458.95 235.67 C 457.77 234.3 456.77 232.06 456.02 230.5 C 455.27 228.94 454.87 226.98 454.45 226.31 C 454.03 225.63 453.31 231.13 453.51 226.44 C 453.7 221.75 455.38 207.61 455.62 198.15 C 455.87 188.7 455.25 178.82 454.96 169.71 C 454.67 160.6 453.9 152.64 453.88 143.47 C 453.86 134.31 454.31 120.41 454.83 114.71 C 455.36 109.01 456.46 110.89 457.02 109.27 C 457.58 107.66 457.06 106.28 458.19 105.02 C 459.32 103.76 461.88 102.5 463.79 101.71 C 465.7 100.92 468.83 100.66 469.65 100.29 C 470.47 99.92 464.09 99.31 468.72 99.48 Z" fill="none" stroke="#4F46E5" stroke-width="3" stroke-linecap="round" stroke-linejoin="round" opacity="1.0"/>
  <path d="M 469.18 98.51 C 474.15 98.08 488.28 97.55 497.74 97.91 C 507.2 98.27 517.22 100.1 525.94 100.66 C 534.67 101.22 541.62 101.3 550.1 101.26 C 558.58 101.22 567.2 100.94 576.82 100.41 C 586.45 99.88 598.22 98.32 607.84 98.09 C 617.45 97.87 625.73 99.03 634.53 99.05 C 643.33 99.07 655.51 98.08 660.63 98.21 C 665.76 98.35 663.23 98.53 665.27 99.85 C 667.3 101.17 671.4 104.78 672.86 106.15 C 674.32 107.52 673.78 106.87 674.04 108.08 C 674.29 109.29 674.33 112.23 674.4 113.39 C 674.47 114.55 674.25 110.54 674.44 115.02 C 674.63 119.51 675.69 131.41 675.54 140.29 C 675.39 149.16 673.75 158.77 673.54 168.26 C 673.32 177.76 674.18 187.41 674.23 197.26 C 674.29 207.1 674.31 221.6 673.89 227.31 C 673.47 233.03 672.53 230.18 671.72 231.53 C 670.92 232.88 669.79 233.94 669.05 235.42 C 668.32 236.9 668.73 239.94 667.32 240.41 C 665.92 240.87 662.02 238.5 660.62 238.21 C 659.22 237.91 663.66 238.25 658.94 238.63 C 654.22 239 641.22 239.93 632.28 240.45 C 623.33 240.98 614.34 241.74 605.3 241.79 C 596.25 241.84 586.77 240.94 578.01 240.76 C 569.25 240.57 562.12 240.69 552.73 240.67 C 543.33 240.66 530.82 240.54 521.64 240.69 C 512.45 240.83 506.45 241.48 497.61 241.56 C 488.77 241.65 473.94 241.47 468.59 241.19 C 463.24 240.91 467.13 240.64 465.49 239.88 C 463.86 239.13 460.19 238.16 458.79 236.65 C 457.39 235.14 457.52 232.34 457.1 230.83 C 456.67 229.33 456.77 228.43 456.25 227.6 C 455.74 226.78 454.09 230.45 454.01 225.87 C 453.93 221.3 455.48 209.38 455.78 200.16 C 456.07 190.94 455.56 180.12 455.79 170.55 C 456.03 160.99 457.25 152.36 457.18 142.78 C 457.12 133.2 455.71 118.4 455.4 113.07 C 455.09 107.74 454.42 112.43 455.31 110.8 C 456.2 109.16 459.22 104.92 460.76 103.27 C 462.29 101.62 463.34 101.34 464.54 100.88 C 465.73 100.42 467.15 100.9 467.92 100.51 C 468.7 100.11 464.21 98.94 469.18 98.51 Z" fill="none" stroke="#4F46E5" stroke-width="2.1" stroke-linecap="round" stroke-linejoin="round" opacity="0.45"/>
  <text x="565" y="177" font-family="Chalkboard SE, Comic Sans MS, Comic Neue, Segoe Print, Bradley Hand, cursive" font-size="22" fill="#4F46E5" text-anchor="middle">Screen 1</text>
  <path d="M 719.11 175.9 C 723.49 176 735.92 175.31 744.8 175.34 C 753.69 175.36 763.42 175.95 772.4 176.07 C 781.37 176.2 789.71 175.93 798.65 176.11 C 807.6 176.28 817.46 177.2 826.07 177.13 C 834.67 177.06 845.03 175.9 850.3 175.7 C 855.56 175.51 855.87 175.45 857.66 175.96 C 859.45 176.47 860.02 177.39 861.02 178.77 C 862.01 180.15 862.96 182.12 863.62 184.21 C 864.28 186.31 864.72 190.61 864.98 191.35 C 865.25 192.09 864.96 182.39 865.21 188.64 C 865.45 194.9 866.51 215.68 866.46 228.87 C 866.4 242.06 865.13 260.33 864.87 267.8 C 864.61 275.28 865.64 272.33 864.88 273.7 C 864.12 275.07 861.65 275.04 860.31 276.04 C 858.96 277.04 858.47 278.97 856.82 279.72 C 855.17 280.47 851.46 280.14 850.4 280.53 C 849.34 280.91 854.82 281.72 850.44 282.01 C 846.07 282.3 833.07 282.26 824.15 282.26 C 815.24 282.27 805.79 282.24 796.94 282.02 C 788.09 281.8 779.85 281.14 771.06 280.93 C 762.28 280.72 752.91 280.85 744.22 280.77 C 735.53 280.7 723.92 280.38 718.93 280.47 C 713.94 280.57 716.03 281.74 714.27 281.36 C 712.52 280.97 709.9 279.73 708.37 278.16 C 706.84 276.58 705.56 273.8 705.09 271.89 C 704.62 269.99 705.61 267.71 705.55 266.74 C 705.5 265.77 705.05 272.31 704.77 266.08 C 704.48 259.86 703.77 242.23 703.84 229.4 C 703.9 216.57 704.63 196.63 705.17 189.11 C 705.7 181.59 706.14 185.57 707.03 184.28 C 707.92 182.99 709.39 182.58 710.49 181.37 C 711.59 180.16 712.32 178.12 713.65 177.01 C 714.98 175.91 717.57 174.92 718.48 174.73 C 719.39 174.55 714.72 175.8 719.11 175.9 Z" fill="#1F2937" opacity="0.13"/>
  <path d="M 713.42 169.38 C 717.83 169.47 731.9 170 740.88 170.08 C 749.86 170.17 758.53 169.77 767.32 169.89 C 776.11 170 784.96 170.78 793.62 170.77 C 802.29 170.76 810.47 169.91 819.29 169.82 C 828.11 169.72 841.14 169.91 846.54 170.2 C 851.95 170.5 850.07 171.09 851.72 171.59 C 853.38 172.1 855.18 172.21 856.47 173.25 C 857.76 174.29 858.93 175.96 859.47 177.85 C 860.01 179.73 859.68 183.65 859.69 184.57 C 859.7 185.48 859.61 177.02 859.54 183.32 C 859.47 189.62 859.06 209.36 859.26 222.38 C 859.46 235.4 860.65 253.99 860.74 261.42 C 860.84 268.86 860.59 265.55 859.81 266.98 C 859.03 268.41 857.62 268.77 856.08 270.01 C 854.54 271.24 852.34 273.58 850.58 274.39 C 848.82 275.21 846.2 274.69 845.52 274.88 C 844.83 275.07 850.88 275.59 846.48 275.53 C 842.08 275.46 828.02 274.68 819.13 274.5 C 810.24 274.33 801.9 274.39 793.16 274.47 C 784.42 274.56 775.41 275.02 766.67 275.03 C 757.94 275.05 749.52 274.7 740.75 274.57 C 731.99 274.44 719.33 274.25 714.11 274.28 C 708.89 274.31 711.18 275.3 709.45 274.77 C 707.73 274.23 705.07 272.47 703.77 271.09 C 702.48 269.71 702.33 268.17 701.69 266.5 C 701.05 264.83 700.17 261.87 699.95 261.09 C 699.73 260.3 700.45 268.28 700.36 261.77 C 700.28 255.25 699.5 234.92 699.42 222 C 699.35 209.08 699.53 191.62 699.93 184.25 C 700.32 176.87 701.06 179.36 701.81 177.76 C 702.55 176.17 703.16 175.76 704.4 174.68 C 705.64 173.59 707.57 172.11 709.24 171.26 C 710.9 170.4 713.72 169.86 714.42 169.55 C 715.11 169.24 709.01 169.29 713.42 169.38 Z" fill="#FDEBCF" opacity="1"/>
  <path d="M 715.41 171.43 C 719.51 171.37 731.65 169.76 739.96 169.66 C 748.28 169.57 756.24 170.99 765.31 170.88 C 774.37 170.78 785.15 169.11 794.35 169.04 C 803.56 168.97 811.73 170.47 820.53 170.45 C 829.32 170.43 842.18 168.94 847.14 168.9 C 852.11 168.86 849.12 169.22 850.34 170.2 C 851.56 171.19 853.17 173.38 854.46 174.79 C 855.76 176.2 857.11 177.03 858.11 178.65 C 859.11 180.28 860.33 183.88 860.45 184.55 C 860.57 185.22 858.72 176.4 858.84 182.65 C 858.97 188.91 860.79 209.23 861.19 222.08 C 861.6 234.93 861.55 252.41 861.29 259.75 C 861.03 267.09 860.6 264.46 859.65 266.14 C 858.69 267.83 856.94 268.34 855.56 269.86 C 854.18 271.37 852.96 274.57 851.36 275.25 C 849.76 275.92 846.77 273.76 845.94 273.9 C 845.11 274.04 850.93 275.86 846.38 276.09 C 841.84 276.31 827.73 275.31 818.66 275.24 C 809.59 275.18 800.53 275.87 791.98 275.73 C 783.43 275.58 776.06 274.32 767.37 274.39 C 758.67 274.46 748.86 276.13 739.79 276.13 C 730.72 276.13 718.09 274.83 712.93 274.4 C 707.77 273.98 710.05 274.07 708.81 273.58 C 707.56 273.1 706.53 272.79 705.44 271.47 C 704.36 270.16 703.15 267.52 702.28 265.68 C 701.42 263.84 700.44 261.46 700.25 260.44 C 700.06 259.42 701 265.75 701.15 259.58 C 701.3 253.42 701.25 235.94 701.15 223.44 C 701.05 210.94 700.4 192.19 700.55 184.57 C 700.71 176.94 701.24 179.43 702.06 177.67 C 702.89 175.92 704.56 174.93 705.53 174.03 C 706.5 173.14 706.22 172.97 707.86 172.29 C 709.49 171.62 714.08 170.14 715.34 169.99 C 716.6 169.85 711.31 171.48 715.41 171.43 Z" fill="none" stroke="#4F46E5" stroke-width="3" stroke-linecap="round" stroke-linejoin="round" opacity="1.0"/>
  <path d="M 713.53 169.67 C 717.91 169.01 730.02 168.04 739.17 168.06 C 748.33 168.09 759.29 169.13 768.46 169.82 C 777.63 170.52 785.46 171.93 794.18 172.2 C 802.91 172.48 811.88 171.47 820.81 171.45 C 829.74 171.44 842.5 172.48 847.77 172.12 C 853.03 171.75 851.19 169.19 852.41 169.27 C 853.64 169.35 854.08 171.13 855.12 172.6 C 856.16 174.07 857.74 176.5 858.66 178.09 C 859.57 179.68 860.68 181.1 860.62 182.15 C 860.55 183.19 858.35 177.94 858.24 184.35 C 858.14 190.76 859.46 208.09 859.98 220.62 C 860.49 233.16 861.59 252.31 861.33 259.56 C 861.08 266.81 859.19 262.4 858.45 264.11 C 857.7 265.83 858.14 268.1 856.84 269.84 C 855.55 271.59 852.35 273.96 850.68 274.59 C 849.01 275.22 847.32 273.38 846.83 273.64 C 846.34 273.89 852.05 275.69 847.74 276.12 C 843.42 276.54 829.89 276.03 820.94 276.2 C 812 276.38 802.78 277.18 794.06 277.17 C 785.35 277.17 777.57 276.54 768.63 276.16 C 759.69 275.79 749.21 274.99 740.43 274.92 C 731.64 274.84 720.97 276.25 715.94 275.73 C 710.92 275.21 712.6 272.44 710.28 271.79 C 707.96 271.15 703.23 273.04 702.03 271.87 C 700.82 270.71 703.68 266.4 703.04 264.79 C 702.41 263.17 698.4 263.09 698.22 262.17 C 698.04 261.25 701.77 265.83 701.97 259.28 C 702.18 252.73 700.03 235.79 699.44 222.89 C 698.86 210 698.01 189.03 698.45 181.9 C 698.89 174.77 701.36 181.04 702.08 180.11 C 702.79 179.18 701.48 178 702.77 176.3 C 704.06 174.6 708.12 170.62 709.81 169.91 C 711.5 169.2 712.29 172.07 712.91 172.03 C 713.53 171.99 709.15 170.33 713.53 169.67 Z" fill="none" stroke="#4F46E5" stroke-width="2.1" stroke-linecap="round" stroke-linejoin="round" opacity="0.45"/>
  <text x="780" y="229.5" font-family="Chalkboard SE, Comic Sans MS, Comic Neue, Segoe Print, Bradley Hand, cursive" font-size="22" fill="#4F46E5" text-anchor="middle">Screen 2</text>
</svg>
