<svg xmlns="http://www.w3.org/2000/svg" width="1000" height="430" viewBox="0 0 1000 430">
  <rect width="1000" height="430" fill="#FFFFFF"/>
  <path d="M 88.47 96.12 C 92.98 96.49 107.89 97.07 117.22 97.26 C 126.56 97.46 135.51 97.6 144.48 97.3 C 153.46 96.99 162.18 95.61 171.08 95.45 C 179.98 95.28 188.61 96.11 197.88 96.3 C 207.15 96.49 217.23 96.48 226.72 96.59 C 236.22 96.7 245.59 97.27 254.82 96.97 C 264.06 96.67 276.85 94.71 282.14 94.79 C 287.43 94.88 284.89 96.8 286.57 97.48 C 288.24 98.17 290.82 97.8 292.19 98.91 C 293.56 100.02 294.1 102.49 294.78 104.13 C 295.45 105.76 296.42 107.74 296.25 108.7 C 296.07 109.66 293.89 104.71 293.73 109.88 C 293.57 115.05 295.08 129.32 295.31 139.72 C 295.53 150.12 295.11 166.15 295.06 172.29 C 295.02 178.43 295.77 174.84 295.04 176.56 C 294.31 178.27 292.31 181.4 290.7 182.58 C 289.09 183.76 287.08 182.97 285.38 183.64 C 283.68 184.31 281.23 186.01 280.5 186.6 C 279.77 187.19 285.37 187.25 281 187.19 C 276.62 187.12 263.15 186.37 254.25 186.23 C 245.36 186.09 236.86 186.54 227.62 186.35 C 218.37 186.16 207.96 184.96 198.76 185.1 C 189.57 185.23 181.81 187.17 172.43 187.16 C 163.06 187.15 152.08 185.29 142.51 185.06 C 132.95 184.84 124.17 185.48 115.04 185.82 C 105.92 186.15 93.03 186.99 87.74 187.07 C 82.45 187.15 84.89 187.37 83.3 186.3 C 81.72 185.22 79.37 182.22 78.22 180.63 C 77.07 179.05 76.81 178.37 76.38 176.8 C 75.95 175.22 75.94 171.95 75.62 171.17 C 75.29 170.4 74.54 177 74.43 172.15 C 74.32 167.3 75.03 152.24 74.95 142.07 C 74.87 131.91 73.55 117.5 73.97 111.19 C 74.38 104.87 76.56 105.78 77.45 104.18 C 78.34 102.58 78.48 102.55 79.32 101.58 C 80.15 100.61 80.67 99.45 82.47 98.36 C 84.28 97.27 89.17 95.42 90.17 95.04 C 91.17 94.67 83.96 95.75 88.47 96.12 Z" fill="#1F2937" opacity="0.13"/>
  <path d="M 84.15 89.84 C 88.62 89.93 102.48 90.69 111.68 90.68 C 120.88 90.67 130.23 89.89 139.34 89.76 C 148.46 89.64 157.37 90 166.39 89.94 C 175.41 89.89 184.31 89.32 193.45 89.42 C 202.6 89.52 212.23 90.54 221.27 90.54 C 230.31 90.54 238.65 89.37 247.67 89.4 C 256.7 89.42 269.69 90.31 275.43 90.7 C 281.17 91.09 280.44 91.05 282.09 91.75 C 283.74 92.45 284.04 93.63 285.33 94.88 C 286.61 96.13 289.02 97.62 289.81 99.23 C 290.61 100.85 289.97 103.7 290.1 104.57 C 290.23 105.44 290.55 99.26 290.6 104.48 C 290.65 109.7 290.45 125.55 290.42 135.89 C 290.38 146.23 290.52 160.64 290.41 166.52 C 290.3 172.4 290.61 169.46 289.78 171.16 C 288.94 172.87 286.89 175.41 285.42 176.75 C 283.94 178.1 282.36 178.57 280.91 179.23 C 279.45 179.9 277.58 180.64 276.68 180.75 C 275.77 180.87 280.19 180 275.47 179.92 C 270.76 179.83 257.31 180.18 248.39 180.23 C 239.48 180.28 231.03 180.26 221.98 180.21 C 212.94 180.16 203.46 179.95 194.15 179.93 C 184.83 179.91 175.46 179.93 166.11 180.08 C 156.76 180.23 147.26 180.95 138.03 180.83 C 128.79 180.71 119.78 179.37 110.69 179.36 C 101.61 179.35 88.79 180.85 83.54 180.76 C 78.3 180.67 80.72 179.76 79.23 178.84 C 77.74 177.92 75.99 176.51 74.61 175.24 C 73.24 173.98 71.73 172.89 70.99 171.24 C 70.24 169.59 70.37 166.1 70.16 165.33 C 69.96 164.56 69.65 171.58 69.75 166.62 C 69.86 161.67 70.68 145.9 70.79 135.6 C 70.91 125.29 70.54 111.04 70.44 104.79 C 70.34 98.54 69.56 99.99 70.2 98.08 C 70.83 96.18 72.81 94.61 74.25 93.36 C 75.7 92.11 77.11 91.13 78.88 90.59 C 80.65 90.05 83.98 90.25 84.85 90.12 C 85.73 90 79.68 89.74 84.15 89.84 Z" fill="#D8F5F0" opacity="1"/>
  <path d="M 82.64 90.06 C 87.09 89.71 101.93 89.13 111.54 89.29 C 121.15 89.46 131.25 91.05 140.3 91.05 C 149.36 91.06 157.03 89.71 165.86 89.32 C 174.69 88.93 184.28 88.55 193.27 88.69 C 202.26 88.83 210.48 90.08 219.79 90.19 C 229.1 90.29 239.74 89.34 249.13 89.31 C 258.52 89.28 270.54 89.84 276.13 90.02 C 281.72 90.21 280.97 89.64 282.69 90.43 C 284.42 91.22 285.27 93.28 286.49 94.76 C 287.71 96.24 289.19 97.55 290.02 99.31 C 290.86 101.07 291.42 104.78 291.48 105.32 C 291.53 105.86 290.52 97.38 290.36 102.56 C 290.2 107.75 290.41 126.07 290.51 136.41 C 290.62 146.76 291.44 159.01 290.97 164.62 C 290.5 170.23 288.34 168.17 287.69 170.07 C 287.04 171.97 288.32 174.35 287.07 176.02 C 285.82 177.69 282.22 179.61 280.21 180.08 C 278.2 180.54 275.5 178.77 275.01 178.81 C 274.51 178.86 281.87 180.12 277.25 180.36 C 272.64 180.6 256.85 180.23 247.32 180.28 C 237.79 180.32 228.84 180.7 220.06 180.62 C 211.28 180.54 203.71 179.78 194.63 179.81 C 185.55 179.85 174.67 180.56 165.59 180.84 C 156.5 181.12 149.37 181.58 140.12 181.49 C 130.88 181.4 119.67 180.62 110.12 180.29 C 100.56 179.97 88.21 179.9 82.81 179.54 C 77.4 179.18 79.06 178.61 77.7 178.14 C 76.33 177.67 75.84 178.09 74.61 176.72 C 73.38 175.36 71.28 171.47 70.34 169.93 C 69.4 168.38 69.19 168.1 68.97 167.45 C 68.76 166.8 68.7 171.48 69.06 166.04 C 69.42 160.6 70.77 145.35 71.15 134.8 C 71.52 124.25 71.39 108.93 71.31 102.74 C 71.23 96.56 69.95 99.38 70.66 97.71 C 71.38 96.03 74.08 93.94 75.59 92.71 C 77.11 91.48 78.24 90.54 79.78 90.32 C 81.33 90.11 84.38 91.45 84.85 91.41 C 85.33 91.36 78.19 90.42 82.64 90.06 Z" fill="none" stroke="#0D9488" stroke-width="3" stroke-linecap="round" stroke-linejoin="round" opacity="1.0"/>
  <path d="M 85.54 90.53 C 89.85 90.15 102.06 88.46 111.28 88.69 C 120.5 88.91 131.92 91.52 140.86 91.87 C 149.8 92.22 156.17 91.28 164.92 90.77 C 173.66 90.26 184.33 88.69 193.33 88.8 C 202.33 88.92 210.07 90.99 218.91 91.45 C 227.76 91.91 237.1 92.18 246.4 91.56 C 255.7 90.95 268.92 87.52 274.71 87.75 C 280.49 87.99 279.51 91.99 281.13 92.98 C 282.74 93.96 283.17 92.75 284.38 93.67 C 285.6 94.59 287.4 96.91 288.41 98.48 C 289.42 100.05 289.83 102.24 290.44 103.08 C 291.04 103.93 292.41 98.11 292.05 103.56 C 291.69 109.01 288.47 125.54 288.27 135.79 C 288.07 146.04 290.88 159.12 290.83 165.04 C 290.77 170.96 288.94 169.77 287.95 171.3 C 286.96 172.82 285.74 173.04 284.88 174.18 C 284.02 175.32 284.5 176.97 282.79 178.11 C 281.08 179.25 276.04 180.97 274.63 181.01 C 273.22 181.05 278.78 178.54 274.33 178.35 C 269.88 178.17 256.97 179.53 247.91 179.91 C 238.84 180.28 228.8 180.77 219.95 180.6 C 211.09 180.44 203.84 178.67 194.77 178.92 C 185.7 179.17 175.02 182.18 165.51 182.08 C 156.01 181.98 147.06 178.68 137.74 178.32 C 128.41 177.95 118.72 179.81 109.57 179.91 C 100.41 180.01 87.86 178.78 82.8 178.89 C 77.74 179.01 80.63 181.34 79.23 180.61 C 77.83 179.88 75.84 176.39 74.4 174.5 C 72.96 172.6 71 170.42 70.59 169.24 C 70.18 168.05 72.24 167.59 71.92 167.39 C 71.6 167.18 68.68 173.09 68.67 168.01 C 68.66 162.92 71.89 147.56 71.86 136.87 C 71.82 126.18 68.48 110.46 68.46 103.86 C 68.45 97.26 70.47 98.55 71.77 97.26 C 73.07 95.96 75.31 96.99 76.26 96.09 C 77.2 95.18 75.94 92.69 77.46 91.84 C 78.98 90.98 84.02 91.18 85.37 90.97 C 86.71 90.75 81.22 90.91 85.54 90.53 Z" fill="none" stroke="#0D9488" stroke-width="2.1" stroke-linecap="round" stroke-linejoin="round" opacity="0.45"/>
  <text x="180" y="127" font-family="Chalkboard SE, Comic Sans MS, Comic Neue, Segoe Print, Bradley Hand, cursive" font-size="23" fill="#0D9488" text-anchor="middle">source</text>
  <text x="180" y="153" font-family="Chalkboard SE, Comic Sans MS, Comic Neue, Segoe Print, Bradley Hand, cursive" font-size="18" fill="#0D9488" text-anchor="middle">public state</text>
  <path d="M 410.28 96.32 C 414.46 96.34 426.16 97.65 435.29 97.37 C 444.43 97.1 455.64 94.95 465.09 94.68 C 474.53 94.4 483.01 95.28 491.98 95.71 C 500.95 96.13 510.09 96.96 518.91 97.24 C 527.73 97.51 535.68 97.76 544.9 97.35 C 554.12 96.94 565.08 95.1 574.22 94.77 C 583.35 94.44 594.25 94.91 599.7 95.36 C 605.15 95.81 604.86 96.44 606.91 97.45 C 608.95 98.46 610.76 100.1 611.98 101.42 C 613.2 102.74 613.93 104.14 614.22 105.36 C 614.52 106.59 613.61 107.83 613.73 108.77 C 613.85 109.71 614.98 105.42 614.95 110.99 C 614.91 116.55 613.37 132.07 613.53 142.16 C 613.7 152.26 615.86 165.57 615.96 171.57 C 616.06 177.57 615 176.22 614.12 178.15 C 613.25 180.09 612.18 182.15 610.71 183.19 C 609.23 184.24 607.09 184.06 605.26 184.44 C 603.42 184.82 600.38 185 599.68 185.47 C 598.98 185.93 605.52 187.29 601.06 187.23 C 596.6 187.17 581.84 185.42 572.92 185.1 C 564 184.79 556.76 184.95 547.53 185.34 C 538.3 185.73 526.8 187.43 517.54 187.43 C 508.28 187.43 501.09 185.52 491.97 185.33 C 482.86 185.15 472.34 186.39 462.84 186.32 C 453.35 186.24 443.93 184.93 435.02 184.9 C 426.1 184.86 414.75 185.95 409.36 186.1 C 403.98 186.25 404.44 186.31 402.68 185.8 C 400.93 185.28 399.94 184.56 398.83 183.01 C 397.71 181.45 396.81 178.4 396 176.48 C 395.19 174.55 394.36 172.31 393.95 171.46 C 393.55 170.61 393.32 176.37 393.55 171.38 C 393.77 166.39 394.99 151.76 395.29 141.5 C 395.58 131.23 395 115.97 395.32 109.79 C 395.64 103.61 396.76 106.19 397.2 104.41 C 397.64 102.64 397.01 100.42 397.96 99.15 C 398.9 97.87 400.82 97.1 402.87 96.78 C 404.92 96.46 409.02 97.31 410.25 97.23 C 411.49 97.16 406.11 96.29 410.28 96.32 Z" fill="#1F2937" opacity="0.13"/>
  <path d="M 404.19 89.36 C 408.84 89.36 423.01 90.27 432.05 90.52 C 441.08 90.76 449.28 90.92 458.39 90.83 C 467.5 90.74 477.53 90.15 486.73 89.97 C 495.92 89.8 504.43 89.62 513.54 89.78 C 522.65 89.93 532.08 90.9 541.39 90.89 C 550.71 90.89 560.36 90.05 569.43 89.75 C 578.5 89.45 590.57 88.88 595.81 89.1 C 601.05 89.32 599.07 90.09 600.87 91.06 C 602.67 92.03 605.31 93.69 606.63 94.92 C 607.96 96.15 608.38 96.97 608.83 98.43 C 609.27 99.9 608.95 102.73 609.29 103.7 C 609.64 104.66 610.64 99.01 610.9 104.24 C 611.16 109.47 610.85 124.68 610.84 135.09 C 610.82 145.51 611.22 160.8 610.81 166.75 C 610.41 172.69 609.13 169.29 608.41 170.76 C 607.69 172.22 607.58 174.2 606.51 175.54 C 605.44 176.88 603.79 178.07 601.97 178.8 C 600.16 179.53 596.55 179.86 595.62 179.95 C 594.68 180.04 600.75 179.45 596.38 179.35 C 592.02 179.24 578.54 179.15 569.44 179.3 C 560.34 179.45 550.96 180.25 541.77 180.23 C 532.58 180.21 523.64 179.13 514.31 179.18 C 504.98 179.24 495.05 180.3 485.79 180.56 C 476.54 180.82 467.89 180.78 458.76 180.74 C 449.64 180.7 440.28 180.42 431.03 180.32 C 421.78 180.22 408.58 180.52 403.27 180.14 C 397.95 179.77 400.76 178.9 399.13 178.05 C 397.5 177.2 394.85 176.28 393.49 175.05 C 392.12 173.81 391.48 172.19 390.95 170.65 C 390.42 169.11 390.45 166.6 390.31 165.82 C 390.17 165.04 390.11 171.03 390.09 165.96 C 390.07 160.9 390.17 145.76 390.19 135.42 C 390.22 125.09 390.07 110.16 390.24 103.96 C 390.42 97.77 390.67 99.76 391.22 98.25 C 391.78 96.75 392.18 96 393.56 94.94 C 394.93 93.88 397.72 92.65 399.48 91.91 C 401.24 91.17 403.35 90.92 404.13 90.49 C 404.92 90.07 399.54 89.35 404.19 89.36 Z" fill="#E7E9FF" opacity="1"/>
  <path d="M 403.84 89.43 C 408.09 89.47 420.58 91.63 429.96 91.48 C 439.35 91.33 450.94 88.8 460.14 88.52 C 469.35 88.25 476.08 89.76 485.2 89.82 C 494.31 89.87 505.4 88.82 514.83 88.87 C 524.25 88.93 532.55 89.96 541.73 90.12 C 550.9 90.28 561.06 90.08 569.88 89.82 C 578.71 89.56 589.59 88.44 594.68 88.57 C 599.78 88.7 598.68 89.93 600.47 90.61 C 602.25 91.28 603.87 91.52 605.39 92.65 C 606.91 93.79 609.01 95.53 609.61 97.41 C 610.21 99.29 609.04 102.66 608.99 103.94 C 608.94 105.22 609.24 99.81 609.33 105.1 C 609.41 110.39 609.43 125.52 609.51 135.7 C 609.59 145.88 609.72 160.16 609.79 166.18 C 609.87 172.19 610.72 170.04 609.98 171.78 C 609.25 173.52 607.01 175.24 605.38 176.6 C 603.76 177.97 601.61 179.47 600.24 179.95 C 598.87 180.44 598.04 179.52 597.15 179.51 C 596.27 179.49 599.75 179.88 594.94 179.88 C 590.12 179.88 577.29 179.3 568.27 179.49 C 559.25 179.68 550.01 181.08 540.8 181 C 531.58 180.93 522.26 179.28 512.96 179.06 C 503.65 178.84 493.93 179.56 484.96 179.68 C 475.99 179.81 467.87 179.77 459.13 179.82 C 450.38 179.87 441.45 180.09 432.47 179.98 C 423.49 179.87 410.68 179.47 405.23 179.15 C 399.79 178.83 401.85 178.65 399.79 178.06 C 397.73 177.46 394.26 176.79 392.87 175.6 C 391.48 174.41 392.09 172.62 391.47 170.93 C 390.85 169.25 389.3 166.32 389.14 165.5 C 388.99 164.68 390.18 171.21 390.56 166.03 C 390.93 160.86 391.65 144.9 391.38 134.46 C 391.11 124.02 388.82 109.39 388.92 103.37 C 389.02 97.35 391.01 100.07 391.99 98.36 C 392.96 96.65 393.66 94.49 394.77 93.1 C 395.88 91.71 397.03 90.33 398.65 90.01 C 400.27 89.7 403.61 91.31 404.48 91.21 C 405.35 91.12 399.59 89.38 403.84 89.43 Z" fill="none" stroke="#4F46E5" stroke-width="3" stroke-linecap="round" stroke-linejoin="round" opacity="1.0"/>
  <path d="M 401.92 90.83 C 406.66 91.18 422.22 91.21 431.87 91.16 C 441.51 91.11 450.57 90.77 459.8 90.54 C 469.02 90.31 478.26 89.7 487.22 89.78 C 496.18 89.86 504.3 90.68 513.55 91.02 C 522.8 91.36 533.76 92.05 542.72 91.8 C 551.67 91.55 558.59 89.84 567.27 89.51 C 575.94 89.17 588.9 89.7 594.76 89.8 C 600.63 89.89 600.81 89.61 602.47 90.09 C 604.13 90.57 603.85 90.98 604.74 92.69 C 605.64 94.4 606.79 98.68 607.84 100.34 C 608.88 101.99 610.85 101.66 611.02 102.62 C 611.18 103.57 608.67 100.51 608.82 106.07 C 608.96 111.63 611.43 125.94 611.87 135.96 C 612.3 145.98 611.69 160.38 611.41 166.2 C 611.13 172.03 611.02 169.02 610.2 170.92 C 609.39 172.83 607.77 176.36 606.53 177.63 C 605.28 178.89 604.73 178.39 602.74 178.49 C 600.75 178.58 595.98 177.66 594.58 178.22 C 593.17 178.79 598.95 181.39 594.31 181.87 C 589.66 182.36 575.46 181.46 566.69 181.14 C 557.92 180.82 550.77 180.08 541.69 179.98 C 532.6 179.88 521.3 180.65 512.18 180.54 C 503.05 180.44 495.59 179.22 486.95 179.33 C 478.32 179.44 469.61 180.78 460.37 181.23 C 451.13 181.68 440.86 182.58 431.52 182.05 C 422.19 181.51 409.84 178.43 404.35 178.03 C 398.86 177.64 400.34 179.66 398.59 179.68 C 396.83 179.69 395.04 179.23 393.81 178.11 C 392.59 176.99 391.7 174.95 391.25 172.96 C 390.8 170.98 391.14 167.55 391.12 166.2 C 391.09 164.85 391.55 170.14 391.11 164.85 C 390.67 159.56 388.94 144.24 388.49 134.44 C 388.03 124.63 387.63 111.85 388.39 106.04 C 389.15 100.22 392.05 101.88 393.06 99.55 C 394.06 97.22 393.51 93.28 394.43 92.06 C 395.35 90.85 397.06 92.74 398.56 92.24 C 400.06 91.75 402.89 89.33 403.45 89.1 C 404.01 88.86 397.18 90.49 401.92 90.83 Z" fill="none" stroke="#4F46E5" stroke-width="2.1" stroke-linecap="round" stroke-linejoin="round" opacity="0.45"/>
  <text x="500" y="127" font-family="Chalkboard SE, Comic Sans MS, Comic Neue, Segoe Print, Bradley Hand, cursive" font-size="23" fill="#4F46E5" text-anchor="middle">skin</text>
  <text x="500" y="153" font-family="Chalkboard SE, Comic Sans MS, Comic Neue, Segoe Print, Bradley Hand, cursive" font-size="18" fill="#4F46E5" text-anchor="middle">public state</text>
  <path d="M 729.94 95.69 C 734.4 95.47 746.37 94.34 755.4 94.55 C 764.42 94.77 774.52 96.88 784.07 96.98 C 793.63 97.08 803.46 95.39 812.73 95.15 C 821.99 94.9 830.75 95.12 839.64 95.49 C 848.54 95.87 857.32 97.29 866.08 97.42 C 874.83 97.54 883.25 96.53 892.15 96.24 C 901.06 95.95 914.02 95.38 919.51 95.68 C 924.99 95.98 923.2 97.27 925.05 98.03 C 926.9 98.79 929.17 99 930.6 100.24 C 932.03 101.47 932.93 103.96 933.62 105.44 C 934.31 106.92 934.76 108.15 934.74 109.14 C 934.73 110.12 933.44 105.98 933.53 111.35 C 933.62 116.73 935.15 131.15 935.29 141.36 C 935.42 151.57 934.52 166.4 934.35 172.61 C 934.18 178.81 934.75 177.22 934.27 178.59 C 933.8 179.97 933.06 179.77 931.5 180.87 C 929.93 181.96 926.64 184.21 924.88 185.18 C 923.12 186.14 921.72 186.74 920.95 186.66 C 920.18 186.57 924.77 184.7 920.28 184.66 C 915.79 184.61 903.08 186.33 893.99 186.39 C 884.9 186.45 874.83 184.96 865.72 185.01 C 856.61 185.06 848.62 186.32 839.33 186.69 C 830.04 187.06 819.1 187.49 809.98 187.22 C 800.87 186.95 793.33 185.28 784.62 185.06 C 775.91 184.84 767.21 185.86 757.73 185.9 C 748.24 185.93 733.33 185.68 727.72 185.27 C 722.11 184.87 725.25 183.99 724.06 183.46 C 722.86 182.93 721.82 183.31 720.55 182.09 C 719.29 180.88 717.41 177.64 716.46 176.2 C 715.52 174.75 715.26 173.95 714.86 173.44 C 714.46 172.94 714.12 178.47 714.05 173.18 C 713.98 167.89 714.42 152.3 714.44 141.68 C 714.46 131.06 713.81 115.78 714.16 109.46 C 714.52 103.14 715.59 105.54 716.57 103.77 C 717.56 102 718.66 99.77 720.06 98.83 C 721.45 97.9 723.52 98.65 724.94 98.16 C 726.36 97.67 727.76 96.28 728.59 95.87 C 729.42 95.46 725.47 95.91 729.94 95.69 Z" fill="#1F2937" opacity="0.13"/>
  <path d="M 723.91 90.59 C 728.45 90.66 742.42 90.21 751.62 90.26 C 760.82 90.3 770.14 90.86 779.1 90.83 C 788.07 90.8 796.4 90.16 805.42 90.07 C 814.45 89.98 823.84 90.38 833.23 90.28 C 842.63 90.18 852.44 89.47 861.81 89.49 C 871.17 89.5 880.26 90.42 889.4 90.38 C 898.54 90.34 911.35 89 916.65 89.25 C 921.94 89.49 919.71 91.13 921.18 91.86 C 922.66 92.59 924.33 92.53 925.49 93.63 C 926.66 94.74 927.43 96.65 928.16 98.51 C 928.9 100.37 929.56 103.99 929.9 104.79 C 930.23 105.6 930.19 98.36 930.15 103.34 C 930.12 108.33 929.82 124.33 929.67 134.69 C 929.53 145.05 929.48 159.25 929.29 165.51 C 929.1 171.77 929.04 170.46 928.53 172.23 C 928.02 174.01 927.49 175.17 926.2 176.16 C 924.91 177.16 922.37 177.49 920.78 178.19 C 919.2 178.89 917.34 179.95 916.68 180.36 C 916.02 180.78 921.42 180.6 916.83 180.67 C 912.23 180.74 898.37 181.04 889.1 180.8 C 879.84 180.55 870.57 179.25 861.23 179.19 C 851.9 179.13 842.27 180.39 833.08 180.44 C 823.89 180.49 815.2 179.63 806.07 179.51 C 796.94 179.4 787.38 179.67 778.3 179.75 C 769.23 179.82 760.77 179.79 751.62 179.96 C 742.47 180.13 728.89 181.05 723.43 180.78 C 717.97 180.51 720.51 179.07 718.86 178.34 C 717.21 177.61 714.79 177.68 713.51 176.41 C 712.23 175.15 711.69 172.42 711.18 170.76 C 710.67 169.1 710.63 167.18 710.46 166.47 C 710.29 165.76 710.27 171.82 710.16 166.49 C 710.05 161.17 709.69 144.89 709.8 134.51 C 709.9 124.14 710.62 110.27 710.78 104.26 C 710.93 98.24 710.22 100 710.72 98.43 C 711.22 96.86 712.36 96.16 713.78 94.84 C 715.2 93.53 717.47 91.38 719.24 90.54 C 721.01 89.7 723.63 89.81 724.41 89.81 C 725.19 89.82 719.38 90.51 723.91 90.59 Z" fill="#FDEBCF" opacity="1"/>
  <path d="M 723.44 90.88 C 728.07 90.72 743.15 90.5 752.15 90.28 C 761.15 90.07 768.37 89.4 777.45 89.58 C 786.53 89.75 797.34 91.01 806.63 91.33 C 815.92 91.65 824.05 91.72 833.21 91.49 C 842.38 91.26 852.51 90.21 861.6 89.94 C 870.7 89.67 878.69 89.74 887.78 89.89 C 896.86 90.05 910.49 90.48 916.12 90.87 C 921.76 91.25 919.83 91.56 921.56 92.21 C 923.3 92.86 925.37 93.84 926.54 94.75 C 927.71 95.67 927.81 96 928.57 97.7 C 929.33 99.4 930.76 103.91 931.12 104.96 C 931.48 106.01 930.83 98.87 930.74 103.98 C 930.64 109.09 930.49 125.31 930.54 135.62 C 930.59 145.93 931.17 159.81 931.02 165.86 C 930.88 171.9 930.29 170.42 929.66 171.88 C 929.04 173.34 928.81 173.38 927.29 174.63 C 925.77 175.88 922.18 178.32 920.54 179.37 C 918.9 180.41 918.42 180.59 917.45 180.91 C 916.48 181.23 919.32 181.23 914.73 181.29 C 910.14 181.36 899.03 181.74 889.91 181.29 C 880.79 180.84 869.31 178.77 860 178.6 C 850.68 178.43 842.92 180.11 834.03 180.28 C 825.15 180.44 816.09 179.85 806.7 179.59 C 797.31 179.32 787.03 178.69 777.69 178.69 C 768.36 178.7 759.89 179.32 750.7 179.63 C 741.5 179.93 727.64 180.72 722.52 180.52 C 717.41 180.32 721.27 179.01 720.02 178.42 C 718.77 177.83 716.72 178.14 715.03 176.97 C 713.34 175.79 710.56 173.1 709.87 171.38 C 709.19 169.66 711.12 167.35 710.93 166.67 C 710.75 165.98 708.76 172.64 708.76 167.27 C 708.76 161.9 710.69 144.88 710.93 134.42 C 711.18 123.96 710.31 110.59 710.23 104.51 C 710.15 98.43 709.91 99.6 710.45 97.93 C 710.99 96.26 712.29 95.84 713.47 94.49 C 714.65 93.14 715.7 90.36 717.52 89.82 C 719.33 89.29 723.39 91.08 724.37 91.25 C 725.36 91.43 718.81 91.04 723.44 90.88 Z" fill="none" stroke="#D97706" stroke-width="3" stroke-linecap="round" stroke-linejoin="round" opacity="1.0"/>
  <path d="M 722.32 89.4 C 727.3 89.69 743.24 91.77 752.92 91.97 C 762.61 92.17 771.75 91.06 780.41 90.62 C 789.08 90.19 795.96 89.57 804.91 89.38 C 813.87 89.19 824.44 89.23 834.15 89.49 C 843.86 89.75 854.04 90.74 863.18 90.95 C 872.33 91.16 880.13 90.56 889.04 90.74 C 897.94 90.93 911.18 91.96 916.62 92.07 C 922.05 92.18 920.05 90.81 921.62 91.39 C 923.2 91.97 924.59 94.58 926.06 95.54 C 927.53 96.51 929.88 95.67 930.46 97.18 C 931.05 98.7 929.48 103.21 929.56 104.63 C 929.64 106.05 930.61 100.49 930.92 105.7 C 931.24 110.91 931.28 125.65 931.46 135.88 C 931.63 146.11 932.63 161.18 931.97 167.07 C 931.32 172.97 928.39 169.62 927.55 171.26 C 926.71 172.9 928.08 175.67 926.94 176.93 C 925.79 178.19 922.33 178.16 920.7 178.81 C 919.07 179.46 917.77 180.68 917.15 180.85 C 916.54 181.01 921.64 180.2 917.01 179.79 C 912.39 179.37 898.7 178.28 889.41 178.36 C 880.11 178.45 870.86 180.33 861.25 180.31 C 851.63 180.28 840.99 177.96 831.71 178.2 C 822.44 178.44 814.31 181.47 805.6 181.77 C 796.88 182.07 788.32 180.24 779.44 180 C 770.55 179.76 761.81 180.36 752.27 180.33 C 742.73 180.3 727.78 180.42 722.18 179.84 C 716.58 179.26 719.94 177.62 718.67 176.86 C 717.4 176.1 715.58 175.85 714.58 175.3 C 713.58 174.75 713.3 175.06 712.68 173.57 C 712.05 172.08 711 167.51 710.83 166.34 C 710.67 165.17 711.84 171.95 711.7 166.55 C 711.56 161.15 710.49 144.71 709.99 133.95 C 709.48 123.18 708.44 107.51 708.69 101.95 C 708.94 96.39 710.87 102.09 711.49 100.57 C 712.1 99.06 711.53 94.3 712.38 92.86 C 713.23 91.42 714.8 92.36 716.59 91.92 C 718.38 91.48 722.14 90.66 723.1 90.24 C 724.05 89.82 717.35 89.12 722.32 89.4 Z" fill="none" stroke="#D97706" stroke-width="2.1" stroke-linecap="round" stroke-linejoin="round" opacity="0.45"/>
  <text x="820" y="127" font-family="Chalkboard SE, Comic Sans MS, Comic Neue, Segoe Print, Bradley Hand, cursive" font-size="23" fill="#D97706" text-anchor="middle">output</text>
  <text x="820" y="153" font-family="Chalkboard SE, Comic Sans MS, Comic Neue, Segoe Print, Bradley Hand, cursive" font-size="18" fill="#D97706" text-anchor="middle">public state</text>
  <path d="M 291.99 135.23 C 293.07 135.24 296.45 135.23 298.5 135.27 C 300.55 135.3 302.35 135.6 304.27 135.46 C 306.19 135.31 308.21 134.49 310.04 134.39 C 311.86 134.3 313.07 134.92 315.2 134.89 C 317.33 134.86 320.73 134.25 322.82 134.21 C 324.92 134.18 326.07 134.68 327.79 134.68 C 329.5 134.69 331.09 134.06 333.14 134.23 C 335.18 134.41 338.05 135.7 340.06 135.74 C 342.07 135.78 343.32 134.67 345.19 134.47 C 347.06 134.28 349.19 134.61 351.28 134.58 C 353.37 134.55 355.75 134.22 357.74 134.29 C 359.73 134.36 361.31 134.87 363.22 134.98 C 365.13 135.08 367.19 134.9 369.19 134.92 C 371.2 134.94 373.26 134.95 375.25 135.09 C 377.25 135.24 380.17 135.68 381.16 135.8" fill="none" stroke="#D97706" stroke-width="3" stroke-linecap="round" stroke-linejoin="round" opacity="1.0"/>
  <path d="M 293.16 135.94 C 294.17 135.57 297.37 134.1 299.2 133.76 C 301.04 133.42 302.18 133.61 304.17 133.9 C 306.15 134.18 309.24 135.25 311.11 135.47 C 312.98 135.69 313.44 135.15 315.4 135.22 C 317.36 135.29 320.82 135.9 322.87 135.89 C 324.92 135.89 325.75 135.44 327.68 135.18 C 329.6 134.91 332.2 134.49 334.42 134.3 C 336.64 134.11 339 133.78 340.98 134.02 C 342.95 134.27 344.34 135.47 346.27 135.77 C 348.2 136.06 350.5 135.84 352.59 135.79 C 354.67 135.75 356.93 135.44 358.79 135.49 C 360.66 135.53 362.09 136 363.79 136.07 C 365.5 136.14 366.81 136.03 369.03 135.92 C 371.25 135.8 374.98 135.55 377.09 135.37 C 379.2 135.18 380.92 134.91 381.69 134.81" fill="none" stroke="#D97706" stroke-width="2.1" stroke-linecap="round" stroke-linejoin="round" opacity="0.45"/>
  <path d="M 388 135 L 377.96 139.49 L 377.96 130.51 Z" fill="#D97706"/>
  <path d="M 612.64 135.16 C 613.64 135.11 616.86 134.94 618.62 134.87 C 620.38 134.79 621.32 134.78 623.21 134.74 C 625.1 134.69 627.88 134.55 629.98 134.6 C 632.09 134.65 633.75 135.08 635.84 135.04 C 637.93 135 640.57 134.37 642.52 134.37 C 644.46 134.38 645.7 134.88 647.52 135.05 C 649.34 135.22 651.24 135.29 653.45 135.39 C 655.65 135.49 658.77 135.83 660.75 135.65 C 662.72 135.46 663.54 134.35 665.28 134.31 C 667.03 134.26 669.1 135.35 671.19 135.37 C 673.29 135.38 675.78 134.36 677.85 134.42 C 679.91 134.47 681.51 135.49 683.61 135.7 C 685.71 135.91 688.36 135.9 690.44 135.66 C 692.52 135.42 694.27 134.44 696.09 134.26 C 697.9 134.09 700.44 134.55 701.31 134.61" fill="none" stroke="#D97706" stroke-width="3" stroke-linecap="round" stroke-linejoin="round" opacity="1.0"/>
  <path d="M 611.14 133.7 C 612.16 133.82 614.9 134.18 617.25 134.39 C 619.59 134.61 623.2 134.74 625.22 135 C 627.24 135.26 627.36 135.75 629.38 135.95 C 631.39 136.16 635.39 136.45 637.32 136.23 C 639.26 136 639.22 134.82 641 134.59 C 642.78 134.36 645.83 134.91 647.99 134.85 C 650.15 134.8 652.16 134.28 653.96 134.27 C 655.75 134.27 656.64 134.51 658.78 134.82 C 660.92 135.14 664.53 135.97 666.79 136.15 C 669.06 136.33 670.62 136.31 672.37 135.91 C 674.12 135.51 675.28 134 677.3 133.74 C 679.31 133.48 682.21 133.92 684.46 134.35 C 686.72 134.79 688.74 136.4 690.84 136.35 C 692.93 136.29 695 134.43 697.04 134.02 C 699.08 133.61 702.06 133.92 703.07 133.91" fill="none" stroke="#D97706" stroke-width="2.1" stroke-linecap="round" stroke-linejoin="round" opacity="0.45"/>
  <path d="M 708 135 L 697.96 139.49 L 697.96 130.51 Z" fill="#D97706"/>
  <path d="M 481.96 266.6 C 482.25 268.78 480.96 270.43 480.57 272.13 C 480.18 273.83 480.41 274.46 479.61 276.79 C 478.81 279.12 476.58 284.08 475.78 286.13 C 474.98 288.17 476.08 287.83 474.79 289.06 C 473.49 290.29 469.48 292.12 468.01 293.53 C 466.54 294.94 467.19 295.89 465.97 297.53 C 464.75 299.18 462.46 302.07 460.68 303.41 C 458.9 304.74 457.5 304.71 455.3 305.55 C 453.1 306.39 449.25 307.93 447.49 308.44 C 445.72 308.94 446.42 308.22 444.71 308.58 C 443 308.95 439.91 310.44 437.23 310.65 C 434.55 310.85 430.69 309.81 428.62 309.82 C 426.55 309.83 426.62 311.17 424.81 310.69 C 423 310.21 419.59 308.09 417.74 306.92 C 415.89 305.76 415.35 304.87 413.69 303.68 C 412.03 302.5 409.83 300.87 407.8 299.81 C 405.76 298.74 403.02 298.36 401.49 297.29 C 399.95 296.23 399.39 295.11 398.6 293.4 C 397.8 291.7 397.58 289.14 396.71 287.06 C 395.84 284.98 394.33 283.07 393.38 280.94 C 392.43 278.8 391.84 276.07 390.99 274.24 C 390.14 272.42 388.41 272 388.29 269.99 C 388.17 267.97 389.78 264.07 390.26 262.13 C 390.75 260.19 390.81 260.54 391.21 258.35 C 391.61 256.16 391.74 250.99 392.67 248.98 C 393.61 246.98 395.53 247.8 396.81 246.31 C 398.09 244.82 399.38 241.73 400.33 240.02 C 401.28 238.32 401.07 237.97 402.52 236.07 C 403.98 234.16 407.17 229.94 409.07 228.6 C 410.98 227.26 412.1 228.65 413.93 228 C 415.77 227.35 418.62 225.86 420.11 224.68 C 421.59 223.49 421.26 221.5 422.85 220.88 C 424.45 220.26 427.62 221.03 429.67 220.96 C 431.72 220.9 432.79 220.17 435.17 220.49 C 437.54 220.82 441.4 222.23 443.91 222.92 C 446.41 223.6 448.58 223.97 450.21 224.58 C 451.85 225.19 452.21 226.19 453.7 226.6 C 455.19 227.01 457.44 225.95 459.15 227.03 C 460.85 228.11 462.51 231.29 463.94 233.08 C 465.38 234.87 466.32 236.09 467.75 237.77 C 469.19 239.44 471.37 241.69 472.55 243.13 C 473.72 244.57 473.71 244.51 474.82 246.41 C 475.93 248.3 478.53 252.39 479.2 254.5 C 479.88 256.6 478.4 257.04 478.86 259.05 C 479.32 261.07 481.68 264.42 481.96 266.6 Z" fill="#1F2937" opacity="0.13"/>
  <path d="M 474.66 260.1 C 474.51 262.04 474.45 263.67 474.17 265.8 C 473.9 267.94 473.45 270.73 473 272.89 C 472.55 275.05 472.07 276.93 471.46 278.78 C 470.85 280.63 470.48 282.17 469.34 283.98 C 468.19 285.78 465.97 287.96 464.59 289.61 C 463.2 291.26 462.63 292.41 461.02 293.88 C 459.41 295.35 456.92 297.19 454.93 298.43 C 452.95 299.66 451.08 300.4 449.11 301.29 C 447.14 302.18 445.19 303.05 443.12 303.75 C 441.05 304.45 438.74 305.47 436.69 305.5 C 434.64 305.53 432.75 303.98 430.81 303.93 C 428.86 303.87 426.94 305.12 425.05 305.17 C 423.15 305.23 421.56 304.65 419.44 304.26 C 417.32 303.88 414.17 303.9 412.32 302.87 C 410.48 301.85 410.2 299.51 408.37 298.12 C 406.55 296.73 403.37 295.64 401.39 294.56 C 399.4 293.48 397.77 292.81 396.44 291.65 C 395.11 290.49 394.6 289.41 393.4 287.59 C 392.2 285.77 390.05 282.58 389.23 280.72 C 388.42 278.86 389 278.22 388.51 276.43 C 388.02 274.63 386.72 272.09 386.28 269.94 C 385.84 267.79 385.92 265.52 385.87 263.53 C 385.82 261.54 385.77 260.2 385.97 258.01 C 386.18 255.83 386.99 252.47 387.11 250.41 C 387.24 248.35 386.3 247.53 386.73 245.65 C 387.15 243.76 388.45 240.99 389.67 239.09 C 390.89 237.18 392.65 235.95 394.04 234.24 C 395.42 232.52 396.8 230.23 397.98 228.8 C 399.16 227.38 399.39 227.18 401.13 225.71 C 402.87 224.23 406.55 221.08 408.42 219.96 C 410.3 218.83 410.53 219.49 412.37 218.97 C 414.2 218.44 417.24 217.37 419.43 216.8 C 421.61 216.23 423.53 215.76 425.5 215.56 C 427.47 215.36 429.16 215.55 431.26 215.62 C 433.36 215.68 436.13 215.69 438.11 215.97 C 440.08 216.25 441.32 216.79 443.13 217.27 C 444.94 217.75 446.79 218.08 448.96 218.86 C 451.13 219.63 454.11 220.65 456.15 221.94 C 458.19 223.23 459.78 225.09 461.2 226.59 C 462.62 228.09 463.62 229.22 464.68 230.93 C 465.73 232.63 466.29 235.01 467.53 236.83 C 468.78 238.65 471.33 240.16 472.16 241.86 C 473 243.57 472.05 245 472.54 247.05 C 473.02 249.11 474.73 252 475.09 254.17 C 475.44 256.35 474.81 258.16 474.66 260.1 Z" fill="#D8F5F0" opacity="1"/>
  <path d="M 474.53 260.78 C 474.19 262.59 473.27 264.25 472.91 266.5 C 472.55 268.76 472.87 272.57 472.37 274.29 C 471.88 276.02 470.91 275.17 469.97 276.86 C 469.03 278.55 467.9 282.27 466.72 284.44 C 465.55 286.6 463.74 288.04 462.91 289.85 C 462.08 291.66 463.06 293.83 461.76 295.29 C 460.47 296.74 457.19 298.02 455.14 298.58 C 453.1 299.13 451.17 298.14 449.49 298.59 C 447.8 299.05 446.84 300.56 445.04 301.32 C 443.25 302.09 440.8 302.31 438.73 303.19 C 436.65 304.06 434.71 306.39 432.6 306.58 C 430.5 306.77 428.25 304.91 426.09 304.32 C 423.94 303.72 421.53 303.36 419.66 303.03 C 417.8 302.69 416.83 302.86 414.91 302.34 C 412.99 301.81 410.03 300.79 408.14 299.9 C 406.24 299.01 404.98 298.76 403.55 297 C 402.12 295.25 401.42 290.88 399.59 289.35 C 397.75 287.82 394.08 289.22 392.53 287.81 C 390.98 286.4 391.04 282.85 390.29 280.89 C 389.53 278.93 388.55 278.22 387.98 276.05 C 387.4 273.88 387.4 269.98 386.83 267.86 C 386.26 265.75 384.73 265.19 384.54 263.35 C 384.35 261.52 385.35 258.74 385.69 256.84 C 386.04 254.94 386.46 253.84 386.61 251.96 C 386.77 250.07 385.94 247.39 386.62 245.51 C 387.3 243.62 389.31 242.62 390.69 240.66 C 392.07 238.69 393.47 235.63 394.91 233.7 C 396.35 231.77 398.38 230.91 399.31 229.08 C 400.25 227.24 398.89 223.8 400.5 222.71 C 402.12 221.62 406.62 223.28 408.99 222.54 C 411.37 221.81 412.82 219.64 414.74 218.3 C 416.67 216.97 418.54 215.19 420.54 214.53 C 422.54 213.86 424.94 214.35 426.76 214.31 C 428.57 214.28 429.52 213.79 431.43 214.31 C 433.35 214.82 436.01 216.81 438.24 217.41 C 440.47 218.01 442.81 217.28 444.8 217.92 C 446.79 218.56 448.15 220.46 450.19 221.24 C 452.23 222.03 455.07 221.79 457.02 222.65 C 458.97 223.5 460.81 225.14 461.9 226.38 C 462.99 227.62 462.71 228.42 463.58 230.07 C 464.45 231.72 465.63 234.38 467.09 236.3 C 468.56 238.21 471.29 239.35 472.35 241.55 C 473.42 243.74 473.05 247.12 473.48 249.47 C 473.92 251.83 474.77 253.8 474.94 255.69 C 475.12 257.57 474.86 258.98 474.53 260.78 Z" fill="none" stroke="#1F2937" stroke-width="3" stroke-linecap="round" stroke-linejoin="round" opacity="1.0"/>
  <path d="M 477.9 259.02 C 478.5 260.66 477.35 262.7 476.77 264.95 C 476.19 267.19 475.14 269.82 474.44 272.49 C 473.75 275.16 473.46 278.89 472.6 280.95 C 471.74 283.01 470.47 283.99 469.28 284.86 C 468.1 285.72 467.42 284.94 465.51 286.13 C 463.59 287.33 459.49 289.89 457.78 292.02 C 456.07 294.14 456.17 297.29 455.23 298.87 C 454.29 300.44 454.31 300.79 452.15 301.46 C 449.98 302.13 444.33 302.64 442.23 302.87 C 440.13 303.11 441.56 302.51 439.54 302.87 C 437.52 303.23 432.18 305.08 430.13 305.04 C 428.08 305 428.89 302.61 427.25 302.62 C 425.61 302.64 422.72 305.01 420.27 305.14 C 417.82 305.27 414.26 304.81 412.56 303.39 C 410.85 301.98 411.47 298.24 410.02 296.67 C 408.57 295.1 405.85 294.87 403.85 293.98 C 401.84 293.08 399.43 292.38 398 291.32 C 396.57 290.26 397.05 289.62 395.27 287.6 C 393.48 285.58 388.77 280.99 387.3 279.22 C 385.83 277.45 386.57 278.17 386.44 276.99 C 386.32 275.81 387.02 274.4 386.55 272.15 C 386.07 269.9 384.03 266.17 383.59 263.5 C 383.16 260.84 383.96 258.18 383.96 256.18 C 383.96 254.17 382.6 253.47 383.58 251.49 C 384.57 249.51 388.78 246.73 389.87 244.29 C 390.97 241.86 389.73 239.09 390.18 236.87 C 390.62 234.65 391.54 231.9 392.53 230.96 C 393.53 230.02 394.3 232.26 396.14 231.22 C 397.99 230.18 401.59 226.88 403.6 224.73 C 405.61 222.59 406.74 219.09 408.21 218.34 C 409.68 217.59 410.83 220.75 412.41 220.24 C 413.99 219.73 415.73 215.63 417.71 215.29 C 419.69 214.95 421.9 218.59 424.27 218.2 C 426.65 217.8 430.09 213.65 431.97 212.93 C 433.86 212.21 433.14 213.21 435.58 213.89 C 438.02 214.56 444.37 216.26 446.61 216.98 C 448.85 217.7 447.82 216.89 449.03 218.2 C 450.24 219.52 451.83 223.27 453.87 224.86 C 455.91 226.46 459.49 227.11 461.27 227.77 C 463.05 228.44 462.93 227.37 464.55 228.87 C 466.16 230.37 469.74 234.51 470.97 236.77 C 472.19 239.03 471.38 240.87 471.91 242.43 C 472.44 243.99 473.93 244.01 474.14 246.13 C 474.35 248.25 472.53 253 473.16 255.15 C 473.78 257.3 477.3 257.39 477.9 259.02 Z" fill="none" stroke="#1F2937" stroke-width="2.1" stroke-linecap="round" stroke-linejoin="round" opacity="0.45"/>
  <text x="430" y="268" font-family="Chalkboard SE, Comic Sans MS, Comic Neue, Segoe Print, Bradley Hand, cursive" font-size="26" fill="#1F2937" text-anchor="middle" font-weight="bold">LD</text>
  <text x="500" y="350" font-family="Chalkboard SE, Comic Sans MS, Comic Neue, Segoe Print, Bradley Hand, cursive" font-size="22" fill="#475569" text-anchor="middle">image → initials → icon</text>
</svg>
