<svg xmlns="http://www.w3.org/2000/svg" width="1000" height="460" viewBox="0 0 1000 460">
  <rect width="1000" height="460" fill="#FFFFFF"/>
  <path d="M 112.6 115.22 C 117.05 115.63 130.4 117.27 139.26 117.25 C 148.11 117.22 156.81 115.15 165.75 115.07 C 174.68 114.99 184.28 116.88 192.86 116.79 C 201.44 116.7 208.71 114.9 217.21 114.53 C 225.72 114.16 234.77 114.32 243.9 114.57 C 253.03 114.82 262.77 115.93 272.01 116.03 C 281.24 116.12 294.33 115.2 299.32 115.14 C 304.31 115.09 300.53 115.01 301.97 115.71 C 303.4 116.41 306.94 118.29 307.95 119.35 C 308.95 120.41 307.51 120.54 308 122.07 C 308.48 123.6 310.71 127.48 310.86 128.53 C 311.01 129.58 308.98 120.88 308.89 128.37 C 308.8 135.85 310.12 164.97 310.31 173.43 C 310.5 181.88 310.42 177.58 310.03 179.1 C 309.64 180.61 309.03 181.62 307.97 182.52 C 306.92 183.41 305.59 184.04 303.7 184.46 C 301.81 184.88 297.38 184.84 296.66 185.02 C 295.95 185.2 303.79 185.26 299.42 185.52 C 295.05 185.78 279.5 186.6 270.46 186.57 C 261.41 186.54 253.68 185.28 245.14 185.36 C 236.61 185.44 228.02 186.83 219.24 187.05 C 210.46 187.28 201.4 186.95 192.47 186.72 C 183.54 186.48 174.85 185.58 165.65 185.63 C 156.46 185.69 146.39 187.12 137.31 187.04 C 128.22 186.96 116.07 185.23 111.13 185.15 C 106.19 185.08 109.13 186.91 107.66 186.59 C 106.19 186.27 103.21 184.75 102.31 183.23 C 101.4 181.71 102.56 179.22 102.23 177.49 C 101.9 175.76 100.93 173.25 100.33 172.87 C 99.72 172.49 98.5 182.44 98.59 175.21 C 98.68 167.98 100.33 138.29 100.88 129.5 C 101.44 120.7 101.46 124.19 101.92 122.44 C 102.38 120.69 102.95 119.77 103.64 119 C 104.32 118.23 104.55 118.53 106.03 117.82 C 107.51 117.12 111.44 115.19 112.54 114.76 C 113.63 114.32 108.15 114.8 112.6 115.22 Z" fill="#1F2937" opacity="0.13"/>
  <path d="M 107.55 109.81 C 111.92 109.75 124.35 109.91 133.11 110 C 141.87 110.09 151.26 110.45 160.14 110.33 C 169.02 110.22 177.56 109.22 186.39 109.3 C 195.23 109.38 204.36 110.57 213.14 110.82 C 221.93 111.07 230.31 110.93 239.11 110.81 C 247.91 110.7 257 110.33 265.93 110.12 C 274.85 109.92 287.32 109.6 292.68 109.59 C 298.03 109.58 296.69 109.5 298.07 110.06 C 299.45 110.61 299.86 111.7 300.97 112.91 C 302.08 114.13 303.91 115.85 304.72 117.35 C 305.52 118.86 305.69 121.3 305.79 121.94 C 305.9 122.59 305.6 113.56 305.37 121.24 C 305.14 128.92 304.72 159.52 304.42 168.03 C 304.12 176.53 304.19 170.87 303.57 172.28 C 302.95 173.68 301.72 175.45 300.7 176.46 C 299.68 177.47 298.72 177.66 297.45 178.35 C 296.19 179.04 293.93 180.43 293.11 180.58 C 292.29 180.72 296.9 179.41 292.53 179.2 C 288.16 179 275.64 179.16 266.9 179.34 C 258.16 179.52 248.99 180.22 240.09 180.28 C 231.18 180.34 222.27 179.68 213.47 179.7 C 204.67 179.73 196.3 180.51 187.3 180.44 C 178.3 180.36 168.55 179.34 159.49 179.27 C 150.42 179.2 141.71 179.81 132.89 180.03 C 124.07 180.25 111.6 180.87 106.57 180.59 C 101.53 180.32 103.93 178.99 102.65 178.37 C 101.37 177.75 100.14 177.87 98.88 176.88 C 97.62 175.88 95.59 173.92 95.08 172.42 C 94.57 170.92 95.9 168.62 95.83 167.85 C 95.77 167.08 94.96 175.39 94.71 167.81 C 94.45 160.23 94.14 130.71 94.29 122.37 C 94.44 114.03 94.87 119.21 95.61 117.77 C 96.35 116.33 97.58 114.97 98.74 113.75 C 99.9 112.53 101.21 111 102.57 110.43 C 103.93 109.86 106.05 110.43 106.88 110.33 C 107.71 110.22 103.18 109.86 107.55 109.81 Z" fill="#D8F5F0" opacity="1"/>
  <path d="M 106.69 109.97 C 111.17 110 125.14 110.03 134.29 109.89 C 143.45 109.76 152.81 109.36 161.6 109.16 C 170.39 108.96 178.35 108.34 187.01 108.69 C 195.67 109.04 204.95 111.17 213.57 111.27 C 222.19 111.37 229.69 109.41 238.74 109.29 C 247.79 109.18 258.93 110.3 267.88 110.59 C 276.82 110.87 287.31 111.09 292.41 111.01 C 297.51 110.92 296.8 109.82 298.47 110.06 C 300.13 110.31 301.57 111.26 302.4 112.48 C 303.23 113.7 303.18 115.59 303.45 117.38 C 303.72 119.16 303.53 122.53 304.01 123.19 C 304.49 123.85 306.35 114.05 306.34 121.35 C 306.33 128.64 304.17 158.29 303.93 166.94 C 303.69 175.59 305.35 171.59 304.9 173.24 C 304.44 174.89 302.47 175.88 301.22 176.86 C 299.98 177.85 298.63 178.78 297.42 179.14 C 296.22 179.49 294.82 178.59 293.98 178.98 C 293.13 179.37 297.16 181.15 292.33 181.47 C 287.5 181.79 273.94 180.96 264.99 180.91 C 256.04 180.85 247.29 181.15 238.65 181.16 C 230.02 181.16 221.84 181.09 213.17 180.94 C 204.51 180.78 195.5 180.63 186.65 180.23 C 177.81 179.84 169.11 178.53 160.12 178.58 C 151.12 178.64 141.66 180.36 132.69 180.58 C 123.71 180.81 111.33 180.25 106.26 179.91 C 101.2 179.57 103.36 179.03 102.31 178.54 C 101.25 178.06 100.84 177.77 99.92 177 C 99 176.24 97.8 175.42 96.78 173.96 C 95.75 172.49 94.28 169.32 93.76 168.23 C 93.24 167.13 93.5 175.18 93.67 167.38 C 93.85 159.57 94.39 129.63 94.79 121.41 C 95.19 113.2 95.43 119.21 96.07 118.1 C 96.7 116.99 97.53 116.05 98.62 114.75 C 99.7 113.46 101.11 111.15 102.57 110.32 C 104.03 109.48 106.68 109.78 107.36 109.73 C 108.05 109.67 102.2 109.94 106.69 109.97 Z" fill="none" stroke="#0D9488" stroke-width="3" stroke-linecap="round" stroke-linejoin="round" opacity="1.0"/>
  <path d="M 107.24 111.55 C 112.08 111.73 126.11 110.23 134.7 109.94 C 143.29 109.64 149.8 109.42 158.78 109.78 C 167.77 110.13 179.49 112.32 188.6 112.08 C 197.72 111.84 205.08 108.67 213.48 108.34 C 221.88 108.01 230.28 109.86 239.02 110.1 C 247.75 110.35 256.51 109.74 265.87 109.81 C 275.23 109.87 290.24 110.04 295.19 110.5 C 300.13 110.96 294.55 111.77 295.54 112.57 C 296.52 113.37 299.89 114.39 301.08 115.28 C 302.27 116.18 301.74 116.64 302.68 117.96 C 303.61 119.28 306.06 122.35 306.69 123.21 C 307.33 124.06 307.06 115.93 306.5 123.1 C 305.93 130.28 304.05 157.9 303.3 166.26 C 302.54 174.62 302.61 171.75 301.97 173.25 C 301.33 174.76 300.5 174.29 299.44 175.3 C 298.37 176.32 296.58 178.67 295.61 179.36 C 294.63 180.05 293.65 179.31 293.58 179.42 C 293.52 179.54 299.8 179.61 295.2 180.06 C 290.59 180.51 275.23 181.9 265.94 182.15 C 256.65 182.39 248.35 181.86 239.44 181.55 C 230.53 181.23 221.51 180.23 212.47 180.25 C 203.42 180.27 194.07 181.75 185.19 181.69 C 176.31 181.63 167.51 180.14 159.2 179.89 C 150.9 179.65 144.16 180.4 135.36 180.21 C 126.56 180.02 111.55 178.63 106.39 178.73 C 101.22 178.84 105.9 181.49 104.37 180.85 C 102.84 180.21 98.87 176.37 97.21 174.9 C 95.55 173.42 94.74 173.17 94.41 171.99 C 94.08 170.81 95.27 168.34 95.23 167.81 C 95.19 167.28 94.47 176.41 94.18 168.81 C 93.89 161.22 92.99 130.67 93.48 122.23 C 93.98 113.8 96.12 119.84 97.15 118.2 C 98.18 116.57 98.83 113.77 99.64 112.42 C 100.45 111.06 101.01 110.65 102.01 110.05 C 103.02 109.46 104.8 108.59 105.68 108.84 C 106.55 109.09 102.4 111.37 107.24 111.55 Z" fill="none" stroke="#0D9488" stroke-width="2.1" stroke-linecap="round" stroke-linejoin="round" opacity="0.45"/>
  <text x="200" y="152" font-family="Chalkboard SE, Comic Sans MS, Comic Neue, Segoe Print, Bradley Hand, cursive" font-size="19" fill="#0D9488" text-anchor="middle">setItem1(A)</text>
  <path d="M 110.66 221.55 C 114.88 221.41 129.27 220.39 138.57 220.16 C 147.87 219.94 157.71 219.97 166.45 220.18 C 175.19 220.38 182.32 221.28 191.02 221.41 C 199.72 221.54 209.89 221.01 218.64 220.98 C 227.39 220.94 234.65 221.26 243.5 221.2 C 252.35 221.15 262.78 220.48 271.74 220.66 C 280.71 220.84 292.08 222.03 297.3 222.28 C 302.53 222.53 301.64 221.87 303.07 222.17 C 304.5 222.46 304.9 222.79 305.89 224.07 C 306.88 225.35 308.45 228.16 309 229.84 C 309.56 231.51 309.04 233.79 309.22 234.09 C 309.4 234.4 310.16 224.43 310.1 231.67 C 310.04 238.91 309.19 268.76 308.86 277.52 C 308.52 286.28 308.73 282.67 308.08 284.22 C 307.44 285.77 305.82 285.97 305 286.81 C 304.18 287.66 304.16 288.58 303.15 289.29 C 302.14 290.01 299.65 290.71 298.96 291.1 C 298.27 291.48 303.48 291.77 299 291.6 C 294.52 291.42 280.95 290.4 272.1 290.06 C 263.25 289.73 254.69 289.34 245.9 289.58 C 237.1 289.83 228.54 291.25 219.33 291.51 C 210.12 291.77 199.55 291.42 190.64 291.15 C 181.74 290.88 174.67 290.05 165.88 289.89 C 157.1 289.74 146.97 289.81 137.94 290.21 C 128.92 290.61 116.78 292.12 111.73 292.29 C 106.68 292.46 108.95 292.23 107.63 291.25 C 106.31 290.27 104.7 287.87 103.81 286.4 C 102.92 284.92 102.8 283.7 102.29 282.4 C 101.77 281.1 101.08 278.94 100.72 278.61 C 100.37 278.28 100.27 287.91 100.15 280.42 C 100.02 272.94 99.8 242.64 99.99 233.72 C 100.19 224.81 100.59 228.35 101.32 226.95 C 102.05 225.56 103.52 226.1 104.39 225.36 C 105.25 224.63 105.04 223.25 106.51 222.53 C 107.99 221.82 112.54 221.22 113.23 221.06 C 113.92 220.9 106.44 221.7 110.66 221.55 Z" fill="#1F2937" opacity="0.13"/>
  <path d="M 106.56 215.82 C 110.92 215.71 124.38 214.36 133.3 214.17 C 142.23 213.98 151.22 214.67 160.11 214.68 C 169 214.68 177.94 214.18 186.66 214.22 C 195.38 214.26 203.7 214.68 212.42 214.91 C 221.14 215.15 230.02 215.57 238.97 215.63 C 247.91 215.69 256.96 215.41 266.08 215.26 C 275.21 215.11 288.48 214.7 293.72 214.73 C 298.96 214.76 296.32 214.89 297.51 215.43 C 298.71 215.96 299.93 216.7 300.89 217.91 C 301.84 219.13 302.55 221.12 303.26 222.71 C 303.96 224.3 304.79 226.64 305.11 227.46 C 305.43 228.29 305.17 220.08 305.15 227.65 C 305.14 235.22 305.15 264.56 304.99 272.88 C 304.84 281.2 304.68 276.2 304.21 277.55 C 303.74 278.9 303.35 279.95 302.16 281.01 C 300.98 282.07 298.5 283.18 297.08 283.9 C 295.66 284.62 294.41 285.22 293.64 285.34 C 292.86 285.45 296.86 284.59 292.43 284.58 C 288 284.57 275.8 285.25 267.07 285.28 C 258.34 285.31 249.15 284.68 240.05 284.75 C 230.95 284.83 221.22 285.64 212.46 285.74 C 203.71 285.84 196.15 285.33 187.51 285.34 C 178.86 285.34 169.7 285.76 160.61 285.75 C 151.52 285.74 141.98 285.51 132.97 285.28 C 123.96 285.04 111.74 284.48 106.55 284.37 C 101.36 284.27 103.03 285.09 101.84 284.65 C 100.64 284.2 100.52 282.85 99.38 281.71 C 98.25 280.57 95.74 279.33 95.04 277.8 C 94.35 276.27 95.29 273.47 95.21 272.55 C 95.13 271.64 94.75 279.9 94.58 272.32 C 94.42 264.75 94.03 235.5 94.22 227.12 C 94.42 218.75 95.18 223.66 95.75 222.09 C 96.32 220.52 96.57 218.82 97.63 217.69 C 98.69 216.57 100.53 215.8 102.11 215.32 C 103.69 214.84 106.37 214.74 107.11 214.82 C 107.85 214.9 102.19 215.92 106.56 215.82 Z" fill="#E7E9FF" opacity="1"/>
  <path d="M 107.42 214.37 C 111.85 214.36 124.65 213.94 133.63 214.13 C 142.61 214.31 152.54 215.53 161.31 215.47 C 170.08 215.42 177.54 213.72 186.23 213.81 C 194.93 213.9 204.7 215.66 213.48 215.99 C 222.26 216.32 230.1 215.8 238.9 215.8 C 247.7 215.8 257.05 216.26 266.28 215.99 C 275.51 215.73 289.19 214.18 294.29 214.22 C 299.39 214.26 295.86 215.6 296.88 216.24 C 297.9 216.88 299.21 217.18 300.41 218.04 C 301.61 218.91 303.51 220.17 304.07 221.44 C 304.62 222.7 303.39 224.8 303.73 225.63 C 304.07 226.46 305.98 218.65 306.12 226.42 C 306.25 234.2 304.9 263.51 304.54 272.28 C 304.18 281.06 304.62 277.68 303.96 279.06 C 303.31 280.44 301.7 279.87 300.59 280.57 C 299.48 281.27 298.78 282.65 297.28 283.27 C 295.78 283.89 292.42 283.99 291.58 284.29 C 290.74 284.58 296.17 285.12 292.23 285.04 C 288.28 284.95 276.44 283.7 267.88 283.78 C 259.33 283.86 249.94 285.23 240.92 285.53 C 231.9 285.83 222.82 285.78 213.75 285.6 C 204.68 285.42 195.56 284.77 186.5 284.47 C 177.44 284.17 168.29 283.5 159.4 283.8 C 150.51 284.1 141.72 285.99 133.16 286.26 C 124.61 286.53 113.35 285.59 108.05 285.42 C 102.75 285.25 102.82 285.99 101.38 285.24 C 99.94 284.48 100.5 282.04 99.41 280.88 C 98.31 279.73 95.32 279.55 94.82 278.31 C 94.33 277.08 96.48 274.48 96.42 273.46 C 96.36 272.45 94.75 280.2 94.47 272.22 C 94.19 264.24 94.58 233.87 94.75 225.59 C 94.92 217.32 95.08 223.93 95.46 222.56 C 95.85 221.19 95.76 218.38 97.05 217.38 C 98.34 216.38 101.55 217.07 103.21 216.54 C 104.87 216.01 106.33 214.56 107.03 214.2 C 107.73 213.84 102.99 214.38 107.42 214.37 Z" fill="none" stroke="#4F46E5" stroke-width="3" stroke-linecap="round" stroke-linejoin="round" opacity="1.0"/>
  <path d="M 108.12 216.53 C 111.89 215.96 123.1 213.58 131.83 213.56 C 140.57 213.54 151.21 216.05 160.51 216.39 C 169.8 216.74 178.99 215.75 187.59 215.65 C 196.2 215.54 203.75 215.55 212.15 215.75 C 220.55 215.95 228.85 217.1 237.98 216.85 C 247.12 216.61 257.71 214.36 266.97 214.26 C 276.24 214.16 288.3 216.08 293.57 216.26 C 298.84 216.43 297.62 214.95 298.6 215.33 C 299.57 215.72 298.15 217.57 299.42 218.54 C 300.7 219.5 304.96 219.84 306.23 221.13 C 307.5 222.42 307.33 225.63 307.07 226.27 C 306.81 226.91 305.07 217.54 304.7 224.96 C 304.32 232.37 305.06 262.09 304.81 270.78 C 304.56 279.47 304.01 275.36 303.21 277.09 C 302.41 278.81 300.88 279.84 300.01 281.11 C 299.13 282.39 299.27 284.28 297.96 284.74 C 296.64 285.21 292.62 283.97 292.13 283.9 C 291.63 283.83 299.55 284.43 295 284.33 C 290.45 284.23 274.1 282.97 264.82 283.29 C 255.55 283.62 248.17 285.77 239.36 286.29 C 230.55 286.81 220.96 286.67 211.95 286.42 C 202.95 286.17 193.92 284.8 185.32 284.78 C 176.72 284.76 168.65 286.25 160.38 286.31 C 152.11 286.37 144.34 285.45 135.71 285.13 C 127.08 284.82 113.9 284.75 108.6 284.43 C 103.29 284.12 105.22 283.96 103.88 283.24 C 102.55 282.51 102.09 280.77 100.6 280.09 C 99.11 279.41 95.96 280.48 94.94 279.15 C 93.92 277.82 94.41 273.47 94.48 272.13 C 94.55 270.79 95.14 279.01 95.34 271.12 C 95.55 263.24 95.44 232.63 95.71 224.84 C 95.98 217.05 96.57 225.38 96.96 224.38 C 97.35 223.39 97.22 220.05 98.07 218.87 C 98.92 217.7 100.2 217.66 102.06 217.34 C 103.91 217.03 108.2 217.13 109.21 216.99 C 110.22 216.86 104.35 217.1 108.12 216.53 Z" fill="none" stroke="#4F46E5" stroke-width="2.1" stroke-linecap="round" stroke-linejoin="round" opacity="0.45"/>
  <text x="200" y="257" font-family="Chalkboard SE, Comic Sans MS, Comic Neue, Segoe Print, Bradley Hand, cursive" font-size="19" fill="#4F46E5" text-anchor="middle">setItem2(B)</text>
  <path d="M 111.51 327.42 C 115.51 327.49 128.29 327.1 137.17 327.03 C 146.05 326.96 155.87 327.11 164.8 327 C 173.73 326.89 181.85 326.35 190.74 326.38 C 199.62 326.4 208.93 327.22 218.12 327.15 C 227.31 327.08 237.08 326.37 245.86 325.96 C 254.64 325.55 262.11 324.73 270.81 324.69 C 279.5 324.66 292.97 325.28 298.03 325.73 C 303.1 326.19 299.94 326.7 301.2 327.43 C 302.47 328.15 304.2 328.9 305.64 330.07 C 307.07 331.25 309.13 333.04 309.83 334.48 C 310.53 335.91 309.88 338.15 309.85 338.69 C 309.81 339.22 309.54 330.09 309.63 337.68 C 309.72 345.27 310.33 375.88 310.4 384.23 C 310.47 392.58 310.91 386.45 310.03 387.78 C 309.15 389.1 306.17 391.21 305.14 392.2 C 304.1 393.19 304.92 393.25 303.82 393.72 C 302.72 394.19 299.61 394.46 298.52 395.03 C 297.43 395.6 302.06 397.2 297.3 397.12 C 292.55 397.05 278.74 394.8 269.99 394.58 C 261.24 394.36 253.65 395.62 244.8 395.81 C 235.95 396 225.51 395.87 216.89 395.73 C 208.26 395.58 201.46 395.07 193.07 394.94 C 184.67 394.8 175.5 394.9 166.51 394.91 C 157.53 394.92 148.36 394.92 139.13 395.01 C 129.9 395.1 116.66 395.43 111.15 395.44 C 105.63 395.45 107.44 395.42 106.05 395.07 C 104.66 394.71 103.65 394.37 102.82 393.29 C 102 392.21 101.53 390.17 101.11 388.59 C 100.69 387 100.32 384.44 100.31 383.8 C 100.29 383.15 100.9 392.22 101.04 384.71 C 101.17 377.21 101.33 347.12 101.13 338.76 C 100.94 330.41 99.58 336 99.89 334.58 C 100.2 333.16 101.87 331.27 103.02 330.22 C 104.16 329.18 105.05 328.88 106.74 328.29 C 108.43 327.7 112.35 326.81 113.14 326.66 C 113.93 326.52 107.5 327.36 111.51 327.42 Z" fill="#1F2937" opacity="0.13"/>
  <path d="M 106.24 320.64 C 110.82 320.74 125.29 320.47 134.42 320.44 C 143.55 320.42 152.41 320.63 161.03 320.51 C 169.64 320.38 177.27 319.73 186.1 319.68 C 194.94 319.64 205 320.1 214.02 320.22 C 223.04 320.34 231.47 320.54 240.22 320.4 C 248.96 320.26 257.57 319.32 266.51 319.38 C 275.45 319.44 288.63 320.49 293.86 320.75 C 299.1 321.01 296.75 320.59 297.92 320.96 C 299.09 321.32 299.76 321.97 300.89 322.94 C 302.01 323.9 304.13 325.24 304.68 326.75 C 305.22 328.27 304.16 331.04 304.14 332.04 C 304.13 333.03 304.53 325 304.58 332.72 C 304.63 340.45 304.63 370.09 304.44 378.38 C 304.24 386.66 303.97 381.17 303.41 382.43 C 302.85 383.7 302.03 384.76 301.08 385.97 C 300.13 387.18 299.09 388.96 297.72 389.68 C 296.35 390.41 293.73 390.36 292.83 390.3 C 291.93 390.25 296.57 389.29 292.32 389.36 C 288.06 389.42 276.09 390.67 267.31 390.68 C 258.52 390.7 248.57 389.56 239.61 389.43 C 230.64 389.31 222.21 389.91 213.49 389.96 C 204.77 390 196.33 389.56 187.3 389.7 C 178.26 389.84 168.23 390.73 159.28 390.81 C 150.33 390.89 142.26 390.26 133.58 390.2 C 124.91 390.15 112.36 390.59 107.24 390.48 C 102.12 390.37 104.41 390.19 102.88 389.54 C 101.35 388.88 99.1 387.84 98.08 386.58 C 97.07 385.31 97.17 383.27 96.8 381.95 C 96.43 380.64 96.27 379.47 95.85 378.68 C 95.43 377.89 94.54 384.88 94.27 377.21 C 94 369.53 93.95 341.08 94.22 332.64 C 94.49 324.21 95.31 327.98 95.88 326.58 C 96.46 325.17 96.7 325.2 97.67 324.2 C 98.63 323.2 100.13 321.27 101.67 320.55 C 103.22 319.83 106.18 319.86 106.94 319.87 C 107.7 319.89 101.66 320.55 106.24 320.64 Z" fill="#FDEBCF" opacity="1"/>
  <path d="M 106.05 320.19 C 110.2 320.24 123.27 319.61 132.14 319.75 C 141 319.89 149.97 320.78 159.26 321.03 C 168.55 321.29 178.65 321.24 187.88 321.28 C 197.1 321.33 206.1 321.37 214.61 321.3 C 223.13 321.23 230.31 320.83 238.97 320.84 C 247.63 320.85 257.43 321.27 266.58 321.37 C 275.74 321.46 288.63 321.7 293.89 321.41 C 299.14 321.12 296.87 319.39 298.1 319.64 C 299.34 319.89 300.4 321.83 301.3 322.93 C 302.21 324.03 302.82 324.89 303.53 326.23 C 304.24 327.57 305.38 330.04 305.56 330.97 C 305.73 331.9 304.45 323.88 304.59 331.79 C 304.74 339.71 306.6 369.91 306.42 378.45 C 306.25 386.99 304.12 381.92 303.53 383.03 C 302.93 384.13 303.63 384.06 302.86 385.07 C 302.09 386.08 300.47 388.34 298.91 389.09 C 297.35 389.83 294.42 389.26 293.52 389.54 C 292.63 389.82 298.03 390.55 293.53 390.77 C 289.02 390.98 275.62 391.1 266.49 390.83 C 257.36 390.57 247.86 389.34 238.76 389.16 C 229.65 388.98 220.31 389.58 211.87 389.76 C 203.43 389.94 196.64 390.2 188.14 390.24 C 179.65 390.28 169.96 390.16 160.9 390 C 151.84 389.85 143.01 389.37 133.79 389.33 C 124.57 389.28 110.67 389.63 105.58 389.72 C 100.48 389.8 104.47 390.29 103.24 389.81 C 102.01 389.33 99.47 388.13 98.2 386.82 C 96.92 385.51 96.17 383.5 95.58 381.95 C 94.99 380.4 94.94 378.41 94.65 377.53 C 94.36 376.66 93.83 384.5 93.84 376.69 C 93.84 368.88 94.56 338.99 94.67 330.67 C 94.78 322.35 93.62 327.79 94.5 326.77 C 95.37 325.75 98.48 325.58 99.94 324.55 C 101.4 323.53 102.04 321.48 103.26 320.63 C 104.47 319.78 106.78 319.53 107.24 319.46 C 107.71 319.38 101.9 320.15 106.05 320.19 Z" fill="none" stroke="#D97706" stroke-width="3" stroke-linecap="round" stroke-linejoin="round" opacity="1.0"/>
  <path d="M 108.64 322.1 C 112.86 322.71 125.4 321.45 133.86 321.37 C 142.32 321.3 150.27 321.98 159.42 321.63 C 168.57 321.28 179.98 319.2 188.77 319.26 C 197.55 319.32 203.4 321.73 212.13 321.96 C 220.85 322.2 232.12 321.08 241.12 320.66 C 250.12 320.23 257.36 319.31 266.11 319.42 C 274.86 319.53 288.2 321.4 293.63 321.32 C 299.07 321.23 297.75 318.86 298.72 318.9 C 299.69 318.94 298.55 320.28 299.46 321.57 C 300.37 322.87 303.34 325.23 304.17 326.67 C 305 328.11 304.08 329.52 304.42 330.21 C 304.75 330.91 306.2 322.65 306.19 330.84 C 306.17 339.03 304.37 370.68 304.32 379.35 C 304.27 388.03 306.68 381.48 305.88 382.87 C 305.07 384.25 300.85 386.73 299.49 387.68 C 298.12 388.63 298.95 388.39 297.7 388.58 C 296.44 388.77 292.68 388.28 291.96 388.81 C 291.25 389.35 297.39 391.79 293.4 391.8 C 289.42 391.81 277.03 389.13 268.05 388.85 C 259.08 388.57 248.64 390.21 239.57 390.1 C 230.51 389.98 222.59 387.93 213.66 388.15 C 204.73 388.37 195.1 390.95 185.99 391.41 C 176.89 391.86 167.47 390.86 159.01 390.88 C 150.54 390.9 143.73 391.84 135.2 391.53 C 126.67 391.21 113.63 389.08 107.83 388.99 C 102.03 388.9 101.78 391.47 100.4 390.96 C 99.02 390.45 100.57 387.4 99.56 385.93 C 98.56 384.47 94.8 383.54 94.38 382.18 C 93.96 380.82 97.24 378.37 97.05 377.77 C 96.85 377.17 93.38 385.94 93.2 378.56 C 93.02 371.19 95.29 342.15 95.97 333.52 C 96.66 324.89 97.17 328.55 97.32 326.79 C 97.46 325.03 96.28 324.11 96.86 322.97 C 97.45 321.84 98.86 320.83 100.8 319.96 C 102.75 319.09 107.21 317.39 108.51 317.75 C 109.82 318.11 104.42 321.5 108.64 322.1 Z" fill="none" stroke="#D97706" stroke-width="2.1" stroke-linecap="round" stroke-linejoin="round" opacity="0.45"/>
  <text x="200" y="362" font-family="Chalkboard SE, Comic Sans MS, Comic Neue, Segoe Print, Bradley Hand, cursive" font-size="19" fill="#D97706" text-anchor="middle">setItem3(C)</text>
  <path d="M 427.07 160.05 C 432.12 159.83 446.95 159.54 456.82 159.61 C 466.69 159.68 476.69 160.41 486.29 160.47 C 495.88 160.54 504.93 160.21 514.4 160.01 C 523.88 159.82 533.22 159.18 543.13 159.31 C 553.04 159.45 567.98 160.5 573.86 160.82 C 579.75 161.13 577.11 160.77 578.45 161.21 C 579.8 161.65 581.06 162.37 581.94 163.46 C 582.82 164.56 583.24 166.31 583.73 167.79 C 584.22 169.26 584.78 171.54 584.87 172.29 C 584.95 173.05 584.1 167 584.25 172.34 C 584.4 177.68 585.57 193.62 585.78 204.34 C 585.98 215.07 585.58 226.06 585.48 236.7 C 585.38 247.33 585.25 262.14 585.17 268.18 C 585.09 274.22 585.56 271.44 584.99 272.95 C 584.41 274.46 582.88 276.13 581.7 277.23 C 580.52 278.33 579.4 278.99 577.9 279.53 C 576.41 280.08 573.7 280.52 572.74 280.49 C 571.78 280.47 577.12 279.45 572.16 279.38 C 567.2 279.31 552.44 279.82 542.96 280.05 C 533.48 280.28 524.77 280.66 515.27 280.78 C 505.77 280.89 495.77 281 485.96 280.76 C 476.15 280.51 466.24 279.53 456.42 279.3 C 446.61 279.07 432.74 279.43 427.07 279.36 C 421.4 279.29 423.69 279.42 422.41 278.87 C 421.13 278.32 420.38 277.24 419.38 276.06 C 418.38 274.89 417.12 273.02 416.42 271.82 C 415.71 270.62 415.51 269.5 415.16 268.89 C 414.82 268.27 414.47 273.49 414.35 268.15 C 414.23 262.82 414.29 247.44 414.43 236.89 C 414.57 226.35 414.96 215.72 415.19 204.89 C 415.43 194.06 415.61 178.3 415.83 171.92 C 416.05 165.54 416.03 168.17 416.52 166.63 C 417 165.08 417.86 163.62 418.75 162.63 C 419.65 161.65 420.6 161.01 421.9 160.72 C 423.2 160.43 425.68 161.01 426.55 160.89 C 427.41 160.78 422.02 160.26 427.07 160.05 Z" fill="#FDEBCF" opacity="1"/>
  <path d="M 425.93 160.94 C 430.81 160.76 446.41 159.8 456.22 159.88 C 466.03 159.97 475.09 161.66 484.8 161.44 C 494.51 161.22 504.81 158.71 514.49 158.55 C 524.17 158.38 533.05 160.17 542.88 160.44 C 552.72 160.72 567.62 160.14 573.5 160.18 C 579.38 160.22 576.86 159.89 578.15 160.68 C 579.43 161.46 580.31 163.87 581.21 164.89 C 582.11 165.91 582.94 165.77 583.55 166.82 C 584.17 167.86 584.62 170.42 584.91 171.14 C 585.2 171.86 585.2 165.54 585.28 171.16 C 585.36 176.77 585.61 194.04 585.38 204.83 C 585.15 215.63 584.08 225.58 583.9 235.92 C 583.73 246.25 584.52 260.88 584.33 266.86 C 584.14 272.84 583.09 270.15 582.78 271.79 C 582.47 273.44 583.52 275.37 582.47 276.74 C 581.41 278.11 577.79 279.66 576.44 280.02 C 575.1 280.37 574.72 278.68 574.4 278.86 C 574.07 279.05 579.5 281 574.49 281.13 C 569.48 281.27 554.19 279.95 544.33 279.66 C 534.47 279.36 525.11 279.5 515.34 279.37 C 505.56 279.25 495.35 279.01 485.67 278.92 C 475.99 278.83 466.83 278.83 457.26 278.83 C 447.68 278.84 433.9 279 428.23 278.93 C 422.55 278.86 424.89 278.75 423.22 278.42 C 421.54 278.09 419.27 277.88 418.18 276.94 C 417.08 276 416.94 274.31 416.63 272.8 C 416.31 271.3 416.34 268.68 416.29 267.93 C 416.23 267.18 416.44 273.8 416.3 268.29 C 416.15 262.78 415.51 245.52 415.41 234.87 C 415.32 224.22 415.6 214.79 415.7 204.39 C 415.8 193.99 416.21 178.44 416.04 172.46 C 415.86 166.48 414.16 169.84 414.66 168.51 C 415.15 167.17 417.92 165.88 419.02 164.47 C 420.12 163.06 419.91 160.62 421.23 160.03 C 422.55 159.44 426.16 160.78 426.94 160.93 C 427.72 161.08 421.05 161.11 425.93 160.94 Z" fill="none" stroke="#D97706" stroke-width="3" stroke-linecap="round" stroke-linejoin="round" opacity="1.0"/>
  <path d="M 426.19 158.41 C 431.32 158.59 446.94 158.78 456.99 159.32 C 467.05 159.87 477.19 161.36 486.52 161.68 C 495.86 162.01 503.41 161.87 513 161.26 C 522.6 160.65 534.06 158.59 544.09 158.05 C 554.13 157.51 567.67 157.68 573.2 158.02 C 578.73 158.35 575.72 159.38 577.28 160.06 C 578.83 160.75 581.58 160.92 582.53 162.13 C 583.49 163.33 582.83 165.36 583 167.3 C 583.18 169.23 583.01 173.02 583.58 173.72 C 584.14 174.43 586.28 166.79 586.39 171.51 C 586.5 176.24 584.71 190.97 584.22 202.08 C 583.73 213.18 583.62 227.17 583.47 238.14 C 583.31 249.11 583.51 262.43 583.3 267.92 C 583.09 273.41 582.43 269.73 582.2 271.11 C 581.98 272.48 582.98 274.99 581.95 276.17 C 580.91 277.35 577.23 277.42 575.99 278.2 C 574.75 278.98 575.03 280.66 574.53 280.86 C 574.02 281.07 578.01 279.91 572.95 279.43 C 567.89 278.95 553.95 277.66 544.16 277.98 C 534.38 278.3 524.29 281.15 514.24 281.37 C 504.2 281.58 493.27 279.19 483.87 279.27 C 474.48 279.35 467.44 281.51 457.89 281.84 C 448.34 282.18 432.49 282.07 426.56 281.28 C 420.64 280.49 423.82 277.76 422.34 277.09 C 420.85 276.43 418.38 278.08 417.65 277.29 C 416.91 276.5 418.01 273.98 417.92 272.35 C 417.83 270.72 417.84 268.05 417.12 267.49 C 416.39 266.93 413.83 273.96 413.55 268.99 C 413.26 264.02 414.92 248.87 415.41 237.68 C 415.9 226.49 416.3 212.84 416.51 201.82 C 416.72 190.81 416.9 176.95 416.67 171.59 C 416.45 166.23 414.49 171.04 415.17 169.65 C 415.85 168.26 419.66 164.95 420.74 163.25 C 421.82 161.55 420.76 160.29 421.68 159.46 C 422.59 158.62 425.47 158.43 426.23 158.26 C 426.98 158.08 421.07 158.23 426.19 158.41 Z" fill="none" stroke="#D97706" stroke-width="2.1" stroke-linecap="round" stroke-linejoin="round" opacity="0.45"/>
  <text x="500" y="205" font-family="Chalkboard SE, Comic Sans MS, Comic Neue, Segoe Print, Bradley Hand, cursive" font-size="20" fill="#D97706" text-anchor="middle">updateChildren()</text>
  <text x="500" y="232" font-family="Chalkboard SE, Comic Sans MS, Comic Neue, Segoe Print, Bradley Hand, cursive" font-size="16" fill="#D97706" text-anchor="middle">clear + add non-null</text>
  <path d="M 712.97 121.77 C 717.54 121.86 730.58 122.14 740.46 122.25 C 750.34 122.37 762.26 122.67 772.25 122.44 C 782.25 122.22 790.89 120.9 800.43 120.88 C 809.97 120.86 819.56 122.48 829.52 122.32 C 839.47 122.15 850.41 120.29 860.16 119.87 C 869.91 119.46 878.55 119.59 888.01 119.84 C 897.47 120.09 911.28 121.11 916.9 121.39 C 922.53 121.67 919.97 120.94 921.77 121.52 C 923.56 122.09 926.44 123.77 927.67 124.85 C 928.9 125.94 928.95 126.45 929.15 128.03 C 929.35 129.61 928.81 133.41 928.86 134.33 C 928.92 135.25 929.47 129.31 929.48 133.53 C 929.5 137.74 928.63 150.5 928.93 159.63 C 929.23 168.76 931.06 179.39 931.28 188.31 C 931.51 197.23 930.25 204.32 930.28 213.14 C 930.31 221.96 931.64 232.18 931.46 241.25 C 931.28 250.31 929.55 258.33 929.2 267.52 C 928.84 276.71 929.07 287.42 929.32 296.38 C 929.56 305.35 930.52 312.32 930.68 321.3 C 930.83 330.28 930.3 344.83 930.22 350.28 C 930.13 355.73 930.57 352.8 930.17 354 C 929.76 355.19 929.04 356.24 927.81 357.45 C 926.58 358.66 924.26 360.62 922.79 361.27 C 921.32 361.92 920 361.41 919.01 361.37 C 918.02 361.32 921.8 361.28 916.85 361.01 C 911.9 360.74 899.02 359.54 889.3 359.75 C 879.58 359.95 868.69 362.13 858.51 362.24 C 848.34 362.36 838.07 360.5 828.26 360.43 C 818.45 360.36 809.04 361.66 799.65 361.82 C 790.27 361.97 781.86 361.6 771.97 361.34 C 762.07 361.07 750.17 360.44 740.29 360.23 C 730.41 360.01 718.07 360.25 712.69 360.07 C 707.31 359.89 709.31 359.36 708.01 359.16 C 706.72 358.95 705.94 359.55 704.94 358.83 C 703.93 358.1 702.6 356.51 701.98 354.81 C 701.37 353.1 701.67 349.51 701.25 348.59 C 700.84 347.68 699.55 353.97 699.47 349.31 C 699.39 344.64 700.91 329.8 700.78 320.61 C 700.66 311.42 698.98 302.76 698.73 294.17 C 698.49 285.58 699.32 277.81 699.3 269.08 C 699.29 260.35 698.35 250.81 698.66 241.77 C 698.97 232.73 701.05 223.81 701.16 214.85 C 701.27 205.89 699.44 197.32 699.32 188.01 C 699.21 178.71 700.29 168.06 700.48 159.01 C 700.67 149.95 700.57 138.93 700.46 133.69 C 700.34 128.46 699.14 129.34 699.76 127.6 C 700.38 125.86 702.89 124.42 704.18 123.24 C 705.47 122.06 706.03 120.77 707.52 120.51 C 709 120.26 712.17 121.52 713.08 121.73 C 713.99 121.94 708.41 121.69 712.97 121.77 Z" fill="#1F2937" opacity="0.13"/>
  <path d="M 707.66 115.38 C 712.71 115.29 727 115.14 736.68 115.12 C 746.36 115.09 756.11 115.32 765.73 115.22 C 775.35 115.13 784.52 114.64 794.39 114.53 C 804.26 114.41 815.08 114.6 824.94 114.54 C 834.81 114.49 843.68 114.18 853.59 114.21 C 863.5 114.24 874.48 114.49 884.39 114.72 C 894.3 114.96 907.51 115.52 913.05 115.65 C 918.58 115.79 916.28 115.08 917.58 115.54 C 918.88 116.01 919.77 117.19 920.85 118.45 C 921.92 119.72 923.23 121.74 924 123.14 C 924.78 124.54 925.27 126.28 925.49 126.85 C 925.72 127.42 925.58 122.15 925.37 126.53 C 925.15 130.92 924.27 144.17 924.2 153.18 C 924.13 162.2 924.74 171.59 924.95 180.61 C 925.15 189.64 925.39 198.11 925.44 207.32 C 925.48 216.52 925.32 226.81 925.2 235.85 C 925.08 244.88 924.86 252.72 924.7 261.52 C 924.53 270.33 924.18 279.55 924.21 288.69 C 924.25 297.84 924.73 307.41 924.89 316.41 C 925.05 325.41 925.39 337.45 925.16 342.7 C 924.94 347.95 924 346.52 923.54 347.92 C 923.07 349.33 923.24 350.15 922.37 351.14 C 921.5 352.12 920 353.13 918.32 353.81 C 916.64 354.48 913.3 354.97 912.28 355.19 C 911.26 355.4 917.05 355.23 912.22 355.09 C 907.39 354.96 893.06 354.22 883.31 354.35 C 873.56 354.48 863.45 355.68 853.74 355.86 C 844.03 356.04 834.88 355.54 825.07 355.43 C 815.26 355.31 804.63 355.22 794.9 355.16 C 785.18 355.1 776.56 355 766.72 355.08 C 756.88 355.17 745.79 355.8 735.87 355.66 C 725.95 355.51 712.71 354.34 707.2 354.2 C 701.69 354.07 704.13 355.22 702.82 354.85 C 701.51 354.49 700.41 353.09 699.35 351.99 C 698.28 350.89 697.21 349.89 696.43 348.27 C 695.66 346.64 694.81 343.02 694.69 342.23 C 694.58 341.43 695.56 347.81 695.76 343.5 C 695.95 339.18 696.07 325.47 695.87 316.33 C 695.67 307.19 694.8 297.59 694.56 288.63 C 694.31 279.68 694.34 271.64 694.41 262.6 C 694.47 253.56 694.94 243.38 694.96 234.4 C 694.97 225.42 694.42 217.5 694.5 208.72 C 694.59 199.94 695.51 190.92 695.47 181.74 C 695.43 172.56 694.33 162.67 694.26 153.63 C 694.18 144.58 694.66 132.76 695.01 127.46 C 695.35 122.16 695.63 123.31 696.32 121.81 C 697 120.31 698.05 119.3 699.12 118.47 C 700.18 117.63 701.47 117.25 702.69 116.79 C 703.9 116.32 705.58 115.91 706.4 115.67 C 707.23 115.44 702.62 115.47 707.66 115.38 Z" fill="#FFFFFF" opacity="1"/>
  <path d="M 706.59 116.09 C 711.47 116.2 726.28 114.96 736.24 114.8 C 746.19 114.63 756.31 115.02 766.32 115.1 C 776.34 115.18 786.61 115.4 796.31 115.26 C 806.01 115.11 814.95 114.38 824.53 114.24 C 834.11 114.11 844.12 114.32 853.8 114.45 C 863.47 114.57 872.53 115.02 882.58 114.97 C 892.63 114.92 908.44 114.03 914.08 114.13 C 919.73 114.23 915.1 114.68 916.43 115.57 C 917.76 116.46 920.58 118.47 922.06 119.46 C 923.54 120.45 924.61 120.35 925.3 121.49 C 925.99 122.62 926.19 125.15 926.2 126.27 C 926.21 127.4 925.47 123.78 925.36 128.23 C 925.25 132.69 925.43 144.16 925.55 153 C 925.68 161.84 926.4 171.99 926.12 181.28 C 925.84 190.56 923.86 199.89 923.86 208.7 C 923.87 217.51 925.82 225.15 926.16 234.13 C 926.5 243.12 925.98 253.7 925.92 262.61 C 925.86 271.51 926.12 278.83 925.8 287.57 C 925.49 296.31 924.2 305.71 924.03 315.05 C 923.86 324.38 924.96 338.24 924.79 343.57 C 924.62 348.91 923.48 345.86 923.02 347.07 C 922.56 348.28 922.95 349.66 922.03 350.83 C 921.12 352 919.03 353.27 917.52 354.09 C 916.02 354.91 913.65 355.85 912.99 355.77 C 912.33 355.68 918.28 353.54 913.56 353.57 C 908.85 353.6 894.75 355.64 884.71 355.95 C 874.67 356.27 863.08 355.42 853.32 355.47 C 843.56 355.52 836.05 356.59 826.15 356.28 C 816.25 355.96 803.76 353.59 793.91 353.55 C 784.06 353.52 776.4 355.64 767.04 356.06 C 757.68 356.49 747.69 356.43 737.75 356.08 C 727.82 355.73 713.23 354.16 707.43 353.95 C 701.63 353.74 704.26 355.34 702.97 354.83 C 701.67 354.32 701.01 351.89 699.66 350.9 C 698.32 349.91 695.9 350.3 694.9 348.9 C 693.9 347.51 693.46 343.48 693.67 342.54 C 693.89 341.6 696.12 347.54 696.2 343.24 C 696.29 338.95 694.48 325.6 694.18 316.78 C 693.89 307.96 694.29 299.48 694.43 290.3 C 694.56 281.12 694.65 270.93 694.98 261.71 C 695.3 252.49 696.27 244.04 696.35 234.98 C 696.43 225.93 695.78 216.61 695.43 207.39 C 695.08 198.16 694.5 188.49 694.24 179.63 C 693.98 170.76 693.85 162.94 693.87 154.19 C 693.89 145.44 694.17 132.37 694.35 127.12 C 694.52 121.86 694.04 124.36 694.92 122.68 C 695.81 121.01 698.48 117.96 699.68 117.07 C 700.87 116.19 700.88 117.83 702.09 117.35 C 703.3 116.87 706.2 114.4 706.95 114.19 C 707.7 113.98 701.71 115.99 706.59 116.09 Z" fill="none" stroke="#475569" stroke-width="3" stroke-linecap="round" stroke-linejoin="round" opacity="1.0"/>
  <path d="M 706.68 117.14 C 711.79 116.91 727.68 114.22 737.38 114.05 C 747.09 113.88 755.08 116.2 764.91 116.1 C 774.73 116 786.12 113.55 796.32 113.46 C 806.52 113.36 816.59 115.48 826.11 115.52 C 835.62 115.56 843.77 113.77 853.42 113.7 C 863.08 113.63 874.42 114.75 884.02 115.11 C 893.63 115.46 905.54 115.93 911.04 115.82 C 916.54 115.71 915.06 114.34 917.04 114.45 C 919.02 114.56 921.44 115.18 922.91 116.48 C 924.38 117.78 925.26 120.7 925.85 122.24 C 926.43 123.78 926.39 124.82 926.41 125.71 C 926.42 126.59 925.99 122.59 925.92 127.55 C 925.84 132.51 925.99 146.38 925.96 155.48 C 925.92 164.58 925.61 173.73 925.71 182.13 C 925.81 190.53 926.6 197.17 926.53 205.88 C 926.47 214.58 925.34 225.01 925.33 234.37 C 925.33 243.73 926.65 253.19 926.52 262.06 C 926.4 270.92 924.88 278.5 924.6 287.56 C 924.33 296.61 925.01 307.47 924.89 316.37 C 924.78 325.27 924.21 335.75 923.92 340.94 C 923.62 346.14 923.66 345.62 923.12 347.55 C 922.58 349.48 921.61 351.18 920.67 352.53 C 919.73 353.88 918.41 354.97 917.48 355.66 C 916.54 356.35 915.99 356.82 915.07 356.67 C 914.14 356.52 916.83 355.15 911.94 354.77 C 907.04 354.39 895.56 354.31 885.71 354.39 C 875.87 354.47 863.03 355.1 852.87 355.25 C 842.72 355.4 834.06 355.46 824.78 355.28 C 815.51 355.09 806.77 353.93 797.23 354.13 C 787.68 354.34 777.4 356.41 767.53 356.49 C 757.67 356.58 747.95 355.06 738.04 354.63 C 728.13 354.2 713.66 353.72 708.08 353.93 C 702.5 354.15 705.99 356.21 704.56 355.94 C 703.13 355.66 700.65 353.43 699.52 352.26 C 698.38 351.09 698.31 350.14 697.72 348.91 C 697.14 347.69 696.27 346.21 696.03 344.89 C 695.79 343.58 696.43 345.59 696.28 341.03 C 696.12 336.46 695 326.35 695.09 317.51 C 695.17 308.67 696.69 296.97 696.78 288.01 C 696.88 279.06 696.01 272.88 695.66 263.79 C 695.31 254.7 694.58 242.81 694.69 233.45 C 694.8 224.09 696 216.07 696.31 207.62 C 696.62 199.17 696.68 191.55 696.55 182.75 C 696.42 173.95 696.06 163.75 695.54 154.79 C 695.03 145.84 693.51 134.12 693.45 129 C 693.39 123.88 694.19 125.98 695.18 124.08 C 696.18 122.18 697.91 118.8 699.43 117.61 C 700.95 116.42 703.07 117.31 704.29 116.95 C 705.51 116.58 706.35 115.4 706.74 115.43 C 707.14 115.46 701.57 117.37 706.68 117.14 Z" fill="none" stroke="#475569" stroke-width="2.1" stroke-linecap="round" stroke-linejoin="round" opacity="0.45"/>
  <path d="M 732.81 150.19 C 740.34 150.36 769.66 150.89 778.04 151.36 C 786.43 151.83 781.6 152.5 783.11 153.01 C 784.61 153.53 786.17 153.56 787.05 154.43 C 787.93 155.3 787.98 156.64 788.39 158.22 C 788.8 159.81 789.45 163.12 789.51 163.93 C 789.56 164.75 788.75 159.05 788.69 163.12 C 788.64 167.19 788.9 183.46 789.17 188.35 C 789.45 193.23 791.02 190.87 790.36 192.44 C 789.7 194 786.44 196.39 785.22 197.74 C 783.99 199.08 784.42 200.09 783 200.5 C 781.57 200.91 777.27 199.89 776.66 200.19 C 776.05 200.48 786.55 202.26 779.34 202.26 C 772.13 202.26 742.07 200.71 733.41 200.19 C 724.74 199.67 729.08 199.63 727.34 199.11 C 725.59 198.6 724.01 198.23 722.91 197.11 C 721.82 195.98 721.35 193.61 720.76 192.37 C 720.17 191.14 719.32 190.1 719.38 189.7 C 719.44 189.31 721.01 194.36 721.11 190 C 721.22 185.64 719.99 168.94 719.98 163.56 C 719.97 158.18 720.58 159.01 721.05 157.74 C 721.52 156.46 721.52 157.05 722.81 155.9 C 724.09 154.74 727.08 151.74 728.76 150.81 C 730.44 149.88 732.23 150.45 732.91 150.34 C 733.58 150.24 725.29 150.02 732.81 150.19 Z" fill="#1F2937" opacity="0.13"/>
  <path d="M 726.16 144.23 C 733.63 144.29 763.94 144.58 772.41 144.83 C 780.89 145.07 775.47 144.95 777.01 145.69 C 778.55 146.44 780.44 148.09 781.64 149.27 C 782.85 150.46 783.6 151.51 784.26 152.81 C 784.93 154.11 785.48 156.47 785.63 157.08 C 785.77 157.7 785.25 152.1 785.14 156.49 C 785.03 160.87 785.09 178.28 784.96 183.39 C 784.83 188.51 784.96 185.77 784.35 187.19 C 783.75 188.61 782.39 190.74 781.31 191.91 C 780.22 193.09 779.27 193.65 777.85 194.24 C 776.42 194.84 773.41 195.38 772.75 195.5 C 772.08 195.63 781.39 195.09 773.85 194.98 C 766.31 194.88 736.19 195.13 727.5 194.86 C 718.81 194.59 723.29 193.86 721.71 193.36 C 720.14 192.86 719.1 192.8 718.07 191.84 C 717.05 190.89 716.07 189.19 715.54 187.63 C 715.01 186.06 715.07 183.19 714.88 182.48 C 714.69 181.77 714.41 187.59 714.41 183.36 C 714.4 179.13 714.67 162.09 714.84 157.07 C 715.01 152.06 714.93 154.69 715.43 153.29 C 715.93 151.88 716.57 149.9 717.83 148.63 C 719.09 147.36 721.35 146.38 722.98 145.68 C 724.61 144.98 727.07 144.69 727.6 144.45 C 728.13 144.21 718.69 144.17 726.16 144.23 Z" fill="#D8F5F0" opacity="1"/>
  <path d="M 727.08 143.6 C 734.79 143.81 764.47 145.29 772.67 145.5 C 780.88 145.72 774.6 144.59 776.29 144.88 C 777.98 145.17 781.47 145.78 782.82 147.24 C 784.17 148.7 784.13 152.14 784.41 153.64 C 784.69 155.14 784.47 155.61 784.49 156.24 C 784.52 156.88 784.38 152.97 784.57 157.44 C 784.75 161.91 785.85 178.11 785.59 183.07 C 785.32 188.02 783.88 185.94 782.95 187.17 C 782.02 188.4 780.92 189.47 780.01 190.46 C 779.09 191.44 778.4 192.27 777.46 193.07 C 776.52 193.87 775.06 195.16 774.36 195.28 C 773.66 195.4 780.95 193.93 773.27 193.78 C 765.58 193.63 736.63 194.42 728.25 194.39 C 719.87 194.36 724.7 194.3 723 193.62 C 721.31 192.94 719.31 191.55 718.09 190.31 C 716.88 189.08 716.26 187.58 715.69 186.21 C 715.13 184.85 714.67 182.71 714.7 182.15 C 714.74 181.59 715.67 186.83 715.92 182.84 C 716.18 178.85 716.05 163.38 716.24 158.22 C 716.43 153.05 716.73 153.36 717.04 151.83 C 717.35 150.3 717.19 150.05 718.11 149.03 C 719.02 148.02 721.17 146.55 722.55 145.74 C 723.93 144.93 725.65 144.56 726.4 144.2 C 727.16 143.84 719.36 143.38 727.08 143.6 Z" fill="none" stroke="#0D9488" stroke-width="3" stroke-linecap="round" stroke-linejoin="round" opacity="1.0"/>
  <path d="M 728.53 145.78 C 736.38 146.34 766.14 146.6 774.67 146.95 C 783.2 147.3 778.42 147.3 779.71 147.91 C 781.01 148.52 781.63 149.72 782.44 150.59 C 783.25 151.46 784.21 152.18 784.59 153.12 C 784.96 154.07 784.43 155.39 784.67 156.26 C 784.92 157.13 785.76 154.19 786.06 158.35 C 786.35 162.51 787.11 176.46 786.45 181.23 C 785.8 185.99 782.78 185.37 782.13 186.95 C 781.48 188.53 783.21 189.28 782.55 190.68 C 781.89 192.08 779.62 194.73 778.18 195.32 C 776.74 195.92 774.96 194.1 773.9 194.25 C 772.83 194.4 779.58 196.08 771.77 196.23 C 763.95 196.39 735.56 195.75 727.03 195.18 C 718.49 194.62 722.04 193.5 720.57 192.82 C 719.09 192.14 718.95 192.11 718.16 191.12 C 717.36 190.12 716.27 188.2 715.77 186.85 C 715.28 185.5 715.57 183.36 715.17 183.04 C 714.77 182.71 713.45 188.94 713.36 184.9 C 713.28 180.86 714.43 164.57 714.67 158.8 C 714.9 153.03 714.37 151.94 714.76 150.28 C 715.14 148.63 715.63 149.35 716.98 148.86 C 718.34 148.37 721.11 148.23 722.88 147.35 C 724.65 146.48 726.66 143.87 727.6 143.61 C 728.55 143.35 720.69 145.23 728.53 145.78 Z" fill="none" stroke="#0D9488" stroke-width="2.1" stroke-linecap="round" stroke-linejoin="round" opacity="0.45"/>
  <text x="750" y="177" font-family="Chalkboard SE, Comic Sans MS, Comic Neue, Segoe Print, Bradley Hand, cursive" font-size="17" fill="#0D9488" text-anchor="middle">A</text>
  <path d="M 793.49 216.3 C 801.56 216.61 830.98 216.36 839.19 216.62 C 847.4 216.89 841.57 217.46 842.74 217.88 C 843.91 218.31 845.39 218.29 846.19 219.18 C 847 220.08 846.93 221.59 847.59 223.23 C 848.25 224.87 850 228.08 850.16 229.02 C 850.33 229.97 848.43 224.76 848.57 228.93 C 848.72 233.1 850.79 249.03 851.04 254.07 C 851.28 259.11 850.91 257.66 850.03 259.15 C 849.16 260.65 846.86 262.13 845.78 263.06 C 844.69 263.99 845.04 264.07 843.52 264.72 C 842 265.37 837.74 266.53 836.68 266.95 C 835.61 267.37 844.81 267.44 837.12 267.25 C 829.44 267.05 798.95 266.06 790.55 265.8 C 782.15 265.53 788.1 266.35 786.74 265.66 C 785.37 264.97 783.25 262.72 782.36 261.64 C 781.46 260.57 781.63 260.53 781.36 259.21 C 781.09 257.9 781.06 254.41 780.75 253.74 C 780.45 253.08 779.68 259.47 779.53 255.24 C 779.39 251.01 779.71 233.42 779.9 228.36 C 780.09 223.3 780.2 226.32 780.7 224.87 C 781.2 223.42 782.02 220.97 782.9 219.65 C 783.78 218.33 784.67 217.75 785.97 216.93 C 787.27 216.11 789.46 214.84 790.71 214.74 C 791.96 214.63 785.41 215.98 793.49 216.3 Z" fill="#1F2937" opacity="0.13"/>
  <path d="M 786.6 210.15 C 794.2 210.03 823.7 209.18 832.19 209.4 C 840.67 209.63 835.98 210.83 837.51 211.51 C 839.04 212.2 840.37 212.54 841.4 213.51 C 842.43 214.49 842.98 215.92 843.69 217.37 C 844.4 218.81 845.42 221.33 845.67 222.17 C 845.91 223 845.31 218.14 845.17 222.4 C 845.03 226.65 844.96 242.74 844.82 247.68 C 844.67 252.62 845 250.56 844.31 252.05 C 843.63 253.55 841.81 255.56 840.7 256.65 C 839.58 257.73 838.79 257.9 837.63 258.57 C 836.48 259.24 834.65 260.56 833.74 260.66 C 832.83 260.77 840.06 259.32 832.17 259.19 C 824.29 259.05 794.72 259.8 786.44 259.85 C 778.15 259.9 783.79 260.15 782.43 259.48 C 781.08 258.81 779.37 256.96 778.32 255.83 C 777.28 254.69 776.86 253.89 776.16 252.67 C 775.46 251.45 774.33 249.37 774.14 248.48 C 773.96 247.59 774.89 251.86 775.05 247.34 C 775.21 242.82 775 226.25 775.1 221.37 C 775.21 216.5 774.98 219.31 775.66 218.1 C 776.34 216.89 778.01 215.47 779.16 214.13 C 780.31 212.79 781.32 210.75 782.55 210.08 C 783.78 209.41 785.88 210.1 786.55 210.11 C 787.23 210.12 778.99 210.27 786.6 210.15 Z" fill="#E7E9FF" opacity="1"/>
  <path d="M 786.84 210.97 C 794.9 211.26 826.03 210.27 834.42 210.48 C 842.81 210.7 835.99 211.57 837.16 212.26 C 838.34 212.96 840.28 213.56 841.48 214.65 C 842.69 215.75 843.74 217.66 844.38 218.83 C 845.02 219.99 845.23 221.23 845.34 221.65 C 845.45 222.06 845.26 216.98 845.05 221.31 C 844.84 225.65 844.38 242.41 844.07 247.64 C 843.75 252.86 843.35 250.97 843.16 252.65 C 842.97 254.33 843.63 256.46 842.91 257.72 C 842.19 258.97 840.4 259.97 838.84 260.18 C 837.29 260.39 834.31 259.02 833.58 258.98 C 832.85 258.94 842.36 259.9 834.47 259.94 C 826.59 259.98 794.96 259.23 786.28 259.22 C 777.59 259.21 783.43 260.56 782.39 259.87 C 781.34 259.19 781.17 256.32 780.01 255.1 C 778.84 253.88 776.14 253.8 775.39 252.55 C 774.64 251.29 775.58 248.44 775.52 247.55 C 775.46 246.65 775.26 251.48 775.04 247.19 C 774.82 242.9 774.18 226.77 774.22 221.81 C 774.25 216.85 774.62 218.86 775.27 217.43 C 775.92 215.99 777.01 214.19 778.12 213.21 C 779.23 212.23 780.61 212.3 781.93 211.56 C 783.25 210.81 785.22 208.85 786.04 208.75 C 786.86 208.65 778.77 210.68 786.84 210.97 Z" fill="none" stroke="#4F46E5" stroke-width="3" stroke-linecap="round" stroke-linejoin="round" opacity="1.0"/>
  <path d="M 788.4 210.83 C 795.8 210.89 823.07 209.17 831.62 209.23 C 840.17 209.29 837.86 210.32 839.7 211.18 C 841.53 212.03 841.66 213.53 842.63 214.37 C 843.59 215.21 845.26 214.93 845.48 216.21 C 845.71 217.49 844.07 220.98 843.97 222.06 C 843.87 223.14 844.88 218.33 844.87 222.7 C 844.86 227.06 843.78 243.43 843.91 248.27 C 844.04 253.11 845.68 250.61 845.64 251.75 C 845.61 252.9 845.13 254.11 843.71 255.14 C 842.29 256.17 838.73 257.44 837.13 257.92 C 835.53 258.4 834.91 257.83 834.1 258 C 833.3 258.17 840.04 258.23 832.31 258.93 C 824.57 259.63 795.81 262.53 787.69 262.18 C 779.57 261.83 784.79 257.71 783.57 256.84 C 782.35 255.96 781.41 257.72 780.37 256.92 C 779.33 256.13 778.5 253.32 777.33 252.08 C 776.17 250.83 774.03 249.82 773.37 249.45 C 772.72 249.08 772.83 254.67 773.38 249.86 C 773.93 245.05 776.09 226.19 776.68 220.57 C 777.27 214.95 776.64 216.99 776.92 216.13 C 777.2 215.27 777.41 216.63 778.36 215.42 C 779.3 214.2 781.12 209.92 782.6 208.83 C 784.08 207.75 786.27 208.55 787.24 208.88 C 788.21 209.22 781.01 210.77 788.4 210.83 Z" fill="none" stroke="#4F46E5" stroke-width="2.1" stroke-linecap="round" stroke-linejoin="round" opacity="0.45"/>
  <text x="810" y="242" font-family="Chalkboard SE, Comic Sans MS, Comic Neue, Segoe Print, Bradley Hand, cursive" font-size="17" fill="#4F46E5" text-anchor="middle">B</text>
  <path d="M 852.54 291.74 C 859.96 291.8 888.78 291.03 896.91 290.81 C 905.04 290.59 899.83 289.65 901.33 290.42 C 902.83 291.2 904.74 294.17 905.89 295.46 C 907.04 296.75 907.68 296.87 908.25 298.17 C 908.82 299.46 909.17 302.3 909.33 303.21 C 909.48 304.12 908.9 299.27 909.18 303.63 C 909.47 308 910.83 324.45 911.04 329.39 C 911.24 334.34 911.28 332.17 910.42 333.31 C 909.56 334.45 907.12 334.98 905.88 336.23 C 904.64 337.47 904.51 339.83 902.98 340.78 C 901.44 341.73 897.45 341.74 896.66 341.93 C 895.87 342.12 905.83 342.31 898.23 341.92 C 890.62 341.52 859.72 339.8 851.02 339.57 C 842.33 339.34 847.23 340.77 846.08 340.52 C 844.94 340.28 845.13 339.12 844.16 338.09 C 843.19 337.05 840.87 335.95 840.25 334.3 C 839.62 332.65 840.68 329.08 840.41 328.17 C 840.15 327.25 838.58 332.79 838.67 328.8 C 838.77 324.81 840.41 309.26 841 304.2 C 841.59 299.15 841.7 300.3 842.21 298.48 C 842.73 296.66 843.46 294.5 844.09 293.25 C 844.72 292 844.62 291.45 846 290.99 C 847.39 290.52 851.3 290.33 852.39 290.46 C 853.47 290.58 845.12 291.68 852.54 291.74 Z" fill="#1F2937" opacity="0.13"/>
  <path d="M 847.73 285.19 C 855.46 285.25 884.92 285.63 893.21 285.63 C 901.51 285.64 896.13 284.67 897.52 285.21 C 898.91 285.75 900.32 287.74 901.55 288.88 C 902.77 290.02 904.19 290.75 904.87 292.04 C 905.55 293.33 905.62 295.73 905.63 296.63 C 905.64 297.52 904.98 292.97 904.91 297.41 C 904.84 301.85 905.32 318.36 905.21 323.25 C 905.1 328.13 905.03 325.24 904.26 326.72 C 903.48 328.21 901.59 330.91 900.59 332.16 C 899.59 333.41 899.58 333.73 898.25 334.21 C 896.92 334.69 893.6 334.89 892.62 335.04 C 891.63 335.18 900.02 334.97 892.34 335.08 C 884.67 335.19 854.95 335.96 846.56 335.72 C 838.16 335.48 843.33 334.34 841.97 333.66 C 840.61 332.98 839.36 332.69 838.41 331.66 C 837.46 330.63 836.92 328.92 836.25 327.47 C 835.58 326.03 834.46 323.81 834.39 322.97 C 834.32 322.13 835.62 326.64 835.83 322.44 C 836.04 318.24 835.66 302.69 835.66 297.78 C 835.65 292.87 835.49 294.55 835.82 292.96 C 836.16 291.37 836.42 289.41 837.66 288.24 C 838.9 287.07 841.74 286.46 843.28 285.96 C 844.81 285.47 846.11 285.41 846.85 285.28 C 847.59 285.15 840 285.13 847.73 285.19 Z" fill="#FDEBCF" opacity="1"/>
  <path d="M 847.72 286.18 C 855.28 285.97 885.38 284.48 893.73 284.48 C 902.09 284.48 896.63 285.63 897.82 286.18 C 899.01 286.72 899.62 286.65 900.85 287.75 C 902.09 288.85 904.48 291.13 905.21 292.77 C 905.94 294.42 905.14 296.79 905.25 297.61 C 905.36 298.43 906.03 293.23 905.87 297.69 C 905.7 302.15 904.47 319.54 904.25 324.35 C 904.03 329.15 905.04 325.37 904.55 326.51 C 904.06 327.65 902.28 330.16 901.32 331.2 C 900.36 332.25 900.14 332.34 898.8 332.78 C 897.46 333.23 894.33 333.56 893.29 333.88 C 892.26 334.21 900.46 334.73 892.62 334.75 C 884.77 334.77 854.37 334.15 846.24 334 C 838.11 333.85 844.94 334.09 843.83 333.86 C 842.71 333.64 840.99 333.81 839.54 332.64 C 838.1 331.47 836.15 328.68 835.16 326.84 C 834.16 325 833.67 322.04 833.57 321.6 C 833.47 321.16 834.1 328.28 834.58 324.21 C 835.06 320.13 836.24 302.57 836.46 297.17 C 836.69 291.76 835.84 293.22 835.94 291.76 C 836.03 290.31 835.96 289.43 837.03 288.43 C 838.1 287.44 840.47 286.25 842.35 285.8 C 844.24 285.35 847.44 285.67 848.33 285.74 C 849.23 285.8 840.15 286.39 847.72 286.18 Z" fill="none" stroke="#D97706" stroke-width="3" stroke-linecap="round" stroke-linejoin="round" opacity="1.0"/>
  <path d="M 846.24 283.86 C 853.27 283.74 882.23 284.93 890.95 285.14 C 899.67 285.35 896.75 284.19 898.58 285.13 C 900.4 286.06 901.26 289.6 901.9 290.75 C 902.54 291.9 901.64 291.18 902.41 292.02 C 903.19 292.86 905.93 295.26 906.55 295.78 C 907.17 296.31 906.11 290.76 906.13 295.18 C 906.15 299.59 906.88 316.5 906.67 322.26 C 906.47 328.03 905.52 328.31 904.9 329.76 C 904.29 331.21 904.31 329.94 903 330.97 C 901.69 331.99 898.6 335.24 897.04 335.9 C 895.48 336.56 894.29 335.01 893.65 334.95 C 893 334.89 901.02 335.26 893.16 335.52 C 885.29 335.78 854.98 336.53 846.46 336.5 C 837.94 336.47 843.03 335.94 842.03 335.34 C 841.02 334.74 841.79 334.05 840.42 332.93 C 839.05 331.82 835.02 329.98 833.81 328.65 C 832.6 327.31 833.32 326.02 833.17 324.93 C 833.02 323.84 832.88 326.96 832.93 322.11 C 832.98 317.25 832.69 300.78 833.47 295.8 C 834.25 290.81 837.11 293.29 837.59 292.2 C 838.07 291.12 835.58 290.57 836.34 289.3 C 837.11 288.02 840.12 285.11 842.2 284.53 C 844.27 283.96 848.11 285.97 848.79 285.86 C 849.46 285.74 839.22 283.98 846.24 283.86 Z" fill="none" stroke="#D97706" stroke-width="2.1" stroke-linecap="round" stroke-linejoin="round" opacity="0.45"/>
  <text x="870" y="317" font-family="Chalkboard SE, Comic Sans MS, Comic Neue, Segoe Print, Bradley Hand, cursive" font-size="17" fill="#D97706" text-anchor="middle">C</text>
  <path d="M 314.46 250.74 C 315.58 250.02 319.2 247.55 321.17 246.44 C 323.15 245.33 324.45 244.92 326.3 244.08 C 328.15 243.25 330.51 242.16 332.28 241.45 C 334.05 240.74 335.19 240.66 336.95 239.8 C 338.7 238.94 340.78 237.1 342.83 236.28 C 344.87 235.45 347.19 235.49 349.2 234.84 C 351.2 234.19 352.88 233.16 354.85 232.37 C 356.82 231.58 358.88 230.86 361.02 230.12 C 363.16 229.38 365.74 228.41 367.7 227.96 C 369.65 227.51 370.95 227.96 372.75 227.44 C 374.54 226.92 376.5 225.44 378.46 224.86 C 380.42 224.27 382.49 224.25 384.53 223.91 C 386.56 223.58 388.36 223.3 390.67 222.86 C 392.98 222.41 396.16 221.52 398.36 221.22 C 400.57 220.92 403 221.09 403.92 221.07" fill="none" stroke="#D97706" stroke-width="2.6" stroke-linecap="round" stroke-linejoin="round" opacity="1.0"/>
  <path d="M 314.48 249.67 C 315.3 249.43 317.35 249.07 319.41 248.22 C 321.46 247.36 324.81 245.74 326.82 244.55 C 328.83 243.35 329.54 241.79 331.47 241.02 C 333.39 240.25 336.21 240.78 338.36 239.94 C 340.51 239.11 342.52 237.02 344.39 236.02 C 346.26 235.02 347.94 234.7 349.57 233.95 C 351.19 233.21 352.36 231.99 354.12 231.57 C 355.89 231.14 358 232.06 360.18 231.39 C 362.35 230.73 365.02 228.21 367.18 227.59 C 369.34 226.97 371.2 228.19 373.11 227.67 C 375.02 227.14 376.44 224.85 378.61 224.42 C 380.78 224 383.92 225.37 386.12 225.13 C 388.32 224.88 389.77 223.66 391.81 222.93 C 393.84 222.2 396.28 221.22 398.31 220.74 C 400.35 220.27 403.07 220.18 404.02 220.07" fill="none" stroke="#D97706" stroke-width="1.82" stroke-linecap="round" stroke-linejoin="round" opacity="0.45"/>
  <path d="M 410 220 L 400.71 225.89 L 399.41 217.01 Z" fill="#D97706"/>
  <path d="M 589.76 219.71 C 590.74 220.04 593.58 221.01 595.64 221.71 C 597.69 222.41 599.98 223.08 602.1 223.91 C 604.22 224.74 606.39 225.78 608.35 226.68 C 610.3 227.58 611.86 228.63 613.83 229.29 C 615.8 229.95 618.2 230.2 620.18 230.65 C 622.16 231.09 623.51 231.51 625.72 231.95 C 627.93 232.38 631.14 232.58 633.43 233.23 C 635.73 233.89 637.48 235.45 639.49 235.86 C 641.5 236.26 643.54 235.47 645.48 235.68 C 647.41 235.89 649.04 236.7 651.1 237.11 C 653.15 237.53 655.58 238.05 657.81 238.18 C 660.03 238.31 662.22 237.63 664.47 237.9 C 666.71 238.17 669.04 239.6 671.27 239.8 C 673.49 240 675.88 238.99 677.82 239.1 C 679.75 239.22 682.03 240.25 682.88 240.48" fill="none" stroke="#D97706" stroke-width="2.6" stroke-linecap="round" stroke-linejoin="round" opacity="1.0"/>
  <path d="M 589.05 219.56 C 590.06 219.97 592.8 221.14 595.11 222.01 C 597.43 222.88 600.63 223.76 602.94 224.75 C 605.25 225.74 607.26 227.31 609 227.95 C 610.73 228.6 611.51 228.14 613.36 228.63 C 615.21 229.12 618.06 230.3 620.07 230.88 C 622.09 231.45 623.31 231.56 625.43 232.09 C 627.55 232.62 630.61 233.47 632.78 234.06 C 634.95 234.64 636.5 235.05 638.44 235.59 C 640.38 236.13 642.43 237 644.41 237.3 C 646.39 237.6 648.01 237.48 650.31 237.39 C 652.62 237.3 656.09 236.46 658.22 236.75 C 660.35 237.03 661.2 238.55 663.1 239.11 C 664.99 239.66 667.47 240.03 669.6 240.08 C 671.73 240.13 673.43 239.33 675.87 239.41 C 678.32 239.48 682.85 240.34 684.25 240.52" fill="none" stroke="#D97706" stroke-width="1.82" stroke-linecap="round" stroke-linejoin="round" opacity="0.45"/>
  <path d="M 690 240 L 679.8 244.12 L 680.13 235.15 Z" fill="#D97706"/>
  <text x="500" y="426.8" font-family="Chalkboard SE, Comic Sans MS, Comic Neue, Segoe Print, Bradley Hand, cursive" font-size="20" fill="#475569" text-anchor="middle">children list is derived from the three item properties</text>
</svg>
